<svg version="1.0" xmlns="http://www.w3.org/2000/svg" width="1706.667" height="1473.333" viewBox="0 0 1280 1105"><g fill="#009C9F"><path d="M415.5 11.5c-6.6 6.3-12.5 11.4-13.2 11.5-.6 0-7.5-4-15.4-8.9l-14.2-8.9-8.6 10.2c-4.7 5.6-9.8 11.6-11.3 13.4l-2.6 3.1-15.9-7.3-15.8-7.3-4.6 7.1c-2.5 3.9-6.7 10.4-9.2 14.3-2.6 4-5.3 7.3-6 7.3-.7 0-8.3-2.2-16.7-4.9-8.5-2.8-15.6-4.9-15.7-4.7-.1.1-3.6 7.2-7.7 15.7l-7.4 15.6-17.1-3.2c-9.5-1.8-17.3-2.9-17.5-2.6-.2.3-2.7 7.7-5.5 16.3L205.8 94l-7.1-.1c-4-.1-11.8-.4-17.5-.8-9.7-.6-10.3-.5-10.7 1.4-.3 1.1-1.8 8.7-3.4 16.8-1.6 8.2-3.1 15-3.3 15.2-.1.1-7.9.8-17.3 1.5-9.3.7-17.1 1.3-17.1 1.3-.1.1-.7 7.8-1.4 17.2-.7 9.3-1.3 17.1-1.4 17.3-.2.1-7.7 1.7-16.7 3.5l-16.4 3.3.3 17.6.3 17.6-15.8 5.2c-8.7 2.9-16.1 5.4-16.4 5.6-.3.2.8 8 2.6 17.4l3.2 17.1-11.6 5.6c-6.4 3-13.5 6.4-15.8 7.4-2.3 1.1-4 2.5-3.8 3.2 5.3 16.4 9.5 30.1 9.5 31.2 0 .7-6.5 5.5-14.4 10.6l-14.3 9.3 4.5 9.5c2.4 5.3 5.7 12.4 7.3 15.8l2.8 6.3-13.2 11.1c-7.3 6.2-13.1 11.5-13 11.9.1.4 4.1 6.8 8.8 14.3 4.7 7.5 8.5 14.1 8.5 14.7 0 .6-5.1 6.5-11.4 13.3C1.8 425.8.3 427.7 1.3 429.2c.7.9 5.6 7.1 11 13.7l9.8 11.9L11.9 469 1.7 483.2l12.7 12.1 12.7 12.2-8.1 14.7c-4.4 8-8 15-8 15.5s6.1 5.3 13.5 10.7C31.9 553.8 38 558.6 38 559c0 .5-2.7 7.9-6 16.6-3.3 8.6-5.9 15.8-5.8 15.9.2.1 6.6 3.7 14.3 8 7.7 4.2 14.4 8.1 14.9 8.5.5.5-.8 7.8-3.2 17.2-2.3 9-3.8 16.6-3.4 17 .4.3 7 3.2 14.7 6.2 7.7 3.1 14.6 6 15.4 6.5 1.1.7 1 3.6-.6 17.7-1.1 9.3-1.9 17-1.8 17.2.2.2 7.6 2.2 16.6 4.6l16.4 4.3.3 17.5.2 17.6 3.8.5c2 .3 9.8 1.3 17.3 2.3l13.7 1.7.5 3.6c.3 2 1.4 9.8 2.4 17.3l1.8 13.8 17.4.2 17.5.3 4.4 16.5c2.4 9.1 4.5 16.6 4.7 16.8.1.1 7.8-.7 17-1.8 9.2-1.2 17.1-1.7 17.5-1.3.4.4 3.3 7.3 6.5 15.3s6.1 14.9 6.5 15.3c.4.4 8-1 16.9-3.3 8.9-2.2 16.6-3.8 17.1-3.5.4.3 4.3 6.8 8.5 14.5s8 14.2 8.5 14.5c.5.3 7.1-1.9 14.7-4.9 7.6-2.9 14.8-5.6 16-6 1.8-.6 3.4 1.1 12.3 13.1 5.6 7.6 10.7 13.7 11.2 13.5.6-.1 7.5-3.8 15.4-8.1l14.4-7.9 11.8 12.4c6.6 6.8 12.2 12.4 12.5 12.4.6 0 22.9-15.7 27.2-19.1.6-.4 4.6 2.2 9.5 6.2 4.7 3.8 10.9 8.8 13.7 11l5.3 4.1 12.1-11.3c6.6-6.3 12.4-11.5 12.9-11.7.8-.3 5.2 2.3 21.7 12.6l8.2 5.2 11.2-13.3c6.1-7.2 11.5-13.1 12-13 .4.2 7.6 3.4 15.9 7.2l15.1 7 7.2-11.2c4-6.2 8.2-12.7 9.2-14.5 1.1-1.7 2.4-3.2 3-3.2.5 0 8.2 2.3 16.9 5 8.7 2.8 16 4.9 16.1 4.8.1-.2 3.5-7.2 7.5-15.6 4-8.3 7.9-15.2 8.5-15.2 1.1 0 26.9 4.5 31.2 5.5 2 .5 2.5-.7 7.2-14.7l5.1-15.3-24.2-24.2C639.4 753.9 628 743 627.3 743c-.6 0-4.6 2-8.8 4.5-40.8 24.2-88.8 39.7-141 45.7-14.1 1.6-56.8 1.6-71 0-45.6-5.2-84.3-16.5-123-35.9-83.2-41.7-146.7-114.5-176-201.8-11.5-34-16.7-61.6-18.4-97-6-124.6 53.4-242 157.5-311.3 85.9-57.2 193.5-73.5 294.3-44.6 44 12.6 85.6 34.4 123.6 64.8 13.3 10.6 42 39.4 52.9 53.1 42.2 53.1 67.4 113.5 75.8 182 1.7 14.6 1.8 64.4 0 78.5-6.6 52.2-22.5 99.2-48 142l-2.1 3.6 24.8 24.8 24.9 24.8 14.3-4.7c7.9-2.6 14.6-4.9 14.8-5.1.2-.1-1.1-7.8-2.8-17-1.7-9.2-2.8-17.1-2.4-17.4.5-.3 7.3-3.7 15.3-7.5s14.7-7.1 14.9-7.3c.3-.1-1.9-7.7-4.8-16.8-2.9-9.2-5.1-16.7-4.9-16.9.2-.1 6.5-4.2 14.1-9 7.5-4.8 14-9.1 14.2-9.5.3-.4-2.7-7.6-6.5-15.9-3.9-8.3-7-15.5-6.9-15.9 0-.4 5.8-5.4 12.9-11.2 7.1-5.8 12.9-10.8 12.9-11.3.1-.4-4-7.2-9-15.2l-9.1-14.5 11.4-12.1c6.2-6.6 11.3-12.7 11.3-13.4 0-.8-4.6-7-10.2-13.9-5.7-6.9-10.3-12.8-10.3-13.2 0-.4 4.5-6.9 10-14.5l9.9-13.8-12.4-11.9c-6.9-6.5-12.5-12.1-12.5-12.5 0-.3 3.6-7.2 8-15.3 4.4-8.1 8-14.9 8-15 0-.1-6-4.6-13.2-10-7.3-5.3-13.6-10-14-10.3-.4-.3 2-7.6 5.2-16 3.3-8.5 6-15.9 6-16.5 0-.6-6.7-4.8-14.9-9.4l-14.9-8.2 4.3-16.9 4.2-16.9-16.4-6.8c-12.8-5.2-16.3-7-15.9-8.3.8-3 3.9-32.1 3.4-32.6-.2-.3-7.7-2.4-16.5-4.7l-16.1-4.3-.7-17.6-.7-17.7-9.2-1.1c-23.2-2.9-24.6-3.2-25.1-5.5-.2-1.1-1.1-7.5-2-14.1-.8-6.6-1.7-13.5-2-15.3l-.6-3.2h-17.3c-17.2 0-17.4 0-18-2.3-.3-1.2-2.2-8.5-4.2-16.2-2-7.7-3.9-14.3-4.3-14.6-.3-.4-7.3.2-15.6 1.2-8.2 1-15.9 1.8-17 1.9-1.7 0-3.1-2.6-8.4-15.8-3.5-8.6-6.5-15.8-6.6-16-.1-.2-7.5 1.5-16.3 3.8-8.9 2.2-16.5 4-17 4s-4.3-6.2-8.6-13.8c-4.2-7.5-8-14.3-8.4-15-.7-1-4.4.1-16.3 4.8-8.4 3.3-15.8 6-16.4 6-.5 0-5.4-6.1-10.9-13.5-5.4-7.4-10.2-13.5-10.7-13.5s-7.5 3.6-15.6 8l-14.8 8-12-12.6-12-12.7-14.3 10.2L455 22.1l-13.5-11C434.1 5 427.9 0 427.8 0c-.2.1-5.7 5.2-12.3 11.5z"/><path d="M248.4 172.7c-29 20.7-58.8 50.8-77.8 78.6l-4 5.8 19.6 19.7c65.5 65.9 101.5 124.3 101.8 164.8.1 25.4-16.9 62.8-46.7 102.4-16.5 22.1-52.4 62-67.6 75.4-3.7 3.2-6.7 6.2-6.7 6.7 0 1 8.3 12.8 13.9 19.9 12.8 16.1 26 30.1 41.1 43.4 10.1 9 31.1 25.3 33.8 26.4.8.2 8.7-6.9 19-17 49.9-49.1 90.4-79 127.7-94.3 29.8-12.3 51.9-11.7 84.2 2.3 24.4 10.6 59.8 34.9 90.3 62 4.7 4.2 64.5 63.3 133 131.4L834.5 924h181L843.9 752.2c-94.3-94.4-174.7-175.3-178.5-179.7-30.8-35.2-54.6-72.5-63.8-99.8-4.5-13.6-5.9-22.9-5.3-35.1 1.9-40.4 37.3-96.6 101.9-162l18.8-18.9-4.7-6.6c-19.7-27.8-50.7-58.8-78.6-78.5l-6.7-4.8-18.9 18.4c-31.9 31.3-56.2 51.6-83.1 69.6-24.9 16.6-50.5 28.3-69.8 31.7-10.1 1.9-16 1.8-26.8 0-39.9-7-91.3-40.9-150.5-99.2-11.3-11.2-20.8-20.3-21.1-20.3-.3 0-4.1 2.5-8.4 5.7zm212.9 183c15.3 3.4 28.8 10.6 40.4 21.7 17.6 16.7 26.8 36.4 28 60.1 1.8 35.2-17.2 67.3-49 83-21.6 10.6-44.7 12.2-67.4 4.5-44-15-68.3-60.6-56.7-106.5 2.1-8.4 10.5-24.8 16.4-32.2 10.2-12.7 27.9-24.6 43.7-29.2 14.1-4.2 29.9-4.7 44.6-1.4z"/><path d="M433.8 370.1c-29.6 3.3-54.5 24.9-61.8 53.5-2.4 9.4-2.6 25.1-.5 34.2 6.1 25.9 25.5 46.1 51 53.4 9.1 2.5 27.6 3.1 35.5.9 25.5-6.8 44.8-24.6 52.7-48.6 2.3-7 2.6-9.7 2.7-21.5 0-15.1-1.5-22.1-7.6-33.7-13.9-26.4-42.5-41.6-72-38.2zm325.5 573.3c-14 3.4-28 14.2-34.1 26.1-6.1 12.1-6.2 13.3-6.2 54s.1 41.9 6.3 54c6.3 12.5 21.7 23.8 36.1 26.4 4.2.8 76.9 1.1 238.5 1.1 254.2 0 238.3.3 250.9-5.7 7.7-3.7 20-16 23.5-23.5 5.4-11.5 5.8-15.8 5.5-55.2-.3-34.8-.4-36.3-2.6-42.6-5.5-15.3-17.4-27.4-32.7-33.2l-6-2.3-237-.2c-188.8-.1-238.1.1-242.2 1.1zm248.3 12.6c17.2 2.2 32.2 10.4 43.7 23.9 17.5 20.5 20.8 51 8.1 75.2-6.9 13-17.1 22.7-30.9 29.4-10.9 5.2-18.1 6.9-30 6.8-26.2-.2-48.8-14.7-60.5-38.8-9.4-19.4-9.2-39.3.8-59.5 9.8-20 29.6-34.1 52.1-37 8-1 8.8-1 16.7 0zm-129.9 43.8c16.3 8.4 19.7 29.7 6.8 42.4-4.3 4.3-12.7 7.8-18.5 7.8-5.9 0-14.1-3.5-18.2-7.7-13.4-13.8-8.8-36.2 8.8-43.3 6.2-2.5 15.2-2.2 21.1.8zm265.8-.2c9.5 4.5 14.9 13.2 15 23.9 0 6-.4 7.8-3.1 12.5-5.2 9.3-15.7 14.8-25.7 13.6-22.2-2.6-31.5-28.9-15.7-44.7 2.5-2.5 6.6-5.3 9.1-6.2 5.5-2.1 15.1-1.7 20.4.9zm-343.6 8.2c1.9.9 4.8 3.4 6.5 5.5 2.7 3.4 3.1 4.6 3.1 10.2s-.4 6.8-3 10.1c-6 7.4-14 9.3-22.2 5.3-8.8-4.3-12-15.7-6.8-24.4 4.4-7.5 14.8-10.7 22.4-6.7zm412.8-.7c5.9 2.2 11.3 10 11.3 16.4 0 4.6-3.4 10.9-7.4 14-11.2 8.5-27.6.2-27.6-13.9 0-12.4 12.2-20.9 23.7-16.5z"/><path d="M993.9 990c-11.2 1.9-20.1 8.5-25.1 18.8-2.9 5.9-3.3 7.6-3.3 14.7.1 6 .6 9.2 2.2 12.7 6.2 13.7 17.3 20.9 32.1 20.9 12.6 0 23.9-7 30-18.6 2.4-4.4 2.7-6.1 2.7-15s-.3-10.6-2.7-15c-7-13.3-21.7-20.8-35.9-18.5z"/></g></svg>