<svg version="1.0" xmlns="http://www.w3.org/2000/svg" width="1706.667" height="1053.333" viewBox="0 0 1280 790"><path d="M449 1c-1.4.4-15.3 4.2-31 8.4-25.5 6.9-28.8 8.1-31.8 10.9-1.8 1.7-3.7 4.8-4.2 6.8-1.1 4-1.3 3.1 13.9 59.8l8.2 30.5-197.4 197.5C74.4 447.3 8.3 514.1 6.5 517.3c-7.8 13.7-8.4 29.2-1.6 42.6 3.4 6.7 11.7 14.8 18.4 18.1 4.3 2 76.9 21.9 230.7 63.1 123.5 33 238.2 63.7 255 68.2l30.4 8.2 1.2 8.6c4 30.5 23.9 53.9 52.4 61.5 8.9 2.4 27.2 2.5 36 .1 40.9-11 64.4-53.3 51.4-92.7-1.6-4.7-2.3-8.4-1.8-8.9 4.3-3.9 509.7-403.2 510.5-403.4.6-.1 1.9 2.6 2.9 6.1 2.5 9.1 7 13.2 14.5 13.2 3.5 0 62.2-15.3 65.6-17 3-1.6 6.8-7 7.5-10.4.6-3.5.7-3.2-40.1-155.6-17-63.7-16.9-63.4-18.9-66.2-2.5-3.5-6.8-5.8-11.3-5.8-5.6 0-64.1 15.7-67.6 18.2-5.5 4-7 11.7-4.1 21.6l.7 2.4-324.1-.4c-178.2-.1-324.3-.5-324.6-.8-.3-.3-5.2-18.3-11.1-40-5.8-21.7-11.3-40.6-12.3-41.9-3.7-5-10.8-7.2-17.2-5.1zm691.9 182.7c0 .7-503.3 416.4-510.2 421.5l-2.4 1.7-7.1-26.7c-3.9-14.7-12.8-47.9-19.7-73.7-7-25.9-19.4-72.2-27.6-103-8.3-30.8-22-82.1-30.6-114-8.5-31.9-18.3-68.5-21.7-81.3l-6.3-23.2 30.6-.1c16.8-.1 140.6-.5 275.1-.8 134.5-.4 261.5-.8 282.3-.9 20.7-.1 37.7.1 37.6.5zm-696.6 83.1c13.9 52.4 28.7 107.8 61.7 230.7 31 115.7 34.8 130 34.7 130.2-.1.1-40.3-10.6-89.2-23.7-49-13.1-141.6-37.8-206-55-64.3-17.2-117.2-31.5-117.5-31.7-.4-.4 301.1-302.3 302-302.3.3 0 6.7 23.3 14.3 51.8zm173.2 428.3c2.4.6 6.3 2.7 8.6 4.7 15.9 13.7 6.3 40.1-14.7 40.2-10.6 0-21.1-8.7-22.8-18.9-1.7-10.8 5-22 15.3-25.7 4.5-1.6 8-1.7 13.6-.3z" fill="#009C9F"/></svg>