<svg version="1.0" xmlns="http://www.w3.org/2000/svg" width="853.333" height="1706.667" viewBox="0 0 640 1280"><g fill="#009C9F"><path d="M273.8 1.6c-1.5.8-3.3 2.4-3.9 3.5-.8 1.5-1 21.1-.8 68.8.2 36.6.4 73.8.4 82.5v15.9l-46.4 27.4-46.4 27.5-7.1.5-7.1.5-10.6-10.6C141.7 207.3 141.3 207 137 207c-4.3 0-4.7.3-15.3 10.9l-11 11-9.1.6c-5 .4-10.4 1.1-11.9 1.7-6 2.3-5.7-4.6-5.7 128.9v122.2l31.8-.6c38.5-.8 60.8-3.2 76.5-8.3l4.7-1.6V342.5l5.3-9.7c9.9-17.7 22.7-32.4 39.1-44.7 15.4-11.5 38-21.1 57.6-24.2 11.8-1.9 34.3-1.7 45.5.5 40.2 7.8 74.9 32.9 93.3 67.4l4.2 7.9v132.2l5.3 1.5c20.1 5.8 39.2 7.8 77.7 8l30.5.1.3-118.5c.2-65.2 0-120.5-.3-122.9-.5-2.9-1.6-5.4-3.3-7.1-2.5-2.4-3.6-2.7-13.2-3.3l-10.5-.7-10.8-11c-10.7-10.9-10.8-11-15.5-11-4.7 0-4.8.1-15.1 10.6l-10.3 10.7-7.2-.6-7.1-.5-46.4-27.4-46.3-27.3.6-81.8c.6-90 .9-86-5.4-89.2-4.3-2.2-87.1-2.2-91.2.1z"/><path d="M292.5 473.7c-2.2.1-9.6.7-16.5 1.3-27.8 2.3-58.7 8.1-82 15.5-19.5 6.2-42.7 8.5-85.7 8.5-26.1 0-31.9.3-34.3 1.5-6.4 3.3-6-5.3-6 136 0 86.8.3 129.3 1 130.6 1 1.8 2.9 1.9 71.5 1.9 55.2 0 70.6-.3 71.2-1.3.4-.6 1-30.2 1.3-65.7.5-55.8.8-65.7 2.3-73.5 6.4-32.8 20-59.2 40.3-78.5 13.6-12.9 27-20.6 44.3-25.2 11.1-3 28.6-2.9 40.1.1 29.7 8 54.6 29.8 70 61.6 6.8 13.8 9.2 20.7 12.8 36l2.5 11 .6 66c.4 36.3 1 66.8 1.5 67.7.8 1.7 5.2 1.8 71.2 1.8 68.5 0 70.4-.1 71.4-1.9.7-1.3 1-44.1 1-131.3 0-115.6-.2-129.6-1.6-131.6-3.5-5-5.1-5.2-38.1-5.2-45.3 0-69-2.5-87.8-9-19.5-6.8-57.8-13.5-91-16-12.7-.9-50.2-1.1-60-.3zM84 1001.9c0 196.5.1 208 1.8 210 2.6 3.3 7.9 4.1 29.9 4.1h20.2l22 30.9c12.1 16.9 22.7 31.1 23.6 31.5 4.7 1.8 12.4-.5 14.5-4.3.7-1.3 1-79 1-241V794H84v207.9zm358.7-152.2c-1.1 88.5-.8 419.8.3 422.7 1.2 3.3 6.6 6.6 10.6 6.6 1.7 0 4.2-.9 5.6-1.9 1.4-1.1 11.9-15.3 23.4-31.5l20.9-29.5 20.5-.1c21.6 0 25.9-.6 29.7-4.2l2.3-2.1V794H443.3l-.6 55.7z"/></g></svg>