<svg version="1.0" xmlns="http://www.w3.org/2000/svg" width="1706.667" height="950.667" viewBox="0 0 1280 713"><g fill="#009C9F"><path d="M728.7 1c-54.5 6.9-101.3 39.6-125.1 87.5-36.8 73.9-12.8 161.7 56.7 206.9 16.8 11 35.7 18.6 56.9 22.8 15.1 3 42.4 3.2 57.2.4 50.4-9.3 93.2-41 115.7-85.8l3.9-7.8h78.5l4.7 9.3c30.2 59.3 96.6 94.1 162.8 85.3 25.6-3.4 47.7-11.9 70-26.7 12.8-8.5 33.4-29.1 41.9-41.9 37.4-56.4 37.4-124.6 0-181-8.5-12.8-29.1-33.4-41.9-41.9-37.9-25.2-80-33.5-124-24.5-40.9 8.4-79.8 35.7-102.4 71.8-2.8 4.5-6.4 11-8 14.4l-3 6.2H894l-3.9-7.8C868 44.3 827.4 13.6 777.4 3 766.2.6 740-.5 728.7 1zm34.7 97.7c22.7 5.6 41.3 25.2 46.3 48.7 1.9 9.1 1.2 23.7-1.6 32.6-7 22-27 39.5-50.1 43.6-39 6.9-75-23.4-75-63.1 0-32.3 23.6-59 56-63.5 6.8-1 16.6-.3 24.4 1.7zm374.1.5c16.6 4.7 31.7 17.3 39.2 32.8 5.1 10.6 6.6 17.1 6.6 28.5 0 11.4-1.5 17.9-6.6 28.5-3.3 6.7-5.8 10.2-12.2 16.5-12.9 12.9-27 18.9-44.5 18.9-11.6.1-18-1.4-28.9-6.6-12-5.7-23.2-16.9-28.9-28.9-5.1-10.8-6.6-17.2-6.6-28.4s1.5-17.6 6.6-28.4c3.3-6.8 5.6-10.1 12.2-16.6 17.5-17.3 39.7-23.1 63.1-16.3z"/><path d="M737.3 126.4c-17.8 5.8-28.7 23-25.3 40 .7 3.3 2.1 7.8 3.2 10 3.1 6 10.2 13 16.5 16.1 5.1 2.6 6.9 2.9 14.8 3 8.2 0 9.6-.3 15.7-3.3 12.9-6.3 19.8-17.4 19.8-31.7 0-9.5-2.5-16.3-8.5-23.2-8.7-10-24.5-14.7-36.2-10.9zm373.4-.3c-9.4 2.2-19.2 10.4-23.6 19.9-2.2 4.6-2.6 6.9-2.6 14.5 0 11 2.6 17.4 10.1 24.9 12.1 12.2 30.1 14 44.3 4.5 13.4-9 19.2-25.6 14.1-40.4-6.1-17.6-24.2-27.7-42.3-23.4zM595.2 305.8c-21 36.1-29.2 50.5-29 50.7.2.2 4.4 1 9.3 2 24.1 4.4 52.8 17.6 72.5 33.3 6.8 5.5 18.7 17 24.1 23.5l4.8 5.7 2.5-4.2c19.8-34.2 30.5-53.2 30.2-53.6-.3-.2-4.6-1.2-9.8-2.2-36.2-7.1-69.1-26-93.9-54.2l-6.8-7.7-3.9 6.7zM139 393.5c-35.6 4.9-65.6 19.9-91.6 45.9-18.8 18.9-31.1 38.4-38.9 62-16 48.3-9.1 98.4 19.6 141.6 8.5 12.8 29.1 33.4 41.9 41.9 37.9 25.2 80 33.5 124 24.5 40.9-8.4 79.8-35.7 102.4-71.8 2.8-4.5 6.4-11 8-14.4l3-6.2H386l3.9 7.8c35.4 70.4 118.1 104.7 193.4 80.1 39.8-13 74.5-43 93.1-80.4 36.8-73.9 12.8-161.7-56.7-206.9-16.8-11-35.7-18.6-56.9-22.8-15.1-3-42.4-3.2-57.2-.4-50.4 9.3-93.2 41-115.7 85.8L386 488h-78.5l-4.7-9.3c-30.3-59.5-97.2-94.3-163.8-85.2zm36.7 96.6c2.6.6 8.6 2.9 13.2 5.1 12 5.7 23.2 16.9 28.9 28.9 5.1 10.8 6.6 17.2 6.6 28.4s-1.5 17.6-6.6 28.4c-5.7 12-16.9 23.2-28.9 28.9-10.9 5.2-17.2 6.6-29.4 6.4-17.8-.1-31.7-6.1-44.5-19.1-8.3-8.3-14.7-19.6-17.1-30.1-1.6-7.1-1.6-21.9 0-29 4.8-20.8 22.4-39.8 42.9-46.5 11.1-3.6 23.6-4.1 34.9-1.4zm377.3 1.5c32.1 10.8 50.4 44.2 42 76.8-5.7 22.4-23.5 40.2-46 46.1-8.5 2.3-23.5 2.3-31.9.1-29.8-7.9-49.5-34.9-47.8-65.6 1-16.9 6.8-29.9 18.9-42.1 16.6-16.7 42.4-22.7 64.8-15.3z"/><path d="M150.1 518.4c-18.7 6.1-29.4 26.9-23.1 45.1 8.6 25.1 39.8 32.5 58.4 13.9 7.5-7.5 10.1-13.9 10.1-24.9 0-7.6-.4-9.9-2.6-14.5-3.3-7.1-10.9-14.7-17.9-17.8-6.7-3.1-18.2-3.9-24.9-1.8zm373.2 0c-15.9 5.2-25.3 17.9-25.3 34.1 0 14.2 7 25.4 19.8 31.7 5.9 3 7.6 3.3 15.2 3.3 10 0 17-2.7 24.2-9.4 22.8-20.9 8.9-59.1-22.1-60.7-4.8-.3-9.2.1-11.8 1z"/></g></svg>