<svg version="1.0" xmlns="http://www.w3.org/2000/svg" width="173.333" height="185.333" viewBox="0 0 1198 1280"><path d="M823.5 1.6c-14 3.1-24.4 8.2-48.1 23.6-18 11.7-20.2 12-24.4 3.4-2.5-5.4-3.6-6.4-7.5-6.8-2.6-.3-3.1.1-4.6 4.2-2.4 6-2.3 10.3.2 15.1 3.3 6.5 2.7 10.2-3.1 21.1-2.8 5.4-6.1 10.5-7.3 11.3-1.2.8-3.9 1.5-6 1.5-4.2 0-7.7-2.8-10.9-8.8-3.4-6.3-10.8-2.9-13.8 6.4-1.6 4.6-.9 8.5 2.9 17.2 1.7 3.9 3.1 7.7 3.1 8.4 0 .8-1.3 2.7-3 4.3-3.4 3.2-3.8 6-1.4 9.4 1.4 2 2.3 2.2 5.6 1.8 6.4-.9 10.3.9 18.1 8.2 4 3.7 10.1 8.6 13.4 10.9 11.1 7.6 13.8 13.6 12.8 29.4l-.6 10.6 3 3.4c1.6 1.9 6.9 5.8 11.8 8.8 11.1 6.8 19.2 14.4 23.2 22 5.7 10.7 10.1 12.7 20.6 9.4 4.8-1.5 5.5-1.5 11 0 6.2 1.9 11.5 6.1 11.5 9.4 0 3.3-3.6 6.7-11.1 10.7-8.1 4.2-10.9 6.7-10.9 9.4 0 2.9 4.7 7.9 10.7 11.3 2.9 1.6 5.3 3.6 5.3 4.4 0 .8-2.1 2.4-4.7 3.5s-7.9 4.4-11.8 7.3c-3.8 2.9-9.1 6.3-11.7 7.5-4.7 2.2-7 5.1-12.3 15.6-3.1 6-7.4 9.7-17.1 14.7-11.3 5.8-19.1 8.8-34 13.3-17.9 5.5-36.1 12.9-54.4 22.3-37.3 19.2-43.1 21.7-59.6 25.1-19.7 4.1-39.5 5-68.9 3-17.9-1.2-21-2-23-6-2.4-4.6-1.8-7.3 3.7-15.5 7.5-11.2 12.7-16.4 16.6-16.4 3.5 0 6.2-2.2 6.2-5.1 0-2.4-4.3-6.9-6.5-6.9-4.7 0-14.9 8.1-33 25.9-17.8 17.7-19.3 18.9-24.2 20.1-9 2.1-12.6.8-20.9-7.4-4.1-4-7.6-8.4-8-10-.9-3.6.3-8.4 5.5-21.8 5.8-15.1 7.5-24.1 6.8-35.8-.7-11.8-3.3-29.8-5.3-36.7-1.9-7-13.7-22.7-26.9-35.9-8.1-8.1-11.6-10.8-18.2-14.1-13.6-6.8-21.6-6.8-37.2.1-4.2 1.8-11 4.2-15.1 5.2-4.1 1.1-12 4.3-17.5 7.2-5.5 2.9-15 7.7-21 10.7-13.4 6.6-18.6 10.8-22 18-1.4 3-3 5.5-3.5 5.5-2.1 0-4 3.4-4 7.3 0 4-4.1 17.5-9 29.9-2.2 5.7-2.3 5.8-.6 16.3.9 5.8 1.9 14.7 2.3 19.8.7 10.1-.3 8.5 10.6 17.9 3.5 3 3.9 3.9 4.7 10.2 1 8 3.3 11.8 7.8 12.7 7.1 1.4 10 5.1 12.1 15.4 2.5 11.9 6.6 16.2 23.1 24.5 9.5 4.7 19 11.2 23.5 16 4.2 4.4 9.6 7 14.9 7 3.7 0 5.3-.7 10.3-4.6 13.6-10.6 18-12.4 25.4-10.4 2.2.6 6 2.8 8.2 4.9 2.3 2.1 6.2 5.1 8.7 6.8 11.1 7.5 17.1 17.3 19.7 32.1 1.4 7.5 1.4 11.1.4 25.7-.7 9.3-1.6 24-2.1 32.5-1.1 18.4-3.2 27.4-9.5 40.8-6.1 12.8-15.8 28.4-20 32.1-1.9 1.6-5.1 3.3-7.2 3.7-5.6 1-56.2-.4-60.8-1.7-3.7-1.1-5.1-2.3-14.3-12.6-4.3-4.7-12.7-6.9-20.1-5.3-5.3 1.2-6.2 1.9-19.1 15-11.1 11.3-14.4 14-18.5 15.5-10.8 3.8-17.3 7.8-27.3 16.6-5.7 5-11.2 10.5-12.3 12.3-2.3 3.6-9.4 26.1-10.3 32.4-2 13.6 6.1 29.8 19.8 39.9 7.7 5.7 12.3 8 26.3 13.3 16 5.9 20.3 7 33.6 8 6.5.5 12.5 1.4 13.3 2 3.4 2.9 2 9-10.3 46.5-11.8 36.1-19.6 54.2-25.1 58.5-3.4 2.7-6 2.5-18.7-1.5-55.6-17.8-113.7-8.6-166.8 26.3-14 9.1-25.4 18.5-39 32-38.5 38.1-63.6 85.6-72.8 137.9-3.3 18.1-3.3 51.2-.1 68.7 10.4 56.4 39.6 100.9 92.8 140.9 20.7 15.5 29.2 20 52.5 27.5 22.5 7.3 43.3 10.9 68.4 11.9 47.1 1.8 95-10.8 134.7-35.4 50-30.9 85.8-78.5 99.7-132.6 5.4-20.8 6.6-31.7 6.2-56.7-.2-12.4-.4-27-.5-32.5l-.1-10.1 3.8-5.1c4.2-5.8 6-10.5 7.7-20.8 2.4-13.8 8.8-21.1 20.8-23.6 14.4-2.9 33.8 7.4 40.9 21.9 2.3 4.7 2.8 7 2.8 13.2 0 8.7-2.2 13.8-7.9 18.7-3.9 3.5-7.4 4.8-16.4 6.2-16.3 2.6-19.6 10.7-13.8 34.1 4.4 17.7 3.5 22.1-6.5 32.8-6.4 6.8-9.8 12.9-9.9 17.3 0 7.3 5.2 12.8 10.8 11.4 3.9-1 27.5-12.9 34-17.2 3.1-2.1 8.8-6.8 12.7-10.4 7.3-6.9 10.2-8.9 13.1-8.9.9 0 5.5 1.7 10.3 3.9 21.7 9.7 42.6 11.9 92.6 9.7 27.8-1.2 28.1-1 30.5 14.9 3.4 22.7 19.5 55.2 40 81 20.3 25.4 49.1 49.2 77 63.4 46.5 23.7 102.6 30.1 155.6 17.6 70.6-16.6 131.5-67.2 159.7-132.5 12-27.8 16.6-48.9 17.4-79.6.6-22-.4-33.9-4.2-52.2-12.6-59.6-52-114.6-107-149.3-11.9-7.4-32.6-17.7-43.6-21.5-4.4-1.5-8.5-3.4-9-4.1-.8-.9-.8-4.5.1-13 3.7-34.2-5.1-70.1-23.8-96.7-3.3-4.8-5.5-9-5.5-10.5.4-15.9 1.7-25.4 8.9-63.6 1.5-8 4.5-14.5 8-17.6 1.1-.9 6.2-4 11.4-6.9 5.2-2.8 16.9-10.1 26-16.2 26.9-18.1 28.7-19 71-35 85.6-32.3 97.4-37.9 103-48.9 1.7-3.3 2-5.9 2-18.6-.1-61.7-26.2-109.9-83-153.2-21.7-16.5-44.3-30.8-65.3-41.2-12.7-6.4-15.1-8.5-12.7-11.4 2.5-3 10.9-1.8 33.3 5 36 10.7 50.3 13.5 70.1 13.5 20.1 0 26.8-2.9 30.2-13.3 2.4-7.2 4-9.4 8.1-10.8 9.3-3 23.2.9 35.2 10 3 2.2 6.2 4.1 7.2 4.1s2.7-1.2 3.9-2.8c1.9-2.3 2.2-3.5 1.7-9.2-1.1-12.5-.4-12.3-32.9-11.8-29.6.4-30.3.6-38.9 9.8-5.5 5.9-5.7 6-10.9 6-11.2 0-61.7-9.9-79.1-15.6-6.2-2-10.4-6.4-9.5-9.9.4-1.5 1.8-3.8 3.1-5.1 2.3-2.3 2.9-2.4 17.8-2.4 15.3 0 15.5 0 27.8-4.1 6.8-2.2 15.9-5.6 20.1-7.5 10.1-4.4 30.7-17.5 36.3-23.1 5.6-5.5 11-16.2 10-19.5-.5-1.2-3.8-5.5-7.6-9.3-4.5-4.7-8.1-9.7-10.8-15-2.4-4.8-6.5-10.6-10.2-14.5-3.3-3.6-6.8-7.9-7.7-9.5-2.2-4.3-3.1-10.2-2.1-14 1.3-4.7 13.2-15.4 21.1-19.1 32.9-15.3 44.5-23.6 55.4-39.9 3.9-5.8 5.2-12.5 3.5-17.8-1.9-5.7-7.5-6.2-10.1-.9-6.2 12.3-19.9 27.3-32.6 35.5-3.9 2.5-11.2 6.2-16.3 8.3-16.7 6.7-28.8 16.9-35.2 29.9-5.5 11.2-5 19.1 1.5 27.7 4.7 6.1 7.3 11.5 9.7 20.5 2.7 10.1 3.1 10.7 10 18 6.7 7 7.3 9.6 3.2 13.6-4 3.8-11.4 6.8-32.8 13.2-10.5 3.1-25.2 8.1-32.7 11.1-7.6 3-14.2 5.4-14.7 5.4-2.9 0-15.7 5.2-19.3 7.9-5.2 3.9-8.9 4-11.7.5-3.1-4-2.7-9.1 1.4-17 3.8-7.3 4.4-11.7 1.9-15.2-2.3-3.3-5.8-2.7-14 2.4-9.1 5.6-10.6 7.4-17.2 20.1-9.3 17.5-11.3 18-22.3 4.5-4-4.8-12.8-14.4-19.6-21.3-14.5-14.8-14.7-15.5-7.4-21.7 2.7-2.3 5.2-5.1 5.6-6.2.9-2.9-1.2-6-4.5-6.7-4.6-.9-6.4-3.7-7-10.7-.5-5.6-.7-6.1-3-6.4-2-.2-4.5 1.5-11.6 8.1-5 4.6-10.3 8.7-11.7 9.1-9.5 2.4-18.3-11.7-19.4-31.1-1-16 3.6-22.4 22.3-32.1 5.6-2.8 10.7-5.9 11.5-6.8 2.6-3.1 9.1-5.4 15.7-5.4 7.8 0 11.8-1.8 17.2-7.6 3.3-3.6 4.1-5.1 3.8-7.7-.3-3.2-.3-3.2-6.6-3.5-8.1-.4-8.7-1.8-3.3-7.7 5.6-6.1 5.5-8.5-.9-13.1-2.7-2-5-4.2-5-4.9 0-.8 2.9-2.8 6.4-4.5 7-3.3 9.9-6.8 11.1-13.1 1.4-7.7-4.2-17.9-9.8-17.9-1.3 0-5.2 1.9-8.6 4.2-7.9 5.3-13.4 5.8-17.9 1.5-1.6-1.5-3.4-3.8-4-5-.6-1.2-3.5-7.4-6.5-13.8-4.6-9.7-6.5-12.4-11.5-17-6.7-6.2-18.3-12.6-28.7-15.9-9.3-2.9-25.4-3.6-35-1.4zm-9.6 355.1c9.5 4.7 12.3 11.5 10.2 23.8-2.7 15.8-3.5 39.7-2.3 66.7 4.2 88.8 21.1 164.7 46 206.1 8.9 14.7 9 14.8 8.1 50.2-.4 16 .5 22.1 9.3 58 4.7 18.9 5.2 22.2 5.2 32.6.1 11.2 0 11.7-2.9 16.5-4.3 6.9-11.2 11.4-17.6 11.4-2.8 0-6.4-.6-8.2-1.4-4-1.6-9.5-7.7-10.3-11.4-2.1-9.9-3.6-10.5-26.3-11.2-23.9-.7-23.5-.5-30.9-15.5-2.9-6-7.9-16.8-10.9-23.9-3-7.2-9.2-21.7-13.8-32.1-4.6-10.5-9-21.2-9.9-23.8-3.6-10.6-1.2-15.4 8.9-18.2 3.3-.9 10.1-3.5 15-5.7 14.1-6.3 18-5.6 23.1 4.4 2.6 5.2 4.1 5.8 7.2 3 4.3-3.8 5.6-15.3 2.3-20.8-2.4-4-8.6-7-18.3-8.8-13.5-2.6-15.1-5.1-11.7-17.8 3.8-14.3 4.8-21 4.9-31.5 0-17.7-4.4-32.1-14.6-47.6-3-4.4-5.4-8.6-5.4-9.3 0-.6.8-2.2 1.9-3.5 1.5-1.9 2.7-2.3 7.2-2.2 7.9.2 9.1-.3 8.7-3.9-.3-2.8-.8-3.2-7.3-5.2-16.9-5.4-18.6-8.8-11.7-23.2 3.3-7.1 3.7-8.7 3.7-15.9-.1-9.3-1.5-14.2-5.1-17.6-2.3-2.2-3.6-2.4-15.2-2.9-12.6-.6-12.8-.6-21.2-5-12.5-6.5-34.9-21.9-56.2-38.4-10.3-8-22.9-17.4-28-20.9-9.9-6.7-11.5-9.2-8.2-12.8 3-3.3 14-5.9 35.9-8.4 42.1-4.9 61.6-10.5 92.3-26.6 8.3-4.4 17.8-8.6 21-9.4 8.3-2.1 18.2-1.3 25.1 2.2zM556.5 548.5c5 3 12.1 6.8 15.8 8.4 16.7 7.5 29.3 17 32.8 24.6 1.3 2.8 1.9 6.4 1.9 11.8 0 8.8 1.7 13.9 5.2 15.8 1.2.7 5.2 1.5 8.8 1.8 5.9.5 6.5.8 6.8 3 .2 1.2.1 3.4-.2 4.7-.6 2.4-11 10.9-21.7 17.7-3.1 2-9.4 6.8-14 10.7-4.6 3.9-12.2 9.4-16.9 12.2-4.7 2.8-10.7 7.2-13.3 9.7l-4.8 4.6-27.7.4c-24.2.3-66.4-1.1-72.9-2.5-4-.8-2.8-4.8 5-16.7 8.7-13.3 12.6-20.1 28.2-49.2 6.5-12.1 14.2-25.4 17.3-29.5 6.1-8.3 28.9-31.5 32.4-33 3.7-1.5 7.6-.3 17.3 5.5zm-134.7 63.7c1.9 1.9 1.4 10.8-.9 17.8-6.9 21-24.1 44.6-37.2 50.9-3.8 1.8-6.2 2.1-18.3 2.1-19 0-22.7-1.2-31.1-9.6-3.5-3.5-7-6.4-7.7-6.4-.7 0-2.8 1-4.7 2.3-1.9 1.3-5.2 3.6-7.3 5-11.3 7.8-27.6-1.8-27.6-16.1 0-6.4 2.3-10.6 9.7-18.4 15.6-16.1 35.6-25 62.3-27.7 13.8-1.4 61.4-1.3 62.8.1zM274 642.5c.8 1 1 3.1.5 6.4-1.4 10 3.7 22.5 12.7 31.3 6 5.9 12.6 9 25.7 12.4 9.7 2.5 10.8 2.6 17.6 1.4 6.3-1.1 7.6-1 10.3.4 6.5 3.4 7.1 9.9 1.4 15.6-5.1 5.1-10.1 6.4-22.7 5.7-24.1-1.4-46.5-9.4-56.5-20.4-9.9-10.8-11.8-23.4-6.1-40.6 2.8-8.3 3.8-10.2 6.5-11.8 3.7-2.3 8.9-2.5 10.6-.4zm170 51c3.6 1.9 4.4 4.8 3.6 11.9-.7 5.1-.5 5.7 2.3 8.8 2.8 3.2 3.3 3.3 11.3 3.6 4.6.2 13.2-.3 19.1-1.2 5.9-.9 13.2-1.6 16.3-1.6 6.5 0 11.8-2 13.4-5.1.8-1.5 1.1-4.5.7-8.6-.8-8.1.3-8.8 11.7-7.9 15.8 1.3 16.2 3.9 3.2 23.4-10.2 15.4-12.3 20.8-11.1 29 1.4 10 8.2 20.7 17.8 28 4.7 3.6 14.5 9.3 31.2 18 1.7.9 5.2 1.7 8 1.8 6.5.4 7.5 1.9 7.5 11 0 10.7-1.7 16.9-7 26.4-7.6 13.3-10 24.9-12 56.5-.6 9.9-1.8 21.1-2.6 25-.8 3.8-2.8 14-4.4 22.5-5.1 26.6-6.8 31.7-10.9 34-3.2 1.6-3.9 1.3-9.4-4.7-7.6-8.5-19.2-20.5-81.2-84.8-67.4-69.8-68.4-70.9-81.6-85.8-5.7-6.6-12.4-14.1-14.8-16.8-2.4-2.8-4.3-5.9-4.3-7.2.3-10.1 2.1-25.7 3.1-27.7 3.7-6.9 7.7-9 19.6-10 6.3-.5 10.6-1.5 13.6-3 8.5-4.3 28.8-23.1 32.4-29.9 1.2-2.4 4.9-4.6 10.5-6.5 3.3-1 11.3-.5 14 .9zm295.5 5.7c3.3 1.5 5.4 5.1 10.3 17.3 6.3 15.6 16.2 37.5 25.1 55.2 4.4 9 8.1 17 8.1 17.8 0 .9.7 2.9 1.4 4.4 1.3 2.5 1.3 3.1 0 5-1.2 1.7-2.5 2.1-6.8 2.1-7.6 0-19.8-3.4-29.1-8-9.8-4.9-37.1-24.3-38-27-.4-1.3.5-4.4 2.4-8.4 1.7-3.4 5.2-11.8 7.7-18.7 2.5-6.8 5.6-14.5 7-17.2 1.9-3.8 2.4-6.4 2.4-12.1 0-5.9.4-7.6 2-9.4 2.4-2.5 3.8-2.7 7.5-1zM712 708c.7 4.4-2.4 19-6 29.2-4.5 12.5-12.4 22.8-17.3 22.8-1.1 0-4.6-1.8-7.8-3.9-6.7-4.5-14.6-7.7-23.6-9.6-3.4-.7-6.6-1.6-7.2-2-1.4-.8-1.4-6-.1-8.5 1.2-2.2 6.8-4 12.6-4 6.4 0 14.6-4.8 28.9-17 11.6-9.8 13.4-10.9 16.5-10.7 3.2.2 3.5.5 4 3.7zm-362.5 78.6c.9.4 3 3.4 4.7 6.8 5.7 11.4 11 17.8 35.2 42.9 35 36.3 46.5 48.4 61.4 64.9 7.3 8.1 16.2 17.3 19.8 20.5 6.3 5.5 13.4 15.4 13.4 18.6 0 2-10.4 5.6-15.7 5.4-5-.2-8.7 2.7-9.7 7.5-.8 4-8.5 11.8-11.7 11.8-4 0-14.4-12-23.3-26.9-17.4-29-39.5-50.2-79.8-76.4-8-5.2-15.4-10.7-16.4-12.2-1.7-2.6-1.6-3.1 5-24.8 3.7-12.2 7.3-23.8 7.8-25.7 1.3-4.4 3.6-9 5.6-11.3 1.7-2 1.5-1.9 3.7-1.1zm314.8 47.6c8.7 1.8 8.6 3.6-2.7 30.1-9.1 21.6-19.7 51.1-24.2 67.5-1.9 6.9-4.8 15.8-6.3 19.7-1.5 3.8-3.1 8.8-3.5 11-1.1 5.7-5 12-9.3 14.6-2.8 1.7-5.6 2.4-11.8 2.7-10.6.6-13-.5-12.1-5.6 1-6.7 10.3-23.3 19.1-34.6 4.7-6 10.2-14.3 12.2-18.5 2-4.2 5.6-10.3 8-13.6 5.7-7.8 9.9-16.5 11.9-25.1 2.1-8.6 2.3-27.8.5-39.2-1.8-10.8-1.1-11.7 7.4-10.7 3.3.3 8.1 1.1 10.8 1.7zm46.4 3.3c15.8 2 28.8 4.8 42.5 9.1 22.4 7.1 22.4 10.5.3 26.9-15.8 11.7-25.4 20.5-36.2 33-21.8 25.3-36 52.9-41.4 80.6-1 5.5-1.9 11.5-1.9 13.4 0 6.7-4.8 8.2-13.7 4.1-3.8-1.8-5.9-3.6-7.9-6.8-1.4-2.4-4.4-6-6.6-8l-4-3.8.4-6.7c.3-4.3 1.6-10 3.6-15.3 1.7-4.7 5.4-15.7 8.3-24.5 2.8-8.8 7.8-21.9 11-29.2 3.2-7.3 7.8-20.4 10.4-29.5 6.6-23.3 12.5-41 14.3-43.1 1.9-2.1 5.5-2.2 20.9-.2zm198.1 14.7c.6.7 2.6 8.7 4.6 17.8 3 14.3 6 29.6 15.8 81 2.5 13.5 2.7 28.1.4 33.5-3.1 7.2-6.8 11.5-15.5 17.8-7.4 5.4-9.2 6.2-12.8 6.1-5.3-.1-7-1.5-8.3-6.8-3-11.8-6.9-22.7-13.5-37.6-4-9.1-10.5-24-14.4-33.3L858 914v-29.9c0-25.9.2-30.2 1.6-31.5 1.3-1.4 5-1.6 24.8-1.6 17.5 0 23.6.3 24.4 1.2zM264 861.3c16.6 3.6 22.4 5.7 22.8 8.4.2 1.1-1.3 5.4-3.3 9.3-2 4-5.2 11.8-7.2 17.4-1.9 5.5-9.6 23.4-17 39.6-7.5 16.2-15.5 33.9-17.8 39.3-2.4 5.3-7 14.3-10.4 20-3.3 5.6-7.8 13.6-9.9 17.7l-3.9 7.5-8.1.5c-6.1.4-8.6 1-10.3 2.5-3.2 2.9-4.9 7.7-4.9 14 0 4.8.4 5.9 3.4 9.3 1.9 2 3.9 5.6 4.5 8 2.2 8.1-2.9 7.6 80.1 8.5 46.4.5 84.7.4 104-.2 31.1-1.1 37.9-.7 40.8 2.3 3.7 3.7 0 31-6.9 51.7-18.2 55.3-64.8 101.3-122.9 121.4-23.5 8.1-41.5 11-68 10.9-27.8-.1-49.5-4.3-73.5-14.1-87-35.5-137.1-129.5-118.4-221.7 5.6-27.7 19.6-57.3 37.7-80.1 29.7-37.2 73.6-64 118.7-72.4 15.7-2.9 15.9-2.9 38.5-2.6 17.3.3 22.3.7 32 2.8zm723.7 5.8c47.1 24.4 82.8 63.9 104.3 115.4 4.7 11.5 14 39.9 14 43.1 0 1.2-.8 3.2-1.9 4.5-2.6 3.2-13.2 4.5-50.6 6-27.4 1.1-30.9 1-41-.6-6-1-14.4-2-18.5-2.2-4.6-.3-8.1-1.1-9.2-2-4-3.5-11.8-30.4-14.5-49.7-2.3-16.4-2.7-115.3-.4-117.9 2.4-3 7.5-2 17.8 3.4zM804 875c2.7 1.5 32.8 42 39.9 53.8 13.8 23 31.5 58 36.7 72.8 1.6 4.5 1.6 5.5.4 8.5-1.9 4.4-8.4 10.9-13.4 13.3-3.5 1.6-4.9 1.7-14.5.7-5.8-.6-18.7-1.5-28.6-2.1-21-1.2-26.9-1.9-54.5-6.5-11.3-1.9-25.9-4.1-32.5-5-27.1-3.5-33.7-8.5-30.1-22.4 1.8-6.9 13.7-31.5 21.6-44.5 6.6-11 17.8-26.1 25.9-34.8 10.7-11.6 29.1-26.1 41.6-32.7 4.5-2.4 5-2.5 7.5-1.1zm-473.3 10.6c16.8 10.1 27.5 18.4 42.3 33.3 18.6 18.7 30.4 35.9 40.6 59.1 13.4 30.4 20 61.4 14.4 67-1.9 1.9-3.3 2-52.2 1.9-84.8-.2-128.9-1.2-131.5-2.9-4.3-2.8-4.7-6-2-14.1 6.8-20.2 32.2-73.8 61.2-129 10.3-19.5 11.8-21.9 14.5-21.9.9 0 6.7 3 12.7 6.6zM608.8 993c6.9 4.2 7.5 11 2.7 30.6-2.5 10.7-4.1 12.9-10.1 14-7.6 1.4-18-6-20.4-14.5-1.8-6.4-2.4-18.7-1-22 1.1-2.8 5.6-5.3 17-9.4 3.3-1.2 8.7-.6 11.8 1.3zm34.5 12.1c5 2.6 6.7 5.1 6.7 9.9 0 13.7-3.5 20-11.1 20-7.8 0-12.9-3.7-12.9-9.2 0-4 4.7-16.8 7.1-19.4 2.5-2.6 6.6-3.1 10.2-1.3zm86.4 12.9c33.3 6.5 54.6 9.7 83.8 12.5 8.4.8 15.9 1.7 16.8 2.1 1 .3 1.7 1.6 1.7 2.9 0 5 .8 5-59.4 5-50.3 0-56.9-.2-63.6-1.8-10.8-2.5-10.5-2.2-10.5-12.3.1-7.8.3-8.8 2.4-10.5 3.2-2.6 5.2-2.5 28.8 2.1zm233.3 31.6c8.6 1.2 22.1 1.5 75.4 1.3 61.9-.2 64.9-.2 65.8 1.6 2.3 4.1-.5 25.5-6.2 47.5-21.9 84.7-88.7 143.7-173.2 152.9-45.8 5-93.5-7-134.5-33.8-24.9-16.3-43.3-34.4-58.6-57.6-9.8-14.9-26.7-51.5-26.7-57.9 0-3.5 3.1-6.4 7.7-7.1 2.1-.3 9.2-2.3 15.8-4.5 16.3-5.4 118.2-30.4 156.3-38.4 6.7-1.4 15.5-2.6 19.5-2.7 3.9 0 11.7-.9 17.2-1.9 11.3-2.2 23.6-2 41.5.6zm-309.5 3.4c2 1.9 2.5 3.3 2.5 7.4 0 4.9-.2 5.2-6.2 10.9-9.2 8.7-18.8 15.6-22.6 16.3-2 .4-4.9 0-7.5-1-2.9-1.1-7.1-1.5-13.4-1.4-8.1.1-9.8-.2-14.7-2.6-8-3.9-11.8-9.5-8.3-12.4 2.2-1.9 38.1-15.4 47.2-17.8 11.4-3.1 19.3-2.8 23 .6zm158.9-1.4c2.4.9 1.9 5.1-.8 6.9-1.3.9-7.5 2.7-13.7 4-6.3 1.3-22.2 5-35.4 8.4-25.6 6.4-45.2 10.5-55.1 11.6-4.6.5-6.3.3-7.2-.8-.7-.8-1.7-5.9-2.2-11.3-1.3-13-1.3-14.3.5-17.1l1.5-2.3h55.4c30.5 0 56.1.3 57 .6zm-138.3 10c.8.9 1.5 5.1 1.7 10.3.4 8.2.3 8.8-2.2 11.8-5.5 6.6-12.9 6.3-16.9-.5-1.8-3.1-1.8-3.5-.3-7.5 1.9-5.1 6.8-11.3 11-13.8 3.8-2.3 5-2.4 6.7-.3z" fill="#fff"/></svg>