<svg version="1.0" xmlns="http://www.w3.org/2000/svg" width="1706.667" height="1064" viewBox="0 0 1280 798"><g fill="#4B4959"><path d="M549.9 1.4c.7.8 3.5 2 6.4 2.6 5.6 1.3 24.1 9 23.3 9.7-.2.2-4.2-1.1-8.7-3-8.6-3.5-11.8-4.4-27.7-7.3-14.5-2.6-25.3-.2-26 5.9-.2 1.5-.7 2.7-1.2 2.7-.4 0-.6-.8-.3-1.9.6-2.3-1.4-3.8-3-2.2-.9.9-.8 1.7.2 3.3 1.3 2 1.2 2.1-3 1.5-2.4-.3-4.5-1.1-4.8-1.8-1-3-5.2-6-7.9-5.7-3.5.4-4.4 3.8-1 3.8 2.9 0 4.8 1.7 4.1 3.6-.7 1.9-4.3 1.8-6.5-.3-1-.9-2-1.4-2.2-1.2-.2.2-4.7 8.5-9.9 18.4-7.9 15.2-10 18.4-13.4 20.7-4.5 3.1-7.4 8.8-7.5 14.9 0 2.9-.5 3.9-2.4 4.8-1.9.9-2.3 1.6-1.8 4 .5 2.3.2 3.2-1.5 4.3-1.2.7-2.1 2.3-2.1 3.8 0 1.4-.9 3.1-2 3.8-1.3.8-2 2.3-2 4.2 0 3.5-2.4 4.9-7.1 4.2l-2.9-.4V65h-9.3l.8 12.2c1.1 19.5 1.7 21.6 7.2 26.5l4.7 4.2-7.2 14.8c-3.9 8.1-7.9 16.8-9 19.3-2.7 6.2-32.4 68.5-43.3 90.7-6.5 13.3-9.8 18.9-12 20.5-1.7 1.3-3.9 4-5 6-1 2-2.3 3.9-2.7 4.2-.5.3-3.6-.6-6.9-1.9-6.5-2.6-29.5-9.5-31.9-9.5-2.5 0-1.5 4.1 2 7.6 3.8 3.8 6.1 4.5 5.1 1.4-.6-2-.5-2 4.3-.4 1.6.6 1.6.7 0 1.3-3.4 1.3.9 4.2 13.8 9.3 11.6 4.6 13.8 5.2 22.2 5.5 5 .3 9.2.6 9.2.9 0 .3-1.2 2.7-2.6 5.5-2 3.9-2.9 4.9-4.2 4.4-43.5-18-87.5-25.9-124.7-22.6-45.5 4.1-79 14.7-120.4 38.1-25.2 14.3-49.2 36.3-73.6 67.5-17.8 22.8-31.5 48-40.3 74.6C4.4 477.6.7 500 .6 534c-.1 31 2.8 51.4 11.4 79.3 12.7 41.1 30 70.5 59.4 100.5C88.3 731.1 96.3 738 99.5 738c1.6 0 2.6.8 3.3 2.9 1.1 3.1 5.3 6.4 21.1 17 9.6 6.5 21.8 12.8 22.8 11.8.3-.3-1.8-2-4.6-3.7-2.8-1.7-6-4.5-7.2-6.1-1.1-1.6-8.1-7.3-15.6-12.5-7.4-5.3-16.2-11.9-19.6-14.7-15.2-12.4-36.6-36.9-50-57.2-7.6-11.6-23.5-42-22.4-43.1.3-.3 3.4 5.2 7 12.3 20 39.3 41.1 65.5 74.7 92.6 18.1 14.6 42.9 28.3 66.5 36.8 6.6 2.3 12.5 4.7 13 5.2 1.6 1.4-4.1-.3-16.5-4.8-12.2-4.5-17-5.9-17-5 0 2.5 35.7 15.2 52 18.5 5.8 1.2 11.6 2.5 13 2.8l2.5.5-2.5.7c-2.3.6-2.1.7 1.5 1.4 2.2.4 4.7 1.4 5.6 2.2 2 1.8 6.9.9 6.9-1.2 0-.8-.5-1.4-1.2-1.4-.6 0-.9-.3-.6-.6.7-.7 5 1.4 6 2.9.3.6 5.8 1.4 12.2 1.9 10.9.9 12 .8 17.1-1.3 5.1-2.1 5.5-2.1 7.9-.6 4.5 3 16.2 1.9 44-3.9 9.4-1.9 21.8-5.2 27.6-7.1 25.6-8.6 51.7-22.9 76-41.3 40.2-30.6 75-79.4 90.8-127.3 2.7-8.1 5.2-15.1 5.6-15.4.4-.4 2.3.9 4.3 2.9l3.6 3.6-2.6 9.4c-6.6 23.4-7.4 40.4-2.5 50.8 1.4 3 3.6 6.6 4.9 7.9 2.2 2.3 2.3 2.3 3 .5.4-1 .8-4.9.8-8.5.1-8.6 2.2-20.5 6.6-37 5.9-22.1 10.3-41.5 13.2-57.9 2.7-14.9 2.8-16.8 2.8-49 0-27.2-.4-35.6-1.8-44.5-8.2-51.1-27-94-59.7-136.5-11.6-15.1-38.2-41-54.5-53-7.7-5.7-14.2-10.5-14.3-10.6-.2-.1.6-1.6 1.8-3.2 1.2-1.6 3.6-6.2 5.3-10.3 1.8-4.1 3.9-7.5 4.8-7.7.9-.2 3.5 2.3 6.4 6 2.7 3.5 16.9 21.4 31.5 39.8 14.7 18.4 37.4 47.7 50.5 65 13.1 17.3 28.6 37.3 34.5 44.5 34 41.5 98.3 124.6 100.6 130.2.7 1.7 1.9 6.4 2.5 10.3 1.2 7.1 1.2 7.3-1.2 9.1-4.1 3.2-13.6 7.9-15.8 7.9-1.1 0-4.1 1-6.5 2.2-4.3 2.1-4.5 2.1-7.2.4-4.7-3.2-7.9-3.6-11.2-1.6-1.6 1-3.3 2.3-3.6 2.9-.4.6-3.5 1.1-7 1.1s-7.8.5-9.6 1.1l-3.2 1.2.7 11.1c1 15.8 1.8 17.5 8.2 19.6 4.9 1.6 8.5 3.7 15.4 9.2 2.4 1.8 3.1 1.9 6.3.8 2.1-.7 5.1-2.9 7.2-5.6 4.1-5 6.6-5.5 8.2-1.9 1.3 2.9 5.4 4.2 9.1 2.9 4.1-1.5 5.2-6.5 4.1-18.1-.5-5.3-.6-10.1-.3-10.6s4.2-3.7 8.6-7.2l8-6.4 6.6 6.1c7.6 7.1 15.4 11 26.5 13.3 7.8 1.6 8.1 1.5 18.5-.9 5.8-1.4 12.9-2.8 15.8-3.2l5.2-.6 3.4 7.4c1.9 4.1 5.3 9.4 7.6 11.9l4.3 4.4 2.9-3.3c3.3-3.7 3.5-6.2 1.4-14.1-1.6-6-1.3-7.1 1.5-7.1 2.4 0 2.8.7 8.5 17 16.1 45.7 37.5 81 65.8 108.7 15.3 14.9 25.1 22.9 39.7 32.5 11.5 7.6 38.5 21.3 49.5 25.2 7.5 2.7 20.5 5.9 21.1 5.3.2-.2-6-2.7-13.8-5.6-19.3-7-40.2-17.5-56.3-28.2-7.4-4.9-13.7-9.4-14.1-10-.9-1.5-1.1-1.6 12.8 7.8 19.1 12.9 51.7 27.8 75.8 34.7 5.2 1.5 9.9 3.2 10.4 3.6.5.5-.8.5-2.8-.1-4.9-1.4-5.9-.4-1.5 1.5 1.9.9 3 1.5 2.4 1.6-1.7.1 1.9 2 3.8 2 1 0 2.5-.6 3.2-1.4.8-.7 3.3-1.6 5.7-2 2.3-.4 4.6-1.2 5-1.9.6-.9.8-.9.8 0 0 1 2.8 1.3 10.3 1.4 6.4.1 8.9.4 6.7.8-2.8.5-1.8.8 5 1.4 11.9 1 16.2.9 15.5-.3-.4-.6 1.9-1 6.3-1 3.8 0 9.1-.3 11.8-.6 3.6-.4 4.5-.3 3.4.5s.1 1.1 4.9 1.1c13.9 0 42.7-5.8 61.6-12.4 11.2-3.9 36.3-15.2 42.6-19.1 2.2-1.5 4.3-2.4 4.5-2.2 1.3 1.3-25.9 15-44.6 22.5-9.3 3.8-5.1 3.9 5.6.2 15.3-5.4 45.4-21.8 60.6-33.2 10.5-7.9 40.2-37.4 50-49.8 8-10.1 19.4-26.9 24.5-36 14.3-25.8 27.7-74.6 29.9-109 .6-8.1.4-9.7-1-10.9-2.1-1.7-2.2-5.3-.1-4.5 1.2.5 1.5-.3 1.5-3.5 0-3-.4-4.1-1.5-4.1-2 0-1.9-3.5.1-6.9 1.3-2.2 1.4-3.6.6-7.2l-1-4.4-.1 4c-.3 6.9-1.8 1.8-3.6-12-1.7-13.8-3.5-21.8-4.2-19.8-.3.7-.8 1.3-1.2 1.3-1.1 0-3.6-11.9-2.7-12.7.3-.3.6.1.6 1s1.4 3 3 4.7c1.7 1.7 3 4 3 5 0 1.1.4 2 .9 2 1.2 0 .6-4.5-2.1-16.1-1.9-8.8-4.7-14.6-4.8-10.4-.1 3.1-1.6-.1-2.4-5-.5-3.5-.4-3.7.6-1.5.9 2 1.2 2.2 1.5.8 1.5-6.2-20-53.4-33.3-72.9-8.7-12.7-35.5-40.8-52.3-54.9-9.4-7.8-10.8-9.7-9.1-11.4 1.6-1.6 14.3 7.8 27.5 20.4 6.6 6.4 15.1 14.4 18.9 17.9 6.9 6.3 6.9 6.3 12.1 5.9 4.9-.4 11.5-3.7 11.5-5.8 0-.5-2-2.3-4.4-3.9-2.4-1.7-11.3-9.5-19.8-17.2-53.4-49.4-90.5-68.6-154.3-80-11.6-2.1-15.9-2.4-40-2.3-29 .1-33.8.6-60 6.3-28.3 6.2-61.5 19-83.6 32.2-6.4 3.8-12.3 6.9-13.2 6.9-1 0-3.6-3.2-6.4-7.6-5.7-9.1-28.8-43.8-36.3-54.6-6.2-9-6-10.2 2.3-11.3 6.9-.9 9.7-2.8 9.7-6.4 0-5.5-2.8-7.4-11.7-8-4.4-.3-8.7-1.2-9.6-1.9-2.1-1.8-2.6-6-3.6-29.8-1.1-25.8-1.8-27.3-14.7-32-6.9-2.5-11.4-5.7-10.1-7.1.4-.4 3.4-.9 6.6-1.1 5.4-.4 5.9-.2 6.4 1.8.6 2.2.9 2.3 7.3 1.6 7.8-.8 8.4-1.1 8.4-3.6 0-2.2-1.8-3-7.8-3.2-3.8-.1-4.1-.2-1.2-.5 12.2-1.1 14-1.5 14-2.8 0-.8-.9-1.7-2-2-1.1-.3-2-1.1-2-1.7 0-.7 4.7-.9 14.9-.6 19.1.6 25.2-.2 30.6-4.1 2.3-1.6 6.6-4.1 9.6-5.4 12.5-5.5 20-22.1 16.9-37.1-2.1-10-8.6-15.3-18-14.4-5.5.6-5.5.6-3.9-2.4.9-1.6.7-2.4-1-4.2-1.2-1.3-2.1-3.6-2.1-5.3 0-2.4-.9-3.8-3.7-6.1l-3.7-3 4.7-2.8c5.5-3.4 6.9-6.5 4.1-9.6-1.8-2-2.5-2-19.9-1.4-9.9.4-23.4 1.1-30 1.6-6.6.5-22.8 1-36 1-13.2.1-37.4.5-53.7.9-29.4.8-29.8.9-35.2 3.5-5.9 2.9-11.6 8.5-11.6 11.5 0 4.1 9 8.6 19.3 9.6l6.7.7v8.3c0 7.9.1 8.4 3.6 12.9 2 2.6 4.1 4.5 4.7 4.3.7-.2 1.6-1.8 2.2-3.5.5-1.8 1.7-3.4 2.6-3.7 1.8-.6 2.9-3.4 2.9-7.9v-3l3.6 4.3c4.3 5 9.9 8.7 16.7 11.1l4.8 1.7-3.5 2.1c-6.3 3.7-9.7 15.2-6.5 21.5 1.8 3.4 8.1 9.8 10.8 10.8l2.5 1-3 2c-5 3.3-11.4 4.7-19 4.2-7.7-.6-11.4.6-11.4 3.6 0 1-.9 2.1-2 2.4-2.6.7-2.8 6.5-.2 7.4.9.3 2.5 1.5 3.4 2.7 1.5 1.8 2.6 2.1 8.4 1.8 4.9-.1 7-.7 7.9-1.9.8-1.1 3.5-1.9 8.1-2.4 8.1-.9 22.4-1.1 22.4-.4 0 .3-.6 2.1-1.4 3.9-1.6 3.8-4.1 4.6-13.7 4.6-5.7 0-5.9.1-6.1 2.7-.2 4.3.2 6.7 1.3 7.8.5.5 4.9 1.3 9.6 1.6 8.5.5 8.6.6 12.4 4.7 3.4 3.5 3.9 4.8 3.9 8.7 0 3.9.3 4.7 2.5 5.5 2.8 1.1 3 1.8 1.4 5.4-.7 1.4-.9 4-.5 6.1.9 4.4 3.8 6.1 7.9 4.6 2.3-.9 2.7-1.6 2.7-4.9 0-2.6-.7-4.5-2-5.7-2.8-2.5-2.5-4.1 1-5.4 2.9-1 3-1.2 3-7.1 0-4.5.4-6.2 1.5-6.6.9-.4 1.5-1.9 1.5-3.5 0-2.2.5-2.9 2-2.9 2.9 0 5.7 3.6 7.1 9.3 1.2 5.1.6 28.4-.9 37.2l-.7 4-6.5.8c-8.2.9-324.6 1.4-325.5.5-1.3-1.2.3-5.3 3.6-9.4 1.8-2.1 5.4-8.5 8.1-14.2 4.6-9.6 4.8-10.4 3.3-12.5-.8-1.2-1.5-3.2-1.5-4.5 0-1.2-.7-2.5-1.6-2.9-1.7-.6-9.2 3.1-11.1 5.6-2.9 3.7-1-1.8 5.3-15.2 6.1-13.2 9.4-18.8 9.4-16 0 1.6 6.8 5.6 8.5 4.9 2.1-.8 6.7-8.6 6.1-10.2-.3-.8-2.1-2.4-4.1-3.5-2.1-1.3-3.5-2.9-3.5-4.1 0-1.1-.8-2.2-2-2.5-1.1-.3-2-.9-2-1.3 0-.8 34.7-74.1 35.5-74.8.7-.8 18.5 11.2 20 13.4.8 1.2 4 3.2 7.2 4.4 6.6 2.5 6.9 2.6 30.3 17.5 9.6 6.1 25.2 15.8 34.5 21.5 24.9 15.2 32.9 20.7 44 30.7 10.7 9.6 14 11.9 15 10.3 1.5-2.4-10-21.3-17.4-28.4-4.3-4.2-6.2-4.2-4.3 0 1.5 3.1.9 2.8-6.8-3.6-8.6-7.1-20-14.8-38.5-26-26.2-16-51.5-33.2-49.6-33.8 1.3-.4 13.8 5.6 25.1 12.2 12.5 7.3 45.4 24 50.5 25.6 5 1.5 18.7 8.9 28.3 15.1 6.9 4.5 16.6 8.9 19.7 8.9 2.4 0 3.8-4 3.2-9.2-.9-7.2-6.2-16.3-14.3-24.5-7.1-7.1-7.2-7.2-6.7-11.7.5-3.8 0-5.8-2.7-11.4-4.8-9.7-17.7-22.3-28.8-28-4.6-2.3-9-4.2-9.7-4.2-3.2 0-6.9 4.7-7.4 9.3l-.6 4.7-8.5-5.2C586.2 12.4 556.8 0 550.9 0c-1.7 0-1.9.3-1 1.4zm1.1 13.8c5.2 1.1 13.2 3.4 17.7 5 8 2.7 38.4 15.8 46.8 20 5 2.6 12.1 8.2 14.2 11.5 1.8 2.8 3.4 11.1 2.2 11.8-1.9 1.2-55.1-24.3-72.9-35-5.8-3.5-13.8-8.2-17.7-10.4-11.4-6.6-9.6-7.1 9.7-2.9zm-59.9 6.5c-3.4 6.6-5.4 8.4-3 2.8 1.1-2.7 2.5-5.5 3.1-6.2 2-2.4 2-.5-.1 3.4zm102.2-1.6c8.3 4.2 17.9 10 17.4 10.6-.3.2-6-2.8-12.8-6.7-13-7.4-14.9-9-4.6-3.9zm-89.4-.2c2 1.1 4.2 2.6 4.9 3.3.8 1.1-3.3 10.1-18.5 40.2l-19.7 38.8-4.5-.6c-5.4-.7-6.2-1.4-3.8-3 .9-.7 1.7-2.3 1.7-3.5 0-1.2.7-2.4 1.5-2.7 1-.4 1.5-2 1.5-4.5 0-3.2.4-3.9 1.9-3.9 2.3 0 3.5-3.1 2.7-6.4-.4-1.8 0-2.6 1.9-3.4 2.7-1.3 3.2-3.1 1.3-5-1-1-.8-1.4.9-1.8 2.3-.6 6.3-6.4 6.3-9 0-.8-.9-1.4-2-1.4-2.1 0-2.7-1.5-1-2.5.5-.3 4.8-8.3 9.5-17.8 7.3-14.6 9.7-18.6 11.3-18.7.1 0 2 .9 4.1 1.9zm351.6 1.2c.5.5-.4.9-2.2.9-2 0-3.7.7-4.6 2-.8 1.1-3.1 2.2-5.8 2.6-2.4.4-6 1.5-8.1 2.5-2.1 1.1-7.6 2.2-13.6 2.8-9.4.9-14.2 2.2-14.2 3.9 0 .5-1.7.8-3.7.9-2.1 0-6 .5-8.8 1.1-7.6 1.5-53.3 2.5-57.4 1.3-1.9-.6-3.7-.7-4-.2-.9 1.2-6.8 4.1-8.6 4.1-.8 0-1.5.4-1.5 1 0 .5 1.4 1 3.1 1 1.7 0 2.8.4 2.4 1-.3.5-2 1-3.6 1-2.4 0-4.1-1.2-8-5.4-5.6-6.1-12.4-10.8-20.5-14.1-6.2-2.5-5.4-3.6 1.5-2.2 2.5.5 7.3 1 10.7 1.2 3.3.1 7.3.5 8.8.9 2.2.5 2.7.4 2.4-1.1-.3-1.6.4-1.8 7.7-1.3 4.4.3 10.3.4 13 .3 43.7-1.6 50.1-1.6 54.9.5 2.8 1.3 5.3 3.3 6.4 5.1.9 1.7 2.1 3.1 2.5 3.1 1.4 0 1.9-2.8.7-5-.9-1.6-.8-2.5.2-3.7.7-.9 1.2-2.4 1-3.4-.3-1.7 0-1.7 3.3.4 2 1.2 5.1 3.4 7 4.9 3.8 3.3 4.5 3.3 9.1 1.2 3.8-1.8 4.4-3.4 1.4-3.4-1.1 0-2-.5-2-1 0-.6 2.3-1 5.1-1s6.5-.7 8.2-1.4c5.4-2.5 14.7-2.7 17.2-.5zM507.2 40.7c-24.9 49.8-32.5 64.4-33 63.9-.3-.4 8.6-18.9 19.8-41.4 11.1-22.4 20.5-40.1 20.7-39.5.3.7-3.1 8.4-7.5 17zm41.3-15.4c2.7 1.3 4.5 2.6 3.9 3-1 .6-11.4-3.7-11.4-4.8 0-1 2.6-.4 7.5 1.8zm273.5 2c0 .4-.9.3-2-.3s-2-1.5-2-2c0-.6.9-.5 2 .2s2 1.6 2 2.1zM636 32c0 .5-.4 1-.9 1-1.6 0-2.3 3.8-1.1 6.2.7 1.6.1 1.2-2-1.2-1.6-1.9-3-3.7-3-4.1 0-.4 1.2-1.2 2.8-1.7 3.6-1.4 4.2-1.4 4.2-.2zm-151.4 2.6c-.4.9-.9 1.5-1.1 1.2-.3-.3-.3-1.3.1-2.2.4-.9.9-1.5 1.1-1.2.3.3.3 1.3-.1 2.2zm372.8 1.3c1 1.1 1.5 2.5 1.1 3-1 1.6-4.2 1.3-4.9-.5-1.7-4.4.7-6 3.8-2.5zm-9.4.4c0 .7.9 2.9 2 5 2.1 3.8 2.5 7.3 1.2 9.4-.8 1.3-13.9 3.6-15.4 2.7-.4-.3-.8-2.8-.8-5.6 0-3.4-.6-5.8-1.7-7-.9-1-1.4-2-1.2-2.2.4-.4 12.6-3.3 14.7-3.5.6 0 1.2.5 1.2 1.2zm-21.3 6.2c1.3.9 2.3 2.4 2.1 3.3-.3 1.4-2 1.8-9.3 2.3-5 .3-10.2.9-11.6 1.3-2 .6-2.8.3-3.3-1-1-2.5 1.9-4.9 7.9-6.8 5.7-1.8 10.6-1.4 14.2.9zM793 43c0 .5-.2 1-.4 1-.3 0-.8-.5-1.1-1-.3-.6-.1-1 .4-1 .6 0 1.1.4 1.1 1zm-237.9 3.9c1.3 1.1 2.1 2.2 1.8 2.6-.4.3-2-.5-3.5-1.9-3.4-2.9-1.8-3.5 1.7-.7zM766 46c0 .5-.5 1-1.1 1-.5 0-.7-.5-.4-1 .3-.6.8-1 1.1-1 .2 0 .4.4.4 1zm21.4 1.1c-.3.5-1 .7-1.5.3-.5-.3-.7-1-.3-1.5.3-.5 1-.7 1.5-.3.5.3.7 1 .3 1.5zm73.4 1.3c.2 1-.1 2.3-.6 2.8-1.2 1.2-3.6-2.7-2.7-4.3 1-1.5 2.9-.5 3.3 1.5zm-61.8 0c.6.8 1 2.5.8 3.8-.2 1.9-1 2.4-4.2 2.6-3.7.3-9.6-1.3-9.6-2.7 0-1 8.1-5 10.1-5 .9-.1 2.2.6 2.9 1.3zm-193 7.1c8 3.7 17 7.8 20 9.2 9.3 4.3 3.7 3.7-6.6-.7-13.1-5.6-29.1-13.7-30-15.1-.9-1.5-2-1.9 16.6 6.6zm-128-6.1c0 .3-.4.8-1 1.1-.5.3-1 .1-1-.4 0-.6.5-1.1 1-1.1.6 0 1 .2 1 .4zm253.3.3c-.7.2-2.1.2-3 0-1-.3-.4-.5 1.2-.5 1.7 0 2.4.2 1.8.5zm50.7.3c0 1.6-4.7 3-9.8 2.9l-4.7-.2 4.5-.6c2.5-.4 5.4-1.2 6.5-1.9 2.5-1.4 3.5-1.5 3.5-.2zm47 5.8c0 3.4-8.4 6.2-18.3 6.2h-6.8l.3-2.8.3-2.7 10-.6c5.5-.3 11-.6 12.3-.7 1.2-.1 2.2.2 2.2.6zm46 1.2c.4.8 1.4 3 2.4 4.9 1.6 3.3 1.3 6.1-.4 3.1-1.8-3.1-3.6-4.8-5.6-5.4-1.7-.5-2.8.8-7.5 8.8-5.4 9.5-7.8 12.3-3.9 4.7 2.5-4.9 4.1-9.1 3.6-9.1-.7 0-10.3 17.1-13.7 24.3-2.5 5.5-3 7.6-2.5 10.7.3 2.1.2 4.1-.3 4.4-1.3.9-2.1-1.9-2.1-7.4 0-5.6 2.2-16.4 2.8-13.8.2 1 .8 1.8 1.3 1.8 1.7 0 6.7-12 7.4-17.7.2-1.6 2.1-4.4 4.9-7.1 4.1-3.9 5-4.3 8.8-4 2.4.2 4.4.9 4.8 1.8zm-87.4 1.5c2.6 1.4 6.5 2.8 8.6 3.1 5.4.9 6.5 2.7 3.2 5.3-1.5 1.2-3.4 2.1-4.3 2.1-2.3 0-4.9-2.1-5.3-4.3-.6-3.3-2.3-2.3-2.6 1.5-.3 3.4 0 4 3.3 5.9l3.6 2.2-3.8 2.1c-4.2 2.4-5.2 5.1-3.3 9.6.8 1.9.9 3.4.2 4.6-.6 1.1-.6 2.7 0 4.6.7 2 .7 3.7-.2 5.7-2 4.9.7 7.7 9.4 9.6 5.1 1.1.9 2.5-7.7 2.5-7.4 0-7.8-.1-8.7-2.5-.8-2.2-1.5-2.5-6-2.5-5.7 0-9 1.3-9 3.6 0 .8-1.2 1.9-2.6 2.4-3.4 1.3-21.4 1.3-21.4 0 0-1.4 11.1-6.8 17.6-8.5 11-2.8 15.8-7.6 16.9-16.8 1-7.8-.9-12.3-7-16.4-2.7-1.9-6.2-3.7-7.7-4-4.1-.8-3.4-2 2-3.2 2.6-.7 7.9-3 11.7-5.1 3.9-2.2 7.3-3.9 7.7-4 .4 0 2.8 1.1 5.4 2.5zM649.7 62c4.4 2.2 6.1 3.5 5.7 4.5-.8 2.1-1.8 1.9-5.3-1.1-1.7-1.4-4.3-2.9-5.8-3.3-2.8-.7-4.4-3.1-2.1-3.1.7 0 4.1 1.4 7.5 3zm-11.2 2.8c-.8.9-2.5-2-1.8-3.1.3-.5 1-.2 1.5.7.6 1 .7 2 .3 2.4zm211 4.7c-1.9 3.2-3.5 5.2-3.5 4.4 0-2 6.3-12.6 6.7-11.3.2.6-1.2 3.7-3.2 6.9zm-268.9-5c1 .8 1.4 1.5.8 1.5-.5 0-1.9-.7-3-1.5-1-.8-1.4-1.5-.8-1.5.5 0 1.9.7 3 1.5zm292.9.5c-.3.5-1.1 1-1.6 1-.6 0-.7-.5-.4-1 .3-.6 1.1-1 1.6-1 .6 0 .7.4.4 1zm-49.7 3.6c3.7.7 2.1 2.7-3.8 4.7-7.5 2.5-14.9 2.7-16.4.4-3.3-5.1 7.2-7.8 20.2-5.1zm-160.3 2.5c1.4 2.2-.3 1.8-2.6-.7-2.3-2.5-2.3-2.6-.2-1.5 1.2.6 2.5 1.6 2.8 2.2zm97.5.9c-.8.5-3.5 1-6 1-4 0-5.1.5-8.4 3.9-2 2.1-4.3 5.8-5.1 8.2-.7 2.4-1.4 3.5-1.4 2.4-.2-4.1 2-9 5.6-12.7 3.6-3.6 4-3.8 10.3-3.8 4.5 0 6.1.3 5 1zm105.8 4.5c-1.2 2.5-2.3 4.3-2.4 4.2-.2-.1 0-2 .3-4.3.4-2.9 1-4 2.4-4.1 1.7-.2 1.7.1-.3 4.2zM766 75c0 .5-.2 1-.4 1-.3 0-.8-.5-1.1-1-.3-.6-.1-1 .4-1 .6 0 1.1.4 1.1 1zm85.1 1.7c-.8 1.5-1 1.5-1.1.2 0-1.7 1-3.2 1.8-2.5.2.3-.1 1.3-.7 2.3zm-86.4 1.2c3.8 2.4 4.9 6.4 3.2 12.1-1.7 5.7-5 8-11.1 8-6 0-8.3-1.1-10.3-5-2.6-5-2-9.7 1.9-13.6 2.9-2.9 4.1-3.4 8.3-3.4 3 0 6 .7 8 1.9zm35.3-.2c0 .5-1.3 2.3-2.9 4.2-2.1 2.6-3.2 3.2-4.9 2.7-3.5-1.1-2.6-3.5 2.1-5.6 4.6-2.1 5.7-2.4 5.7-1.3zm21.4 3.6c1.6 1.2 1.6 1.4.2 2.7-1.9 1.5-15.1 2.6-19.2 1.6-2.5-.7-2.6-.8-1.1-2.3 2.9-2.9 17-4.3 20.1-2zm-211 1.3c2.3.9 2 2.3-.4 1.7-1.1-.3-2-.9-2-1.4 0-1.1.3-1.1 2.4-.3zm260.1 8c-3.6 6.2-4.4 4.8-.8-1.5 1.5-2.8 3-4.6 3.1-4.1.2.6-.8 3.1-2.3 5.6zm-210-.6c.3.5.2 1-.4 1-.5 0-1.3-.5-1.6-1-.3-.6-.2-1 .4-1 .5 0 1.3.4 1.6 1zm134.2 1.1c.9.9 2.6.9 6.5.2 6.7-1.3 16.8-.5 17.5 1.4.9 2.3-2.7 5.2-7.4 5.9-5.1.8-7.4-.6-5.3-3.1 2.1-2.6.2-3-2.4-.6-2.3 2.2-2.6 2.2-4.8.7-1.2-.9-3.5-1.6-5-1.6-3.1 0-4.7-1.8-2.7-3.1 1.8-1.1 2.3-1.1 3.6.2zm3.6 8.4c1.3.8 5.3 1.9 9.1 2.4 8 1.1 8.9 1.7 5.2 3.1-5.9 2.2-13.9.7-15.1-2.9-.9-3-2.3-2.6-2.7.6-.4 3.5-3.8 4.6-3.8 1.2 0-2.3 2.6-5.9 4.2-5.9.5 0 1.9.7 3.1 1.5zm-157.6 4.8c1.3 1.1 2.1 2.2 1.9 2.5-.7.6-9.6-6-9.6-7.1 0-1.1 4.4 1.5 7.7 4.6zM469 108.1c0 .6-.4.7-1 .4-.5-.3-1-1.1-1-1.6 0-.6.5-.7 1-.4.6.3 1 1.1 1 1.6zm355.5-1.1c.8 1.3-1.5 1.3-3.5 0-1.2-.8-1.1-1 .7-1 1.2 0 2.5.4 2.8 1zm-175.9 3.8c-.4.3-1.4-.2-2.4-1.2-1.6-1.8-1.6-1.8.6-.6 1.3.6 2.1 1.4 1.8 1.8zm123.4 1.6c0 1.1-1.9 1.5-2.5.6-.3-.5.1-1 .9-1 .9 0 1.6.2 1.6.4zm-317 3.3c1.4.9 2.6 1.7 2.8 1.9.8.6-14.2 29.2-16.7 31.9-3.8 3.9-6.8 10-8.7 17.7-1.8 7-5 14.4-18.8 43.6-10.4 22.1-11.5 24.1-14.7 25.7-1.9 1.1-5.4 8-8.1 16.2-.6 1.7-2.2 3.6-3.5 4.2-1.3.6-2.6 1.8-2.9 2.6-.8 2.1-2.5 1.9-1.7-.3.9-2.6 44.1-94.5 56.4-120.2 6-12.4 10.9-23.1 10.9-23.7 0-1.8 2.1-1.6 5 .4zm10-.7c0 .5-.4 1-1 1-.5 0-1-.5-1-1 0-.6.5-1 1-1 .6 0 1 .4 1 1zm-20.5 1c-.3.5-1.1 1-1.6 1-.6 0-.7-.5-.4-1 .3-.6 1.1-1 1.6-1 .6 0 .7.4.4 1zm296.8 2.7c-.7.2-2.1.2-3 0-1-.3-.4-.5 1.2-.5 1.7 0 2.4.2 1.8.5zM463 123c0 .5-.4 1-1 1-.5 0-1-.5-1-1 0-.6.5-1 1-1 .6 0 1 .4 1 1zm-23.7 2c-.5 1.9-2.3 3.9-2.3 2.5 0-.9 2-4.5 2.4-4.5.2 0 .2.9-.1 2zm334.5 12c.3 4.8.1 7-.7 7-1.7 0-2.8-3.7-3.6-11.5l-.7-7 2.3 2.2c1.9 1.9 2.4 3.6 2.7 9.3zm-15.3-2c-4.5 1.1-11.5 1.1-11.5 0 0-.6 3-1 7.3-.9 5.4.1 6.5.3 4.2.9zm42.5 10c0 1.3-.1 1.3-1 0-.5-.8-1-2.2-1-3 0-1.3.1-1.3 1 0 .5.8 1 2.2 1 3zm-351 3.4c0 .3-.4.8-1 1.1-.5.3-1 .1-1-.4 0-.6.5-1.1 1-1.1.6 0 1 .2 1 .4zm325.6 7.1c-.4 1.4-1.1 2.3-1.6 2-1.2-.7-1.3-6.8-.3-7.9 1.2-1.2 2.6 3.1 1.9 5.9zm27.3 9.2c-.1 8.6-.4 12.7-.9 10.8-1.4-5.3-.9-24.5.6-24.5.2 0 .3 6.2.3 13.7zm-330.5-4.9c.2.4 0 1.4-.5 2.2-.8 1.3-1 1.3-1.9 0-.5-.8-1-1.8-1-2.3 0-1 2.8-.9 3.4.1zM465 171c-.7 1.7-1.5 2.8-1.8 2.6-.2-.3.1-1.9.8-3.6.7-1.7 1.5-2.8 1.8-2.6.2.3-.1 1.9-.8 3.6zm311.6 2.7c-.6 1.4-.9 1.5-1.6.4-1.1-1.9-.1-4.6 1.3-3.2.5.5.7 1.8.3 2.8zm-319.5 5.2c1.3 1.1 2 2.3 1.6 2.7-.4.5-1.2.3-1.6-.4-.6-1-1.2-.7-2.3 1-1.9 3-5.5 12.2-6.9 17.7-.7 3-1.3 4-1.9 3.1-.6-1-1.1-.8-1.9.9-1 1.7-.9 2.1.4 2.1.8 0 1.5.3 1.5.6 0 1.6-2.4 4.6-4.1 5.2-1.3.5-4.1 5.6-8.4 15.1-7.6 17-8.9 19.1-11.5 19.1-1.1 0-2-.2-2-.4 0-1.6 4.2-11.2 15.6-35.4 7.4-15.5 13.6-29.3 14-30.7.8-3.1 4.1-3.3 7.5-.6zm-24.6 3.6c-.8 2.1-1.8 3.6-2.1 3.3-.3-.3.2-2.3 1.1-4.3.8-2.1 1.8-3.6 2.1-3.3.3.3-.2 2.3-1.1 4.3zm-15.2 31.8c-6.1 12.4-11.6 22.8-12.3 23.2-.7.5-1.1.4-.8-.1.2-.5 5.5-11.2 11.7-23.7 6.3-12.5 11.6-22.5 11.9-22.3.2.3-4.5 10.6-10.5 22.9zm384-14.9c-.1 1.6-.4 3-.6 3.3-.3.2-2.4-.6-4.8-1.9-4-2.1-4.2-2.3-1.9-2.6 1.4-.2 2.9-.8 3.5-1.3 1.9-1.8 4-.4 3.8 2.5zm-199.8-.5c1 .4-9.7 1.1-24 1.4-31.5.8-112.1.9-111.3.1 1.6-1.6 131.3-3 135.3-1.5zm51.9 1.2c.6.5-5.2.9-15 .9-16.9 0-31.4-.9-31.4-1.9 0-1 45.4 0 46.4 1zm126.1-1.1c-7.5 1.2-33.3 1.2-31.5 0 .8-.5 9.2-.9 19-.9 12.3.1 16 .4 12.5.9zm52.1 1.5c-.3.9-1.1 1.3-1.6 1-.8-.5-.7-1.1.1-2.1 1.4-1.8 2.4-1.1 1.5 1.1zm-119.9-.9c-.3.3-1.2.4-1.9.1-.8-.3-.5-.6.6-.6 1.1-.1 1.7.2 1.3.5zm11.6.1c-.7.2-1.9.2-2.5 0-.7-.3-.2-.5 1.2-.5s1.9.2 1.3.5zm15.4-.1c-.3.3-1.2.4-1.9.1-.8-.3-.5-.6.6-.6 1.1-.1 1.7.2 1.3.5zm-278.8 7.6c-.7 1.3-1.4 1.8-1.6 1.1-.3-.7.1-2.2.8-3.5.7-1.3 1.4-1.8 1.6-1.1.3.7-.1 2.2-.8 3.5zm-60.8 2.5c-1.2 2-1.4 1.4-.5-1.2.4-.9.9-1.4 1.1-1.1.3.2 0 1.3-.6 2.3zm396.4 3.5c.3 2.4 1 12 1.5 21.5.6 10.9 1.4 18.4 2.4 20.7 1.8 4.3 5.4 5.6 9.1 3.2 2.3-1.5 2.5-2.2 2.5-9.9 0-4.5.3-10.5.6-13.4l.7-5.1 8.5 14.1c4.6 7.8 9.8 16.1 11.4 18.5 1.6 2.3 6.4 9.8 10.7 16.6l7.8 12.5-19.1 19.3c-21.2 21.3-35.6 37.6-42.1 47.7-4.7 7.4-15.8 28.1-22.2 41.7-7.9 16.5-15.4 37.6-20.7 58.3-4.6 18-5.6 20.8-7.7 21.8-1.5.8-7.1 1.3-15.4 1.3-15.1 0-23.9 1.2-30.1 4.2-7.2 3.3-19.3 14.5-24.9 22.9l-5 7.6-16-19.9c-8.8-11-22-27.3-29.3-36.1-11.4-13.9-43.7-55.1-50.5-64.6-4.5-6.2-21.5-28-32.8-42.1-12.7-15.9-84.8-111.2-87.9-116.3-2.5-4.1-2.5-8.3 0-15 3.1-8.4 4-8.8 18.2-9.8 25.2-1.6 146.4-3.3 255.5-3.7l74.2-.2.6 4.2zm18 8.8c.3.5.1 1-.4 1-.6 0-1.1-.5-1.1-1 0-.6.2-1 .4-1 .3 0 .8.4 1.1 1zm-420.1 1.5c-.4.8-1 1.5-1.5 1.5-.4 0-.6-.7-.3-1.5.4-.8 1-1.5 1.5-1.5.4 0 .6.7.3 1.5zM802.8 245l-.1 7.5-.7-5.5c-.5-3-.8-8.9-.8-13l.1-7.5.7 5.5c.5 3 .8 8.9.8 13zm17.3-12.5c.8 1.6.6 1.5-1-.4-1.2-1.3-2.1-2.8-2.1-3.5 0-1.2 1.4.5 3.1 3.9zm-359.6 32.2c8.8 11.5 25.3 33.1 36.6 47.9 20.8 27.1 33.7 45.1 26.5 36.9-6.5-7.5-46-58.8-62.6-81.3-3.6-4.9-8.3-11.1-10.6-13.8-6.2-7.5-9-11.7-7.3-11.2.8.2 8.6 9.9 17.4 21.5zm543-18.7c-2.7.5-6.6.8-8.5.8h-3.5l3-.8c1.7-.4 5.5-.8 8.5-.7h5.5l-5 .7zm23.9-.1c.4.5 0 1.1-.6 1.4-1.8.5-4.8-.3-4.8-1.4 0-1.2 4.7-1.2 5.4 0zm20.7.1c1 .6 1.9 1.5 1.9 2 0 1.6-3.4 1.2-8.1-1l-4.4-2h4.3c2.4 0 5.2.5 6.3 1zm-609.6 2c-.3.5-1.1 1-1.6 1-.6 0-.7-.5-.4-1 .3-.6 1.1-1 1.6-1 .6 0 .7.4.4 1zm-38.5.4c0 .3-.4.8-1 1.1-.5.3-1 .1-1-.4 0-.6.5-1.1 1-1.1.6 0 1 .2 1 .4zm683.4 4.1c10 2.4 23.6 6.3 30.2 8.6 18.1 6.2 35.8 14.9 30.4 14.9-.5 0-1-.5-1-1.1 0-.5-.5-.7-1.1-.3-.6.3-1.4.2-1.8-.3-.3-.5-4.3-2.1-8.8-3.6-4.5-1.4-12.7-4.7-18.1-7.2-5.5-2.5-10.5-4.5-11.3-4.5-2.9 0-34.2-8-35.4-9-.8-.7-2.3-.9-3.5-.5-1.1.4-2 .2-2-.4 0-1.8 3.2-1.3 22.4 3.4zm-29.4 0c30.2 4.2 64.5 15 88 27.6 8.4 4.5 11 6.6 11 8.6 0 2.2-2.6 1.5-11.8-3.1-11.5-5.8-28.1-12.8-37.8-16.1-36.7-12.3-85.4-16.5-121-10.5-38.7 6.6-67.5 17-93.3 33.6-7.9 5.2-10.7 6.5-11.9 5.7-.9-.5-1.7-1.4-1.9-2-.5-1.5 20-14.4 32.2-20.3 9-4.3 52.2-20 55.2-20 .6 0 2.4-.5 4-1.2 10-4.3 63-5.7 87.3-2.3zm-109.5 3.9c-5.5 2.5-11.5 4.2-10.2 3 1.4-1.4 11.1-5.2 13.2-5.3 1.1 0-.2 1-3 2.3zM393 260.9c0 1-3 2.4-3.7 1.7-.3-.3-.2-.9.2-1.5.8-1.3 3.5-1.5 3.5-.2zm615.9-.5c-.2.2-6 .6-12.9.8-6.9.3-10.2.2-7.5-.2 5.3-.7 21.1-1.2 20.4-.6zm-81.4 2.1c-1.6.8-3.7 1.9-4.5 2.4-2.7 1.6-11 5.1-12.1 5.1-.6 0-2.5 1.1-4.2 2.4-4.1 3.1-20.8 11.8-21.4 11.2-1-1 .9-2.5 7.5-6.2 9.9-5.6 33.4-16.3 35.7-16.3 1.5 0 1.3.3-1 1.4zm135.8.5c2 .8 1.9.9-.8.9-1.6-.1-6.1-.7-10-1.5l-7-1.4 7.8.6c4.3.3 8.8.9 10 1.4zm-691.2-.1c-1.2.8-1.2 1.2-.2 2.5 1.1 1.3 1.1 1.6-.3 1.6-1 0-1.6-.9-1.6-2.5 0-1.7.5-2.5 1.8-2.5 1.4 0 1.4.2.3.9zm655.4.1c-.7 1.2-8.9 1.2-12.5 0-1.7-.6-.1-.8 5.3-.9 5-.1 7.6.3 7.2.9zm-677.9 2.5c9 3 18.4 7.6 16.7 8.2-.7.3-4.1-.6-7.5-2-3.5-1.3-9.1-3.4-12.6-4.7-6.3-2.3-8.7-4-5.7-4 .9 0 5 1.1 9.1 2.5zm687.1-1.9c-.3.3-1.2.4-1.9.1-.8-.3-.5-.6.6-.6 1.1-.1 1.7.2 1.3.5zm-64.3 1.9c-.5 1.1.1 1.5 2.2 1.6 1.6.1-1.1 1-6 2s-9.1 1.7-9.3 1.5c-.2-.2 1.5-1.1 3.9-2l4.3-1.6-5.7.5c-3.1.3-6.5.8-7.5 1.1-1.6.5-1.6.4-.2-.5 1.3-.8 12.5-3.3 18.1-4 .4-.1.5.6.2 1.4zm110.1 1.2c15.4 3.7 40.5 12.9 40.5 14.8 0 .3-1.7-.2-3.7-1.1-7.7-3.4-23.4-8.5-36.3-11.9-13.1-3.4-18.2-5.3-10.5-4 2.2.4 6.7 1.4 10 2.2zm-27.5-.7c0 .5-.5 1-1.1 1-.5 0-.7-.5-.4-1 .3-.6.8-1 1.1-1 .2 0 .4.4.4 1zm-670.6 2c.7.7-.1 1-2.1 1-4 0-6.5-.9-5.7-2.2.7-1.1 6.3-.3 7.8 1.2zm686.1.1c1.3.6 0 .7-4 .3-3.3-.4-6.2-.8-6.4-1-.9-.8 8.5-.2 10.4.7zM302 270.5c16.2 2.1 32.3 5.7 45.7 10.2 11.5 3.8 25.9 10 25.1 10.8-.2.3-2.4-.4-4.7-1.6-6-2.9-28.7-10.3-40.7-13.4-18.2-4.5-28.4-5.7-56.6-6.2-17.6-.4-26.6-.9-26.1-1.6.9-1.5 42.3-.2 57.3 1.8zm778.4-.5c.7 0 2.1.7 3.2 1.5 1.7 1.3 1.5 1.3-2.1.4-2.2-.6-4.4-1.6-5-2.1-.7-.8-.4-.9.8-.4 1 .3 2.4.6 3.1.6zM945 271.4c-1.9.8-6.8 2.4-10.8 3.6-8.1 2.5-31.2 13.5-41.2 19.7-8 4.9-11 6.5-11 5.9 0-1.2 21.8-14.1 31.4-18.6 11.2-5.3 29.6-11.9 33.1-11.9 1.3 0 .7.5-1.5 1.3zm-557.6 3.3c-2.4 5.7-3.7 6.4-1.8 1 .9-2.6 2-4.7 2.4-4.7.5 0 .2 1.7-.6 3.7zm34.1-2.7c.3.5.1 1-.4 1-.6 0-1.1-.5-1.1-1 0-.6.2-1 .4-1 .3 0 .8.4 1.1 1zm-198.7 1c-1.5.4-5.1 1-8 1.3l-5.3.6 5-1.4c2.8-.7 6.4-1.3 8-1.3h3l-2.7.8zm65.7 0l5 .7-6.5.1c-3.6 0-10.5-.3-15.5-.7l-9-.8 10.5-.1c5.8 0 12.8.3 15.5.8zm661.5 1c-3 .9-7.1 2-9 2.3-5.5 1-1.2-1.1 5.7-2.7 8-2 9.9-1.8 3.3.4zm-704.2-.3c-1 .2-2.8.2-4 0-1.3-.2-.5-.4 1.7-.4 2.2-.1 3.2.1 2.3.4zm133.7.3c-4.5 1.2-9.7 1.2-9 0 .3-.6 3.2-.9 6.3-.9 4.7.1 5.2.3 2.7.9zm714 0l2 .9h-2c-1.1 0-2.7-.4-3.5-.9-1.3-.9-1.3-1 0-.9.8 0 2.4.4 3.5.9zm-862.8.6c-.3.3-1.2.4-1.9.1-.8-.3-.5-.6.6-.6 1.1-.1 1.7.2 1.3.5zm79.5 1.3c.4.3-1 .5-3.2.3s-4.3-.9-4.7-1.4c-.7-1.2 6.7-.2 7.9 1.1zm738.8-.9c12.7 1.6 38.9 7.6 52.5 12.1 12.9 4.3 40.3 17.1 41.1 19.2.3.8-8.5 14.6-19.5 30.8-11 16.2-29.3 43.3-40.6 60.2-38.9 58.2-68.4 99.7-71.1 99.7-2 0-2.7-4.4-1.4-8.7.7-2.1 3.2-9.3 5.6-16 4.9-13.8 13.9-43 14.8-48.3 1.3-7.4-3.5 5.3-11.5 30.9-8.3 26.4-11.9 35.1-14.4 35.1-.8 0-3.3-2.6-5.7-5.7-8.3-11.3-52.6-78.1-65.8-99.3-7.3-11.8-19.6-31.2-27.3-43-16.3-25-16.7-25.8-16-27.7.6-1.5 8.7-7.2 17.3-12.1 14.8-8.3 46.8-20.3 63-23.6 6.7-1.3 19.9-3 31.5-3.9 9.8-.8 39.8-.6 47.5.3zm-852.1 4.6c-1.1 1.3-.9 1.5 1.2 1 1.3-.3 4.2-.8 6.4-1.1 2.2-.3 4.9-.9 6-1.2 1.3-.3 1.6-.2 1 .4-1.7 1.7-17.9 4.7-18.3 3.4-.2-.6-1-1.1-1.8-1.1s-1.4-.4-1.4-.9c0-1.1 2.3-1.8 5.9-2 2-.1 2.2.1 1 1.5zm134.9.8c9 2.3 12.2 3.6 9.1 3.6-3.2 0-21.9-5.9-18.9-5.9.3-.1 4.7 1 9.8 2.3zm601.2-1c0 .7-10.1 3.8-10.6 3.3-.3-.3 1.4-1.2 3.8-2 4.4-1.6 6.8-2 6.8-1.3zm181.8 1.7c4.2 1.6 2.2 1.8-2.3.2-2.5-.8-4.5-1.7-4.5-2 0-.4 2.5.2 6.8 1.8zm43.1-.5c.2.2.2.6-.1.9-.9.9-5.8-.6-5.8-1.7 0-.9 4.9-.3 5.9.8zM303 285c15.4 2.6 36.2 7.7 49.6 12.3 11.2 3.8 14.4 5.3 14.4 6.7 0 1.6-22.1 44.5-28 54.5-2.9 4.9-5.5 8.4-5.8 7.6-.4-1.1 1.9-10.5 3.5-14.8.3-.7.1-1.3-.4-1.3-.6 0-1.5 1.7-2.1 3.7-.7 2.1-2.4 6-4 8.7-2.5 4.6-3.4 5.3-11.9 9-5 2.3-10.6 5.3-12.3 6.9l-3.2 2.7 2.4 4.8c1.7 3.4 3 4.8 4.8 5 3.7.6 5 2.1 5 5.8 0 4-9.9 19.3-21 32.4-10.3 12.2-26 29-27.1 29-.5 0-.9-8.9-1-20.8-.1-11.4-.4-24.5-.8-29.2-.6-6-.8.6-1 22l-.1 30.5-9.3 6.6c-5 3.7-11.9 8.1-15.1 10-7 3.9-4.6 6.1-19.3-17.6-14-22.5-39.4-60.8-40-60.2-.8.8 2 5.5 20 33.3 9.6 14.8 19.8 31.1 22.7 36.3l5.3 9.4-2.7 2.4c-3.3 2.8-5 2.9-8.5.4-1.4-1-17.5-9.6-35.6-19.1-18.2-9.5-46.9-25-64-34.5-32.4-18-52.6-28.5-54.7-28.5-3.2.1 4.7 4.7 58.7 33.7 39.6 21.4 90.5 48.3 95.7 50.5 3 1.4 3.4 2.8 1.8 5.9-1.5 2.7 1.1 7.3 6.1 10.6 3 2 6.8 6.7 13.4 16.8 5.1 7.7 10.2 16 11.4 18.3 2.2 4.2 2.2 4.4.2 3.7-3.8-1.2-3.8 5 .1 12.8 1 2 2.5 3.7 3.3 3.7 2.1 0 1.9-2.4-.4-4.4-1-1-2.1-2.6-2.4-3.8-.4-1.4.6-.8 3.1 2 2.1 2.2 5 4.4 6.5 4.7 5.3 1.4 14.3-4.6 16.2-10.5.6-1.9.9-1.9 4.5 1.3 2.1 1.8 8.7 6.1 14.7 9.7 5.9 3.5 23.2 14.3 38.3 24 15.1 9.7 28.6 18.3 30 19 5.1 2.7 0-1.9-9.5-8.5-9.1-6.3-46.9-30.5-61.5-39.3-10.9-6.6-11.2-6.9-9.5-10.1.7-1.4 3.2-4.4 5.4-6.5l4.1-4 11.7 3.7c6.5 2.1 12.5 3.7 13.3 3.6 1.8-.1-7.8-4.9-9.9-4.9-2.1 0-13.1-5.2-13.1-6.1 0-1.4 6.2-1.1 11.6.6 6.2 1.9 10.4 1.9 10.4.1 0-1.6-3-2.6-7.7-2.6-8.9 0-.1-5.5 11.9-7.4 5.5-.8 6.8-1.4 7-3 .2-1.2 2.6-3.3 6.3-5.4 19.9-11.4 17.2-11.5-4.8-.2-9.7 4.9-18.3 9-19.2 9-.8 0-3.8 1.2-6.6 2.6-2.8 1.4-5.2 2.4-5.3 2.2-.2-.2-1.6-2.6-3.2-5.5l-2.9-5.2 1.8-4.8c1.8-4.7 1.8-4.8-.3-6.5-2.6-2.1-2.6-2.4 1-3.2 3.7-.7 4.7-2.9 3.2-6.9-1-2.7-.9-3 1.8-4 2.3-.9 3-1.8 3-3.9 0-1.8-.5-2.8-1.5-2.8-2.1 0-1.9-1.9.3-2.6.9-.3 3-1.2 4.6-2 2.4-1.2 3.1-1.2 4.5-.1.9.7 4.5 2.8 8.1 4.6 3.6 1.8 14.4 8.3 24 14.4 9.6 6 45.6 27.9 80 48.5 74.7 44.8 77.9 46.8 78.7 50.2 1.4 5.7-6.3 26.7-19.8 54-13.3 26.7-26.2 44.3-48 65.5-21.1 20.5-38.4 32.7-66.3 46.6-26.9 13.4-52.4 20-84.6 22-40.1 2.5-71-1.7-108-14.8-16.7-5.9-21.1-8.1-35.3-17-19.8-12.6-31.4-21.8-47.3-37.7-22.6-22.7-35.2-39.5-47.8-63.6-16.3-31.5-23.7-59.4-26.7-100.6-1.5-21-.1-37.5 5.1-63.5 6-29.7 9-38.5 20.9-61.9 16-31.6 41-62.7 67.1-83.7 20.1-16.1 53.4-34.5 75.6-41.9 16-5.3 28.2-7.8 47.9-9.8 8.3-.9 16.6-1.8 18.5-2 8.9-1 38.1.3 50 2.4zm109.7 1.5c-.6 1.9-4.5 1.7-5.6-.3-.6-1.1-.8-2.2-.5-2.5.9-.8 6.4 1.7 6.1 2.8zm-229.1.1c-7.4 2.6-10.4 3.1-7.1 1.2 1.1-.6 2.2-1.5 2.5-1.9.5-.7 4.9-1.5 9.5-1.7 1.1 0-1.1 1-4.9 2.4zm169.6.6c3.7 1.2 6.8 2.5 6.8 2.9 0 .8-13.8-3.6-14.8-4.6-1-1 1.2-.5 8 1.7zm563.8-1.8c0 .2-3.7 2.4-8.2 4.9-4.6 2.5-12.3 7-17.3 10-4.9 3.1-9.2 5.4-9.4 5.1-.7-.7 2.6-2.9 18.4-11.9 14-7.9 16.5-9.2 16.5-8.1zm213.8 2.6c.3 0 .3.3 0 .6-.7.6-7.8-2.2-7.8-3.1 0-.3 1.6.2 3.6 1s3.9 1.5 4.2 1.5zm5.3-1.4c1.7.8 2.9 1.8 2.6 2-.3.3-2.2-.4-4.4-1.5-2.1-1.1-3.2-2-2.5-2.1.7 0 2.7.7 4.3 1.6zm-963.6.4c-1.1.5-2.7.9-3.5.9-1.3.1-1.3 0 0-.9.8-.5 2.4-.9 3.5-.9h2l-2 .9zm204 9c-2.5 5.1-4.9 9-5.2 8.7-.2-.3 1.6-4.6 4.2-9.7 2.6-5 4.9-8.9 5.2-8.6.2.2-1.7 4.5-4.2 9.6zm786-9c.3.5.2 1-.4 1-.5 0-1.3-.5-1.6-1-.3-.6-.2-1 .4-1 .5 0 1.3.4 1.6 1zM162 290.5c0 .6-8.7 4.5-9.8 4.5-.9-.1 8-4.9 9.1-5 .4 0 .7.2.7.5zm253 5.2c17.7 10.2 33.7 23.5 51 42.7 36.7 40.7 53.8 72.1 65.9 121.1 5.9 24.1 6.5 29.5 6.5 60.5 0 29.4-1.5 46.8-5 59l-1.6 5.5-3.3-3.6-3.2-3.6 1.3-6.2c.7-3.5 1.8-14 2.5-23.5 3.3-48.2-6.8-96.3-30.3-143-15.4-30.5-44-63.9-74.2-86.4-8.2-6.1-17.3-12.4-20.3-13.9-2.9-1.5-5.3-3.2-5.3-3.6 0-1.1 4.9-10.7 5.5-10.7.3 0 5 2.6 10.5 5.7zm460-4.8c0 1.2-2 2.5-2.7 1.8-.7-.7.6-2.7 1.8-2.7.5 0 .9.4.9.9zm275.5 4.2c.4.6-1.1.1-3.3-1-2.2-1.1-4.4-2.6-4.7-3.2-.4-.6 1.1-.1 3.3 1 2.2 1.1 4.4 2.6 4.7 3.2zm-980.8-3.5c-.3.3-5.7 2.8-11.9 5.5-12.6 5.4-11.3 3.5 1.5-2.3 7.5-3.3 12-4.7 10.4-3.2zm199.3 1.5c1.2.7 1.1.8-.6.9-1.1 0-2.9-.7-4-1.6-1.8-1.4-1.8-1.5.6-.8 1.4.3 3.2 1 4 1.5zm50.9-.7c.7.8 2.4 1.7 3.9 2.1 6.2 1.3 28.2 19.3 28.2 23 0 .6-7.9-5.4-12.7-9.6-1.8-1.6-3.3-3.2-3.3-3.7s-3.3-2.5-7.2-4.5c-8.2-4.1-14.3-8.6-11.7-8.7.9 0 2.2.6 2.8 1.4zm720.7 2.4c-.4.3-1.4-.2-2.4-1.2-1.6-1.8-1.6-1.8.6-.6 1.3.6 2.1 1.4 1.8 1.8zm23.4-.2c0 1.4-2.1 1.9-3.3.7-.9-.9 1.3-3.4 2.4-2.7.5.3.9 1.2.9 2zm-1019.5 4.7c-8.5 5-18.1 10.7-21.4 12.9-1.9 1.2-3.2 1.7-2.7 1 .9-1.5 9.8-7.3 19.1-12.3 7.5-4.2 11.6-5.4 5-1.6zM1158 299c1.4 1.1 2 2 1.4 2-.7 0-2.2-.9-3.5-2-3.1-2.5-1.2-2.6 2.1 0zm-297.5.1c.8 1.2-2.9 5.5-6 7.1-1.5.8-1.3.3.8-1.9 1.5-1.6 2.5-3.2 2.1-3.6-.7-.7.4-2.7 1.6-2.7.5 0 1.2.5 1.5 1.1zm291.6 1c2.3 1.1 3.9 2.3 3.6 2.5-.5.6-8.7-3.3-8.7-4.1 0-.9 1-.6 5.1 1.6zm-757.6 1.1c1.4.6 2.5 1.5 2.5 2 0 1.3-1.3.9-4-1.2-2.8-2.2-2.3-2.5 1.5-.8zm7.9 8.9c6.5 3.9 12 6.8 12.3 6.5.4-.3.4-.7.2-.9-7.1-4.6-11.8-8.1-11.5-8.5.6-.6 15.9 9.6 20.6 13.7 2.4 2.1 2.9 2.9 1.5 2.5-1.1-.3 1.8 3 6.5 7.3 14.4 13.3 28.2 27.4 35.3 36.3 8.5 10.5 22.2 31.1 27.3 40.7 2.1 4 3.9 7.1 4.2 6.9.2-.2-.1-1.3-.7-2.4-.6-1.2-1.1-2.7-1.1-3.4.1-2.6 1.8 1.8 4.5 11.2 1.5 5.2 3 9.9 3.5 10.4s.5-.8-.1-2.8c-2-7.1-.2-4.7 3 4.1 4.2 11.4 4.2 11.5 3.2 10.8-.5-.3-1.2-1.9-1.6-3.5-.4-1.6-1.1-3.3-1.7-3.6-.6-.4-.8.1-.4 1.2 12.4 40.9 16.3 65.9 15.3 100.2-.3 13.9-1.1 22.5-3.1 33.5-2.3 13.5-4.5 21.2-4.6 16.6 0-.9.9-5.9 1.9-11 3.4-16.8 4.5-28.1 4.5-47.9-.1-20.9-1.1-31.8-5-50-10.5-49.6-29.3-86.6-62.6-123.3-14.4-16-37.4-34.7-54.7-44.7-8.7-5-11.3-7-9.3-7 .5 0 6.2 3.2 12.6 7.1zm-261.9-4.3c-3.4 2-7.3 3.7-6.2 2.6 1.6-1.6 6.3-4.3 7.7-4.3.8-.1.2.7-1.5 1.7zm724.5.1c0 1.2-3.1 4.7-7.7 8.8-31 27.3-53.1 54.8-68.1 84.8-8.6 17.3-18.9 46.9-23.7 68-2.8 12.2-4.8 17.1-6.6 15.9-2-1.2 3.2-27.3 9.2-45.8 10.6-33.3 26.4-62.6 48.7-90.6 5.1-6.3 9.2-12 9.2-12.7 0-.7.5-1.3 1.2-1.3 1.3 0 7.3-4.8 19.8-16 14.5-13 18-15.2 18-11.1zm13.5 10.1c2.5 3.8 5.1 7.2 5.6 7.6.5.3 2 2.6 3.4 5.2 1.3 2.6 3.4 6.3 4.7 8.2 1.8 2.8 1.9 3.2.4 2-1.9-1.5-20.6-29.2-20.6-30.4 0-1.6 2.2.9 6.5 7.4zm297.4-4.5c5.7 4.6 13.3 11.6 12.9 12-.2.1-4.5-3.3-9.6-7.6-9.3-7.8-11.7-11.1-3.3-4.4zm-808.8 2.2c-1.1 2.1-2 3.2-2.1 2.5 0-1.7 3-7.5 3.6-6.9.3.3-.4 2.2-1.5 4.4zm-238.2-1.4c-1.4 1.2-6.6 5.1-11.5 8.7-4.9 3.6-13.6 10.5-19.3 15.5-14.5 12.7-18.9 15.9-10.1 7.5 10-9.4 24.2-21.2 34.3-28.2 8.6-6 11-7.3 6.6-3.5zm739.9 2.5c-.1.4-2.2 2.2-4.7 4.1-12 8.9-33.8 32.6-48.9 53-9.4 12.8-11 14.8-9.2 11.1 2.8-5.5 13.4-20.1 23-31.8 5.6-6.8 10-12.5 9.8-12.8-.3-.2-5.3 5.1-11.3 11.8-6 6.8-11.7 13.2-12.8 14.3-2 2-2 2-.1-1.3 5.4-8.8 34.2-38.7 47.3-49.1 5.2-4.1 5.5-4.2 6.3-2.2.4 1.2.7 2.5.6 2.9zm283.2-2.3c0 2.6-23.1 42.9-48.4 84.5-4.6 7.4-13.4 22.3-19.6 33-6.2 10.7-12.9 21.7-14.8 24.3-1.9 2.6-3.2 5.1-2.8 5.4.3.3-.3 1.8-1.3 3.2-1 1.4-5.1 8.7-9 16.1-8.4 15.7-12.6 21.7-18.7 26.6-4.7 3.9-6.1 6.7-1.9 4 2.4-1.5 2.5-1.5 2.5.2 0 2.8-2 4.2-6.2 4.2-4.1 0-6.6-1.9-9.2-6.9-1.6-2.9-1.5-3 2.4-6.1 5.5-4.3 5-5.7-.7-2.3l-4.8 2.7 4.1-4.9c6.5-8.1 15.1-20.4 31.9-46 8.7-13.2 28.9-42.9 44.8-66 15.9-23.1 31.8-46.1 35.2-51 3.4-5 7.5-11.3 9-14 2.8-4.9 5.1-7.5 6.7-7.5.4 0 .8.2.8.5zm19.1 1.2c1.3 1.6 1.2 1.7-.3.4-1-.7-1.8-1.5-1.8-1.7 0-.8.8-.3 2.1 1.3zm51.1 23.8l3.1 4-3.9-3.5c-7.7-6.9-23.4-22.5-23.4-23.3 0-1.2 20.5 18.1 24.2 22.8zM114 318.1c-3.7 3.2-7 5.3-7 4.5 0-.7 9.1-7.6 9.9-7.6.3.1-1 1.4-2.9 3.1zm282 1.7c11.5 6.8 29.2 20.5 37.9 29.3 11.6 11.5 20.7 22.2 33.5 39.2 11.6 15.5 15.9 22.8 21.9 36.9 11.5 26.8 16.8 45.4 20.3 70.8 3.1 22.3 1.8 66-2.1 70-1 .9-1.5 1-1.5.2 0-.6-1.9-2.1-4.2-3.3-4-2-67.4-45.1-93.7-63.6-6.4-4.5-23.7-16.4-38.6-26.4-14.8-10-31.8-21.8-37.7-26.2l-10.8-8.1 3.1-5.5c1.7-3.1 7.7-12.6 13.2-21.1 5.5-8.5 13.4-21 17.5-27.8 5.5-9.1 8.9-13.5 13-17 3.1-2.6 6.4-5.6 7.4-6.7 2.4-2.8 8.1-13.5 7.1-13.5-1.1.1-5.3 6.8-5.3 8.6 0 2.4-1.4 1.6-2.8-1.6-1.2-2.7-.9-3.7 4.9-16.2 8.8-18.9 9.8-20.8 11.2-20.8.6 0 3.2 1.3 5.7 2.8zm812-.8c0 .5-.2 1-.4 1-.3 0-.8-.5-1.1-1-.3-.6-.1-1 .4-1 .6 0 1.1.4 1.1 1zm-748.5 2c.3.5.2 1-.4 1-.5 0-1.3-.5-1.6-1-.3-.6-.2-1 .4-1 .5 0 1.3.4 1.6 1zm709.1 2.8c6.7 4.4 17.6 13.9 24.7 21.5 8.3 8.9 24.1 29.7 31.6 41.4 8.7 13.8 20.4 38.5 26 55.1 9.6 28.6 12.5 47.4 12.6 82.7 0 22.3-1.5 36.7-5.1 49.8-.8 2.8-2.6 9.7-4 15.1-7 27.4-26.9 66.4-44.8 87.6-3.9 4.7-14.5 15.9-23.6 25-15.1 15.2-17.8 17.4-32 26.5-25.6 16.3-48 25.9-77.5 33-18.9 4.6-34.9 5.9-65.3 5.2-22.6-.4-25.9-.7-38.9-3.5-29.6-6.4-60.3-19-81.9-33.7-24.6-16.7-44.4-34.3-56.7-50.3-12.4-16-28.8-43.5-37.7-62.7-3-6.6-11-31.4-11-34.1 0-2-5.2-1.1 65.5-11.9 42-6.4 64.6-9.4 119-15.7 5.6-.6 10.3-.7 12.5-.1l3.5.9.3 9.8.3 9.8 11.5-.4c12.9-.3 13.5-.6 15.5-8.1 1.3-4.8.4-6-2.1-2.7-1.5 2-2.9 2.5-8.3 2.8l-6.5.4-.7-5.5c-.9-7-.4-9.1 2-9.5 1.1-.2 3.4-1 5.2-1.8 1.7-.8 3.5-1.4 4.1-1.4.5 0 1.6-.7 2.3-1.6 1.2-1.4 1.7-1.1 4.9 2.6 3 3.6 4.3 4.3 8.3 4.7 10 1.2 20.8-5.2 24.3-14.2.9-2.5 2.3-4.5 3.1-4.5.8 0 1.1-.5.8-1-.9-1.4 1-1.2 9.3.9 3.9 1.1 7.2 1.6 7.2 1.1 0-.4-3.9-2.3-8.7-4.2-12.7-5-12.5-6.2 1.4-12.9 12.3-5.8 12.7-7.8.5-2.4-9.4 4.1-14.2 5.3-14.2 3.6 0-.7 3.8-8.3 8.4-16.9 4.6-8.6 11.3-21.3 14.8-28.2 3.6-6.9 13.5-24.2 22-38.5s19.2-32.7 23.8-40.8c4.6-8.2 9.2-15.3 10.2-15.8 1.9-1 12.8-15 12.8-16.4 0-.5-2.1 1.1-4.7 3.5l-4.6 4.5 2-3.5c9.2-16.2 29.8-49 30.8-49 .7 0 3.8 1.7 7.1 3.8zm18.4 2.7c1.3 1.4 2.1 2.5 1.8 2.5-.2 0-1.5-1.1-2.8-2.5-1.3-1.4-2.1-2.5-1.8-2.5.2 0 1.5 1.1 2.8 2.5zM103 326c0 .5-.5 1-1.1 1-.5 0-.7-.5-.4-1 .3-.6.8-1 1.1-1 .2 0 .4.4.4 1zm257 2.1c-.7 1.1-1.4 1.9-1.6 1.6-.7-.7.7-3.7 1.7-3.7.6 0 .5.9-.1 2.1zm72.1-.4c1.3 1.6 1.2 1.7-.3.4-1.7-1.3-2.2-2.1-1.4-2.1.2 0 1 .8 1.7 1.7zm442.3-.2c.3.9 7.7 12.4 16.4 25.8 16.6 25.2 25.6 39.5 51.5 81.2 8.5 13.7 19.8 31.7 25.1 40 5.3 8.2 9.6 15.6 9.6 16.4 0 1.5-4 1.5-73-.9-23-.8-30.1-1.4-32.5-2.6-3.7-1.9-22.2-7.4-24.9-7.4-3.9 0 0 1.9 9.4 4.5 5.2 1.5 10.2 3.1 11 3.6 2.4 1.3-17 1-20.9-.4-4-1.4-4.5-2.3-6.1-9.9-1.2-6.2-7-15.1-11.2-17.5-4.1-2.2-9.4-1.6-11.7 1.3-2.8 3.5-2.6 7.4.4 13.5 2.6 5 2.6 6.9.1 6.9-.8 0-1.9.6-2.6 1.4-.9 1.2-1.7 1.2-3.5.4-1.9-.9-3-.7-5.1.7-2.4 1.5-4.2 1.7-12.4 1.2-13.4-.8-13.4-.8-12.7-7.6 1.3-12 11.1-44.6 18.7-62.2 4.4-10.1 14-27.2 21.9-38.7 8.7-12.6 34.3-40.6 42.5-46.3 7.4-5.2 9-5.8 10-3.4zm335.7 15.8c7.1 7.7 12.9 14.4 12.9 15 0 .7-2.1-1.3-4.7-4.3s-8.1-9.1-12.3-13.5c-4.1-4.4-8.9-9.6-10.5-11.5-6.7-7.8 2.2 1 14.6 14.3zM97 331.5c-.7.8-1.8 1.5-2.4 1.5-.6 0-.2-.7.8-1.5 2.5-1.9 3.2-1.9 1.6 0zm1098.1 1.8c-.1 1.2-1.5.9-1.9-.4-.3-.6.1-1 .8-.8.6.3 1.1.8 1.1 1.2zm36.9 7.8c0 1.4-.5 1.1-3.1-1.7l-2.4-2.7 2.8 1.8c1.5.9 2.7 2.1 2.7 2.6zM79 349c-9.3 10-13.4 13.8-9.9 9.2 3.8-4.9 18.2-20.2 19.1-20.2.5 0-3.6 4.9-9.2 11zm275-9.6c0 .3-.4.8-1 1.1-.5.3-1 .1-1-.4 0-.6.5-1.1 1-1.1.6 0 1 .2 1 .4zm122.1 1.6c1.8 1.5 2 1.9.8 2-.9 0-2.4-.9-3.4-2-2.3-2.6-.4-2.6 2.6 0zm427.3 11.9c2 2.9 3.6 5.8 3.6 6.4 0 1.2-6.7-7.7-9.6-12.8l-1.7-3 2 2c1.2 1.1 3.7 4.4 5.7 7.4zm-556.9.1c.3.5.1 1-.4 1-.6 0-1.1-.5-1.1-1 0-.6.2-1 .4-1 .3 0 .8.4 1.1 1zm193.1 16c3.9 5.2 7.9 10.8 8.9 12.5l1.7 3-2.4-2.6c-3.5-3.8-17.8-23.5-17.8-24.5.1-1.1.6-.4 9.6 11.6zm-47.2-5.1c-.5.6-3.3-3.1-3.3-4.4-.1-.6.8.1 1.9 1.5 1 1.4 1.7 2.7 1.4 2.9zm728.4-1.4c-.3.3-.9-.2-1.2-1.2-.6-1.4-.5-1.5.5-.6.7.7 1 1.5.7 1.8zM63.9 366.2c-1.2 1.8-4.8 6.9-8 11.3-10.2 14.4-23.1 36.7-28.6 49.9-7.5 17.8-10.9 28.2-15.5 48-3.6 15.9-6 23.3-4.4 14.1 7.7-44.5 26-86.8 51.6-118.9 6.1-7.7 9-10.3 4.9-4.4zM917 374c3.5 5.2 5.5 8.8 4.5 8-1.8-1.5-12.5-17.5-12.5-18.7 0-1.2 1.5.8 8 10.7zm311-8.9c0 .6-.4.7-1 .4-.5-.3-1-1.1-1-1.6 0-.6.5-.7 1-.4.6.3 1 1.1 1 1.6zm-.6 5.5c1 2.5-.1 2.9-1.4.5-.6-1.2-.7-2.1-.1-2.1.5 0 1.2.7 1.5 1.6zm-105.3 3.6c-2.4 3.9-2.8 3-.5-1.3.8-1.7 1.8-2.8 2.1-2.5.3.3-.4 2-1.6 3.8zm-320 10.7c-19.1 31.9-31.9 70.8-36.1 109.9-.7 6.2-1.7 11.5-2.1 11.8-1.3.7-1.1-2.8.6-16.2 4.1-31.3 13.4-62.9 25.4-86.6 6-11.8 18.2-32 18.9-31.3.2.2-2.8 5.8-6.7 12.4zm-323.6-8.7l1.6 3.3-2.1-2.4c-1.1-1.3-2-2.7-2-3.2 0-1.8 1-.8 2.5 2.3zm-156 .8c-.3.5-1.1 1-1.6 1-.6 0-.7-.5-.4-1 .3-.6 1.1-1 1.6-1 .6 0 .7.4.4 1zm-5.8 3.5c.9 2.5-.4 2.9-1.7.6-.7-1.5-.7-2.1 0-2.1.6 0 1.3.7 1.7 1.5zm6.8 4.5c-.3.5-1.3 1-2.1 1s-1.2-.5-.9-1c.3-.6 1.3-1 2.1-1s1.2.4.9 1zm-8.5 1.4c0 .9-4 1.3-4.6.5-.3-.5.6-.9 2-.9s2.6.2 2.6.4zm926 5.8c0 1.7-1 .6-2.5-2.5l-1.6-3.2 2 2.5c1.1 1.4 2.1 2.8 2.1 3.2zm-914.8-2c-.7.7-1.2.8-1.2.2 0-.6.3-1.4.7-1.7.3-.4.9-.5 1.2-.2.2.3-.1 1.1-.7 1.7zm-5.6 1.4c-.4.9-.9 1.5-1.1 1.2-.3-.3-.3-1.3.1-2.2.4-.9.9-1.5 1.1-1.2.3.3.3 1.3-.1 2.2zm240.9 6c2 2.9 4 5.6 4.5 5.9.6.3 1 1.2 1 1.8 0 1.3-1.6-.5-7.9-8.8-5-6.7-6-8.5-3.3-6.1 1.2 1.1 3.8 4.3 5.7 7.2zm-50.1-5c.3.8.2 1.2-.4.9-.6-.3-1-1-1-1.6 0-1.4.7-1.1 1.4.7zm-18.4 6.7c0 1.6-1.8-.3-2.3-2.5-.6-2.2-.5-2.2.8-.4.8 1.1 1.5 2.4 1.5 2.9zm21.5-2.3c.3.5.1 1-.4 1-.6 0-1.1-.5-1.1-1 0-.6.2-1 .4-1 .3 0 .8.4 1.1 1zm418.5 2c0 .5-.2 1-.4 1-.3 0-.8-.5-1.1-1-.3-.6-.1-1 .4-1 .6 0 1.1.4 1.1 1zm313 2.5c0 .8-.2 1.5-.4 1.5s-.6-.7-1-1.5c-.3-.8-.1-1.5.4-1.5.6 0 1 .7 1 1.5zm-749.6 4.4c-.6.6-2.4-1.9-2.4-3.4.1-.6.7-.1 1.5.9.8 1.1 1.2 2.2.9 2.5zm443.4 4.7c-.4.3-1.2-.5-1.8-1.8-1.2-2.2-1.2-2.2.6-.6 1 1 1.5 2 1.2 2.4zM37 416.5c-.6 1.5-1.3 2.5-1.6 2.3-.2-.3.1-1.7.7-3.2 1.6-3.4 2.3-2.7.9.9zm540.6 2.2c-.7.7-2.6-.7-2.6-1.9 0-.6.6-.6 1.5.2.9.7 1.3 1.5 1.1 1.7zm367.8-.1c.3.8.2 1.2-.4.9-.6-.3-1-1-1-1.6 0-1.4.7-1.1 1.4.7zm308.6 1.7c0 .5-.4.5-1 .2-.5-.3-1-1.4-1-2.3 0-1.5.2-1.5 1-.2.5.8 1 1.9 1 2.3zM32.2 425.2c-.7.7-1.2.8-1.2.2 0-1.4 1.2-2.6 1.9-1.9.2.3-.1 1.1-.7 1.7zm753.9 1.1c-.8.8-1.1.7-1.1-.4 0-2 1.3-3.4 1.8-1.9.3.7-.1 1.7-.7 2.3zM584 427.5c0 .5-.5.3-1-.5s-1-2-1-2.5c0-.6.5-.3 1 .5s1 1.9 1 2.5zm368 1.9c0 .6-.7.2-1.5-.8-.8-1.1-1.5-2.5-1.5-3 0-.6.7-.2 1.5.8.8 1.1 1.5 2.5 1.5 3zm-922.6 3.3c-7.8 18.1-13.2 36.4-16.4 54.8-2.5 14.6-3 16.9-3.5 16.3-.6-.6 1.3-13.8 3.7-25.8 2.8-14.4 15-49 17.3-49 .3 0-.2 1.7-1.1 3.7zm505.5 17.8c1.1 2.2 2.2 6.2 2.6 9 .4 2.7 1.1 5.5 1.6 6.2 1.1 1.3.1 6.5-1.1 5.8-.4-.2-1-2.7-1.4-5.5-.4-2.8-2.3-10.6-4.3-17.3-4.5-15.6-5-18-1.8-9.2 1.4 3.8 3.4 8.8 4.4 11zm55.6-16.5c.3.5.1 1-.4 1-.6 0-1.1-.5-1.1-1 0-.6.2-1 .4-1 .3 0 .8.4 1.1 1zm190.6 5.1l-1 2.4v-2.6c-.1-1.4.2-2.9.6-3.3 1.2-1.2 1.4.9.4 3.5zm180.8 4.7c2.8 4.3 5.1 8.2 5.1 8.8 0 1-7.2-9.3-9.6-13.9-2.7-5.1-.7-2.7 4.5 5.1zM1261 438c0 .5-.2 1-.4 1-.3 0-.8-.5-1.1-1-.3-.6-.1-1 .4-1 .6 0 1.1.4 1.1 1zm-663.2 6.6c-.4.3-1.2-.5-1.8-1.8-1.2-2.2-1.2-2.2.6-.6 1 1 1.5 2 1.2 2.4zM320 448.4c4.4 1.6 46 27.9 55.5 35.1 3.9 2.9 12.2 8.5 18.5 12.4 6.3 4 18.3 11.9 26.5 17.7 8.3 5.8 26.8 18.4 41.2 28 14.4 9.6 26.7 18.1 27.3 18.9.7.8 1.8 1.5 2.4 1.5 1.3 0 13.5 9.9 14.8 12 .6 1 .4 2.8-.6 5.2l-1.6 3.6-17.2-10.7c-9.5-6-23.4-14.3-30.8-18.6-7.4-4.3-19.6-11.5-27-16-7.4-4.6-16.9-10.2-21-12.5-7.3-4.2-22.8-13.9-42-26.5-5.2-3.4-12.6-7.9-16.5-10-3.8-2-12.4-7.2-19-11.5s-14.5-9-17.5-10.5c-6.9-3.4-9.3-6.5-5.2-6.5 3.1 0 5.5-3.5 4.9-7-1.2-5.9.6-7.1 7.3-4.6zm285 5.1c0 .5-.9-.1-2-1.5s-2-3-2-3.5c0-.6.9.1 2 1.5s2 2.9 2 3.5zm471.6-.9c-.4.9-.9 1.5-1.1 1.2-.3-.3-.3-1.3.1-2.2.4-.9.9-1.5 1.1-1.2.3.3.3 1.3-.1 2.2zm-784.4 3.3c-.1.7.3 1.9.9 2.7 1.9 2.3.4 2.7-3 .9-3.4-1.7-3.7-2.5-1.9-4.3 1.6-1.6 4.4-1 4 .7zm226.3 6.7c1 4.1 1.5 7.8 1.2 8.1-.6.6-2.3-5.2-3.3-11.5-1.1-7 .3-4.7 2.1 3.4zm91.6-3.3c1.2 2.2 1.2 2.2-1 .3-1.1-1.1-2.1-2.3-2.1-2.8 0-1.4 1.9.1 3.1 2.5zm660.4-2.3c.3.5.3 1.5-.1 2.1-.6 1.1-2.3-.6-2.4-2.4 0-1 1.8-.9 2.5.3zm-291.9 12.6c4.1 6.2 7.4 11.9 7.4 12.6 0 .7-1.5-1-3.2-3.7-1.8-2.8-5.6-8.7-8.5-13.3-3-4.6-4.8-8-4.2-7.6.6.3 4.5 5.8 8.5 12zm-679.9-6.4c-.3.8-.6.5-.6-.6-.1-1.1.2-1.7.5-1.3.3.3.4 1.2.1 1.9zm475 2c-.3.8-.6.5-.6-.6-.1-1.1.2-1.7.5-1.3.3.3.4 1.2.1 1.9zm-157.7.9c0 .6-.4.7-1 .4-.5-.3-1-1.1-1-1.6 0-.6.5-.7 1-.4.6.3 1 1.1 1 1.6zm209.8 4.1c-.7 1.9-3.8 2.2-3.8.4 0-1 .9-1.6 2.1-1.6 1.2 0 1.9.5 1.7 1.2zM302 471c0 .5-.4 1-1 1-.5 0-1-.5-1-1 0-.6.5-1 1-1 .6 0 1 .4 1 1zm761.5 5c-1.4 2.9-2.9 5-3.2 4.7-.3-.3.7-2.8 2.3-5.6 3.6-6.6 4.3-5.9.9.9zm-290.8-2.8c-.3.8-.6.5-.6-.6-.1-1.1.2-1.7.5-1.3.3.3.4 1.2.1 1.9zm61 .4c-.3.3-1.2.4-1.9.1-.8-.3-.5-.6.6-.6 1.1-.1 1.7.2 1.3.5zM631 485.3c-.1 1.3-3.7-2.8-7.1-7.8-1.2-1.7-.1-1 2.5 1.8 2.5 2.7 4.6 5.4 4.6 6zM286 477c0 .5-1.1 1-2.5 1s-2.5-.5-2.5-1c0-.6 1.1-1 2.5-1s2.5.4 2.5 1zm237.9 10.3c.6 4.3 1.1 9 1 10.5-.1 5.1-1.6-.8-2.3-9.3-.4-4.4-.9-8.9-1.2-10-.4-1.6-.3-1.7.5-.5.5.8 1.4 5 2 9.3zM277 482.4c0 .7 1.1 1.9 2.5 2.6 3.6 1.9 3.1 3-1.5 3-5 0-5.2 1.6-.9 6.5l3.1 3.5h-3c-3.5 0-6.7-3.3-7.7-8-.9-4 0-6.2 3.2-8.2 2.9-1.7 4.3-1.5 4.3.6zm263.7.8c-.3.8-.6.5-.6-.6-.1-1.1.2-1.7.5-1.3.3.3.4 1.2.1 1.9zm-251.7.3c-.7.8-1.6 1.5-2 1.5-.4 0-1-.7-1.4-1.5-.4-1.1.2-1.5 2.1-1.5 2.1 0 2.4.2 1.3 1.5zm-57.6 1.1c2.8 1.1 1.7 2.4-1.9 2.4-3.3 0-4.3-.8-2.8-2.3.8-.9 2.7-.9 4.7-.1zm826 1.9c-.4.8-.8 1.5-1 1.5-.2 0-.4-.7-.4-1.5s.4-1.5 1-1.5c.5 0 .7.7.4 1.5zM258 488.2c0 1.1 1.5 4.4 6.8 15 .8 1.8-3.6.6-7.2-1.8-4.5-3.1-7.2-8.5-5.6-11.3 1.5-2.9 6-4.3 6-1.9zm454.5-.2c-.3.5-1.3 1-2.1 1s-1.2-.5-.9-1c.3-.6 1.3-1 2.1-1s1.2.4.9 1zm15.2.7c0 1.4-1.1 1.6-4.4.7-1.3-.4-2-1-1.8-1.5.8-1.3 6.2-.6 6.2.8zm11.8-.7c.3.5.1 1-.4 1-.6 0-1.1-.5-1.1-1 0-.6.2-1 .4-1 .3 0 .8.4 1.1 1zm14.2 2.2c-.3.7-.5.2-.5-1.2s.2-1.9.5-1.3c.2.7.2 1.9 0 2.5zm66.5-1.4c-1.3.9-4.1 3.1-6.1 4.9-3.7 3.1-8.9 5.8-9.8 4.9-.2-.2 1.7-1.8 4.2-3.6 8-5.5 18-10.8 11.7-6.2zm181.5 15.4c5.7 8.8 10.2 16.2 9.9 16.5-.7.7-22.6-31.3-22.6-33.1 0-2 3.2 2.2 12.7 16.6zm-707.9-13.5c.2.8-.6 1.3-2.3 1.3-1.4 0-3.9.7-5.4 1.5-2.7 1.4-4.1 1.1-4.1-.7 0-.4.8-.8 1.8-.8.9 0 2.8-.7 4.2-1.4 2.9-1.7 5.2-1.6 5.8.1zm404.6-.8c.3.5-.1 1.1-.9 1.5-.9.3-1.5 0-1.5-.9 0-1.6 1.6-2 2.4-.6zm98.2.6c-1 .8-2.3 1.2-2.8.9-1.4-.9.2-2.4 2.5-2.4 2.1.1 2.1.1.3 1.5zm44.5.7c1.1 2.1 1.1 2.2-.4.9-1-.7-1.7-1.7-1.7-2.2 0-1.5.9-1 2.1 1.3zm-605.7 1.2c-1.2 3-9.4 6.2-9.4 3.6 0-.6 1.2-1 2.6-1 1.4 0 3.5-1 4.7-2.4 2.4-2.7 3.1-2.8 2.1-.2zm12.3 1.9c2.1 1.6.4 2.7-2.2 1.5-2.5-1.1-3-2-1.9-3.1.7-.6 1.8-.2 4.1 1.6zm492.8-1.3c.4.6-.8 1-2.9 1-2 0-3.6-.5-3.6-1 0-.6 1.3-1 2.9-1 1.7 0 3.3.4 3.6 1zm99.1 1.5c2.3 3.5 1.1 4.2-1.9 1.1-3.6-3.6-6-3.3-9.6 1.1-1.7 2.1-3.1 3.2-3.1 2.5 0-.8 1.3-2.7 2.9-4.3 3.9-3.9 9.3-4.1 11.7-.4zm15.3-.4c3.1 2.3 8.6 2.7 68.6 4.9 32.7 1.2 57.5 2.7 58.3 3.4.7.8-5.9 7.6-10.1 10.3-3.1 1.9-9.7 3.5-32.9 7.8-67.4 12.6-156.2 26.6-158.7 25.1-.4-.3-1.1-3.1-1.5-6.3-.4-3.1-.9-6.7-1.2-7.9-.5-1.9.7-3 8.8-7.8 5.1-3.1 12.3-6.5 15.8-7.7 3.6-1.2 7.5-3 8.7-4.1 3.9-3.6 6.3-2.1 11.4 7.2 6.8 12.6 13.5 16.2 19.1 10.2 4-4.1 4.8-7.1 3.2-11.7-2.6-7.5-1.8-9.3 7.2-16.1 2.7-2 2.8-2.3 1.4-5-.8-1.6-1.6-3.2-1.8-3.7-.6-1.3.8-.8 3.7 1.4zM866 493c0 1.2-.8 1.2-3.5 0-1.8-.8-1.7-.9.8-.9 1.5-.1 2.7.3 2.7.9zm-106.6.6c1.3.5 1.6 2.6 1.6 12.1 0 10.2.2 11.4 1.5 10.3 1.3-1.1 1.5-.8 1.5 1.6 0 1.6-.5 3.6-1 4.4-.9 1.3-1.3 1.2-3-.8-3.6-4.4-6.2-20.1-4.1-25.5 1.1-2.9 1.2-3 3.5-2.1zm153.6.4c0 .5-.5 1-1.1 1-.5 0-.7-.5-.4-1 .3-.6.8-1 1.1-1 .2 0 .4.4.4 1zm-113 .9c0 .5-.6 1.1-1.4 1.4-.8.3-2 1.8-2.8 3.4-1.3 2.7-1.6 2.8-10.1 3.1l-8.8.3.3-3.8c.3-3.3.7-3.9 3.3-4.4 4.7-1 19.5-1 19.5 0zm473.9 40.5c.1 3.8.1 3.9 2.1 2.1 2.4-2.2 2.5-1.5.6 7-1.2 5-1.4 5.4-1.5 2.6-.1-4.4-1.8-3-2.4 1.9-.2 1.9-.4-9.8-.4-26 .1-30.6.2-29.9 1.6 12.4zm-731.2-37.2c-.3.7-.5.2-.5-1.2s.2-1.9.5-1.3c.2.7.2 1.9 0 2.5zm186.8-2.2c.8 1.3-.5 1.3-2.5 0-1.3-.8-1.3-1 .2-1 .9 0 2 .4 2.3 1zm-17.9 4c.7 1.9 1.4 6.6 1.5 10.4l.4 6.8-4.8 1.9c-4.5 1.8-5 1.8-8 .3-6.3-3.3-15.6-10.5-15.1-11.8 1-2.6 7.8-6.8 15.9-9.7 6.9-2.5 8.8-2.1 10.1 2.1zm18.6.2c5.6 3 8.8 6.7 8.8 10.1 0 2.1-3.3 6-7.8 9.1-3.3 2.2-4.4 2.6-6 1.7-4.7-2.5-5.2-3.8-5.2-13.5 0-5.1.3-9.6.7-9.9 1.2-1.3 3.5-.7 9.5 2.5zm104.4-1.4c.1.7 0 .8-.3.2-.8-1.7-2.3-.1-1.6 1.8.5 1.3.3 1.5-.7.5-1.5-1.4-.5-4.6 1.2-4.1.6.2 1.3 1 1.4 1.6zm-585.4 2.8c2.9 1.5 5.1 4.4 6.3 8.1.6 2 .3 2.3-2.3 2.3-1.7 0-3.7-.9-4.9-2.3-2.2-2.4-6.3-9-6.3-10.1 0-.9 3.5.1 7.2 2zm551.8 2.5c0 2.5-.3 3-1.6 2.5-1-.4-2.5.1-3.5 1-2.3 2.1-2.4 3.4-.4 3.4 3.1 0 1.3 2.2-4.6 5.8-10 6.1-21.8 14.1-33.9 23-13.5 9.9-19.5 13.5-21.2 12.9-.7-.2.3-1.2 2.2-2.2 9.2-4.6 10.8-10.5 2.9-10.5-1 0-1.9.7-1.9 1.5s-.3 1.5-.7 1.5c-.5 0-1.8.3-3 .6-1.4.4-2.3.2-2.3-.4 0-1.8 8.8-7.3 15.5-9.7 10.6-3.9 43.9-24 49.5-30 1.3-1.4 2.5-2.5 2.7-2.5.2 0 .3 1.4.3 3.1zM284 503c0 .6-.7 1.3-1.5 1.6-2 .8-4.8-.3-4-1.6.8-1.3 5.5-1.3 5.5 0zm548.6 3.1c.4.8.1.8-1.4 0-1.2-.6-2.4-1.6-2.8-2.2-.4-.8-.1-.8 1.4 0 1.2.6 2.4 1.6 2.8 2.2zm6.4-1.7c0 .2-.7.6-1.5 1-.8.3-1.5.1-1.5-.4 0-.6.7-1 1.5-1s1.5.2 1.5.4zM239 508c0 1.8-1.9 1.1-3-1.1-1.1-1.9-1-2 .9-.9 1.2.6 2.1 1.5 2.1 2zm36-2c0 .5-.7 1-1.5 1s-1.5-.5-1.5-1c0-.6.7-1 1.5-1s1.5.4 1.5 1zm400.1 2.3c-.8.8-1.1.7-1.1-.4 0-2 1.3-3.4 1.8-1.9.3.7-.1 1.7-.7 2.3zm113.9-1.9c0 .6-8.7 5.6-9.8 5.6-1.1 0-2.2-4.6-1.4-5.5.6-.6 11.2-.7 11.2-.1zM266 509c-.8.5-1.9 1-2.5 1-.5 0-.3-.5.5-1s2-1 2.5-1c.6 0 .3.5-.5 1zm723-.2c0 1.3-2.3 3.2-3.9 3.2-1.1 0-1-.4.4-2 1.9-2.1 3.5-2.6 3.5-1.2zm32.5 1.2c1 1.1 1.4 2 .8 2-.5 0-1.8-.9-2.8-2-1-1.1-1.4-2-.8-2 .5 0 1.8.9 2.8 2zm-23.5-.2c0 1.3-2.3 3.2-3.7 3.2-1.1 0-1.1-.5-.3-2 1-1.9 4-2.8 4-1.2zm-454.5 21c-.4 5.7-.9 10.1-1.2 9.8-.3-.2-.1-7.4.4-15.8.4-8.9.9-13 1.1-9.8.2 3 .1 10.1-.3 15.8zm224.2-16.1c-.3 1-.5.2-.5-1.7s.2-2.7.5-1.8c.2 1 .2 2.6 0 3.5zM243 513.2c0 .6.8 1.7 1.7 2.4 1 .7 1.4 1.6 1 2.1-.5.4-2-.5-3.3-2-2.7-3.2-3.1-4.9-.9-4.1.8.4 1.5 1.1 1.5 1.6zm282.7 5c-.2 1.3-.4.3-.4-2.2s.2-3.5.4-2.3c.2 1.3.2 3.3 0 4.5zM999 515c-1.1 2-3 2.8-3 1.2 0-1.1 2.2-3.2 3.2-3.2.5 0 .4.9-.2 2zm-743.3 2.7c.3 1 1.5 2.8 2.6 4 1.1 1.3 1.8 2.6 1.4 2.9-.8.8-6.7-5.6-6.7-7.3 0-1.9 2-1.6 2.7.4zm433.6 3.3c3.7 2.8 7.3 6.2 8 7.7 1.1 2.4.9 2.8-1.8 4.7-1.6 1.2-4.8 3.8-7.1 5.8-2.2 2.1-4.5 3.8-5 3.8-.8 0-7.8-8.4-9.8-11.8-.8-1.2 2.6-11.3 4.7-14 1.7-2.1 4-1.3 11 3.8zm146.7-4c-2 1.3-5.3 1.3-4.5 0 .3-.6 1.8-1 3.3-1 2.1 0 2.4.2 1.2 1zm155 6.5c-.7 6.4-.7 6.6-.8 2-.2-4.5.7-10.1 1.3-9.3.1.2-.1 3.4-.5 7.3zM4.7 519.2c-.3.8-.6.5-.6-.6-.1-1.1.2-1.7.5-1.3.3.3.4 1.2.1 1.9zm1017.8 1.8c-.3.5-1 1-1.6 1-.5 0-.9-.5-.9-1 0-.6.7-1 1.6-1 .8 0 1.2.4.9 1zM719 522c1.1.7.5 1-2.5 1-7.1 0-12.5 5-14.6 13.5l-.7 3-.1-3.3c-.3-9 11.5-18.3 17.9-14.2zm-465.7 3.2c2.1 2.1 2.8 3.3 1.9 3.6-1.6.5-5.4-2.7-4.6-3.9.3-.5-.4-.9-1.6-.9-1.2 0-1.8-.5-1.5-1 1-1.7 2.5-1.1 5.8 2.2zm485.3 2.2c-.7 4.2-3 8.6-4.5 8.6-2.8 0-2-8.7 1.1-12 2.7-2.9 4.1-1.6 3.4 3.4zm278.2.1c-.3.3-1.3-.7-2.3-2.2l-1.7-2.8 2.3 2.2c1.2 1.2 2 2.5 1.7 2.8zm-727.8-2c0 4.3-6.2 11.7-8.1 9.8-1.4-1.4-.4-4.6 2.8-8.3 2.7-3.2 5.3-3.9 5.3-1.5zm696.7 1c.1.5-.2 1.7-.7 2.5-.8 1.3-1.1 1.3-2.6-.2-.9-.9-1.3-2.1-.9-2.8.8-1.3 3.7-1 4.2.5zM728 527.9c2 3.8 1.3 4.1-8.2 4.1-6.4 0-8.8-.3-7.8-1 .8-.5 3.2-1 5.3-1 2.6 0 3.6-.4 3.1-1.1-.4-.8-2.7-1-6.5-.6-3.3.3-5.9.3-5.9.1 0-1.2 5.3-2.3 11.7-2.3 6.2-.1 7.4.2 8.3 1.8zm-461 1.2c0 1.1-.4 1.7-1 1.4-.5-.3-1-1.3-1-2.1s.5-1.4 1-1.4c.6 0 1 .9 1 2.1zm706.5 1.4c0 2.5-.3 2.5-39.5 6.5-16.8 1.7-35.9 3.7-42.5 4.4-11.2 1.2-13.5 1.2-12.4.2.2-.2 10.1-1.9 21.9-3.7 11.8-1.7 30.5-4.7 41.5-6.5 11-1.8 22.5-3.2 25.5-3.1 4.8.2 5.5.5 5.5 2.2zm70.5-1.6c0 .6-.4 1.3-1 1.6-.5.3-1-.1-1-.9 0-.9.5-1.6 1-1.6.6 0 1 .4 1 .9zm-11 .8c0 1-5.2 3.5-5.8 2.8-.2-.2-.2-1.1.1-2 .6-1.5 5.7-2.2 5.7-.8zM3.7 533.2c-.3.7-.5.2-.5-1.2s.2-1.9.5-1.3c.2.7.2 1.9 0 2.5zm1033.3 2.2c-1.3 1.3-3.5-.7-2.5-2.4.5-.8 1.1-.8 2.1.1 1 .8 1.2 1.5.4 2.3zm-762 .6c0 .5-.5 1-1.1 1-.5 0-.7-.5-.4-1 .3-.6.8-1 1.1-1 .2 0 .4.4.4 1zm715.5 0c-.3.5-2.1 1-3.8 1-2.4 0-2.8-.3-1.7-1 2-1.3 6.3-1.3 5.5 0zm-266.8 1.7c.6 1.6-5.5 5.3-8.4 5.3-2.8 0-2.9-.8-.5-2.7 1.2-1 1.4-1.6.5-1.9-.7-.3-1.3-1-1.3-1.5 0-1.4 9.3-.6 9.7.8zm251.6-1c-.7.2-1.9.2-2.5 0-.7-.3-.2-.5 1.2-.5s1.9.2 1.3.5zm-280.9 4c-3 2.2-3.9 1.5-1.3-1.3 1.5-1.6 2.5-2.1 2.8-1.3.2.7-.4 1.8-1.5 2.6zm269.3-2.1c-.3.3-1.2.4-1.9.1-.8-.3-.5-.6.6-.6 1.1-.1 1.7.2 1.3.5zm-198.3 3.5c.3 1.7.5 5 .5 7.3-.1 2.3-.4 3.1-.6 1.8-.4-1.8-.9-2.1-2.9-1.6-2.1.6-2.4.3-2.4-2.4 0-3.8.9-6.4 2.1-5.6.5.3.9-.2.9-1 0-2.8 1.7-1.7 2.4 1.5zm186.1-2.1c-1.1.5-4.5.8-7.5.8l-5.5-.1 6-.7c8.7-1 9.2-1 7 0zM707 541.4c0 1.1-1.9 1.5-2.5.6-.3-.5.1-1 .9-1 .9 0 1.6.2 1.6.4zm219.3.3c-.7.2-1.9.2-2.5 0-.7-.3-.2-.5 1.2-.5s1.9.2 1.3.5zm-55.6 1.9c-.3.3-1.2.4-1.9.1-.8-.3-.5-.6.6-.6 1.1-.1 1.7.2 1.3.5zm41.6.1c-.7.2-2.1.2-3 0-1-.3-.4-.5 1.2-.5 1.7 0 2.4.2 1.8.5zm-57.5 1c-1 .2-2.8.2-4 0-1.3-.2-.5-.4 1.7-.4 2.2-.1 3.2.1 2.3.4zM268.5 548c-1 1.1-2.8 2-3.9 1.9-2.1 0-2.1 0-.1-.9 1.2-.4 2.7-1.5 3.4-2.4.8-.9 1.6-1.4 1.9-1.1.3.3-.3 1.4-1.3 2.5zm421.7-1.3c2.3 2.1 2.6 5.2.2 3.3-1.8-1.6-3.8-5-2.8-5 .4 0 1.6.7 2.6 1.7zM6.9 562.6c.6 5.5 1.5 11.2 2.1 12.5 1.1 2.4 1 .8-.5-17.6-.4-3.9-.2-5.3.3-4 .5 1.1 1.2 5.1 1.6 9 1.4 13.6 4.8 33.8 6.7 39.9 2.1 7 2.4 10 .8 9-3.1-1.9 4.8 20.1 13.5 37.6 10.7 21.5 24.3 41.7 39.8 59 13.2 14.9 15.4 17.5 12.8 15.5-3.8-2.9-19.2-20-26.1-29-18-23.6-31.9-49.9-41.3-78-5.9-17.9-12.8-55.5-12.5-68 .1-3 .1-3 .9.5.5 1.9 1.3 8 1.9 13.6zm875.8-16c-.9.9-45.7 6.1-45.7 5.3 0-.9 4.2-1.6 22.7-3.9 15.7-1.9 24-2.4 23-1.4zm99 2c-.9.9-2.8-.6-2.1-1.8.4-.6 1-.6 1.7.1.6.6.8 1.3.4 1.7zM524.6 558c-.7 11.5-2.7 23.7-4.5 28-1.1 2.5-1.1 2.4-.7-.5.2-1.7 1.1-6.8 1.9-11.5.8-4.7 1.8-12.7 2.2-17.8.4-5 1-9.2 1.3-9.2.3 0 .2 5-.2 11zm202.3-9.9c7 2.4 7 11.8.1 15.4-4.6 2.4-7.5 1.9-10.9-2-3.3-3.8-3.8-6-2-9.9 1.9-4.2 6.9-5.6 12.8-3.5zm-22.7 3.9c-.2 2.2-.8 4.2-1.3 4.5-1.4.9-5.9-.6-5.9-2 0-1.2 5.7-6.5 7-6.5.3 0 .4 1.8.2 4zm242.3-2.3c-2.7.8-7 1.7-9.5 1.9-22.7 1.9-27.1 2.7-30.7 5.6-3.7 2.9-5.6 3.1-3.3.3 1.1-1.3.7-1.5-3.2-1.5-2.5 0-7 .5-9.9 1.1-3 .6-8.1 1.2-11.3 1.4-3.3.2-8.9 1-12.5 1.9-3.6.8-12.2 2-19.1 2.6-6.9.6-20.1 2.2-29.5 3.5-9.3 1.4-21.4 2.8-26.9 3.2-9.3.6-9.8.5-9.4-1.3.5-2.6 7-3.9 33.3-6.4 12.1-1.1 42.3-4.3 67-7 51.1-5.7 61.6-6.7 66.5-6.8 3.3 0 3.2.1-1.5 1.5zm54.2-1.1c-.3.3-1.2.4-1.9.1-.8-.3-.5-.6.6-.6 1.1-.1 1.7.2 1.3.5zM969 550c0 .5-1.4 1-3.1 1-1.7 0-2.8-.4-2.4-1 .3-.6 1.7-1 3.1-1 1.3 0 2.4.4 2.4 1zm-138.6 3c-1.1.4-11.5 1.6-23 2.5-11.5.9-24 2-27.9 2.5-3.8.5-8.1.9-9.5.9-2.3 0-2.4-.1-.4-.9 3.5-1.4 45.3-5.5 58.9-5.8 3.1-.1 3.5.1 1.9.8zm123.6-.6c0 .2-.7.6-1.5 1-.8.3-1.5.1-1.5-.4 0-.6.7-1 1.5-1s1.5.2 1.5.4zm-413.4 4.8c-.3 1.8-.8 6.4-1.1 10.3-.7 7.1-3.1 24.1-4.2 28.2-.4 1.9-.1 2.3 1.7 2.3 1.2 0 2 .5 1.8 1.2-.7 2.1-2.6 2-3.8-.2-.8-1.6-.6-5.4.9-16.3 1.1-7.8 2.3-17.5 2.7-21.5.4-3.9 1.1-7.2 1.6-7.2s.7 1.5.4 3.2zm395.9-2.2c-.3.5-1.5 1-2.6 1-1 0-1.9-.5-1.9-1 0-.6 1.2-1 2.6-1 1.4 0 2.3.4 1.9 1zm-16.5 1c0 .5-.5 1-1.1 1-.5 0-.7-.5-.4-1 .3-.6.8-1 1.1-1 .2 0 .4.4.4 1zm354.1 7c-.9 2.3-1 2.3-1-1.2-.1-2 .2-4.5.7-5.5.6-1.4.8-1.2 1 1.2.2 1.7-.1 4.2-.7 5.5zm-515.4-3.4c-.3.3-1.2.4-1.9.1-.8-.3-.5-.6.6-.6 1.1-.1 1.7.2 1.3.5zm115.8 3.4c-.3.5-1.6 1-2.8 1-1.8 0-1.9-.2-.7-1 2-1.3 4.3-1.3 3.5 0zm-207.2 2.3c.8 2 0 2.9-9.3 9.5-4.7 3.3-10.1 7.7-12 9.7-3.4 3.6-10.7 8.1-11.6 7.2-.3-.2 1.8-2.3 4.6-4.7 8.2-6.9 5.8-10.5-3.2-4.7-2.9 1.9-7.1 3.8-9.3 4.2-2.2.4-3.8.5-3.5.2 1.6-1.6 21.8-12.7 23-12.7.9 0 5.2-2.2 9.5-5 8.3-5.1 10.9-5.9 11.8-3.7zm7.7.9c0 .6-.6.5-1.5-.2-.8-.7-1.5-1.4-1.5-1.6 0-.2.7-.1 1.5.2.8.4 1.5 1.1 1.5 1.6zm185.1-1.3c-1.2.8-5.1.4-5.1-.5 0-.2 1.5-.4 3.3-.4 2.2 0 2.8.3 1.8.9zm-12.6 2.1c-2.8 1.2-6.7 1.2-6 0 .3-.6 2.3-1 4.3-.9 3 0 3.3.2 1.7.9zm422.1 3.2c-1.2 7.9-4.9 22.3-5.3 21-.5-1.3 4.7-25.2 5.5-25.2.2 0 .2 1.9-.2 4.2zM769.7 576c4.8 16.9 10.8 33.5 12.1 33.5 1.7 0 3.2 2.4 3.2 5.2 0 1.2.4 2.3.8 2.5.7.3 8.2 15.4 8.2 16.5 0 .3-.7 0-1.5-.7s-1.5-.9-1.5-.4c0 1.5 10.8 23.3 14.5 29.4 5.1 8.4 4.3 8.7-1.2.5-9.8-14.6-24.1-47.3-32.8-75-2.6-8.3-5-15.7-5.5-16.5-.8-1.7-2.6-1.1-2.3.8.1 1.7-4.1 3.7-6.1 2.9-2.3-.9-1.9-4.3.7-6.2 1.2-.9 3.7-1.4 5.6-1.3 3.3.3 3.4.4 5.8 8.8zm62.8-7c-.3.5-2.3 1-4.3 1-2.8 0-3.3-.3-2.2-1 2-1.3 7.3-1.3 6.5 0zm-16.8 2.6c-.3.3-1.2.4-1.9.1-.8-.3-.5-.6.6-.6 1.1-.1 1.7.2 1.3.5zm-106.2 2.9c-3.4 2.8-3.5 2.8-9 1.5-2.5-.6-4.4-.5-5.1.1-1.3 1-5.4-.8-5.4-2.3 0-1.2 7.6-.9 10.4.3 2 1 2.8.9 4.1-.5.9-.9 3.1-1.6 4.8-1.6l3.2.1-3 2.4zm24.5-1.6c0 1-11.9 4.5-12.7 3.8-.7-.8 3-2.6 7.4-3.6 5.2-1.2 5.3-1.2 5.3-.2zm39.9 4.6c-.1 2.9-.1 2.9-.9.5-.4-1.4-.8-3.4-.9-4.5-.1-1.6.1-1.7.9-.5.5.8.9 2.8.9 4.5zm28.6-4.5c-.3.5-2.3.9-4.3.9l-3.7-.1 3-.8c4.4-1.1 5.7-1.1 5 0zM685 576.2c0 1.3-2.3.5-2.8-1-.2-.7.2-1 1.2-.6.9.3 1.6 1.1 1.6 1.6zm57.5-.1c-.4.5-1.3.9-2.2.9-1.3 0-1.3-.3-.3-1.5 1.3-1.5 3.5-1.1 2.5.6zm529.2 2.1c-.3.8-.6.5-.6-.6-.1-1.1.2-1.7.5-1.3.3.3.4 1.2.1 1.9zM629 579.5c0 .8-.4 1.5-1 1.5-.5 0-1-.7-1-1.5s.5-1.5 1-1.5c.6 0 1 .7 1 1.5zm-27.6 5.2c-.9 5.2-1.4 5.4-1.4.5 0-2.3.5-4.2 1-4.2.7 0 .8 1.4.4 3.7zm94.1-2.7c.8 1.3-.5 1.3-2.5 0-1.3-.8-1.3-1 .2-1 .9 0 2 .4 2.3 1zm22.8-.3c-.7.2-2.1.2-3 0-1-.3-.4-.5 1.2-.5 1.7 0 2.4.2 1.8.5zm19.7.3c-2 1.3-5.3 1.3-4.5 0 .3-.6 1.8-1 3.3-1 2.1 0 2.4.2 1.2 1zm-27 4c0 .5-.9 1-1.9 1-1.1 0-2.3-.5-2.6-1-.4-.6.5-1 1.9-1s2.6.4 2.6 1zm-182.2 2c2.3 2.2 2.8 5.5 1.3 7.9-.8 1.2-1.4 1.2-4 .2-3.2-1.4-3.9-2.9-3.3-7.4.5-3.3 2.9-3.6 6-.7zm77.2-.4c0 .2-.7.4-1.5.4s-1.5-.4-1.5-1c0-.5.7-.7 1.5-.4.8.4 1.5.8 1.5 1zm12 4c-.8.8-2.3 2-3.4 2.6-1.9 1-1.8.8.3-1.6 2.6-2.7 5.3-3.7 3.1-1zm-13.5 2.4c-.3.5-1.1 1-1.6 1-.6 0-.7-.5-.4-1 .3-.6 1.1-1 1.6-1 .6 0 .7.4.4 1zm22 .1c1.6.7 1.4.9-1.2.6-1.8-.2-3.3.1-3.3.6 0 .6-.3.8-.6.4-.9-.8.5-2.7 1.9-2.6.7 0 2.1.5 3.2 1zM641 596c0 .5-.4 1-1 1-.5 0-1-.5-1-1 0-.6.5-1 1-1 .6 0 1 .4 1 1zm139.4 3.7c.9 2.5 1.4 4.9 1.1 5.1-.5.5-1.8-2.7-2.9-7.1-1-4.3.1-3.1 1.8 2zm-167.6-.5c-.3.7-1.1 1.3-1.8 1.3s-1.5-.6-1.7-1.3c-.3-.7.4-1.2 1.7-1.2 1.3 0 2 .5 1.8 1.2zm32.7-.2c-.3.5-1.1 1-1.6 1-.6 0-.7-.5-.4-1 .3-.6 1.1-1 1.6-1 .6 0 .7.4.4 1zm615.6 2.7c-.8 1.5-1 1.5-1.1.2 0-1.7 1-3.2 1.8-2.5.2.3-.1 1.3-.7 2.3zM508 613c-1.6 4-2.3 3.3-.9-.9.6-1.8 1.4-3 1.7-2.7.2.3-.1 1.9-.8 3.6zm3.5 1c-.4 1.2-.9 1.9-1.2 1.7-.3-.3-.2-1.5.2-2.7.4-1.2.9-1.9 1.2-1.7.3.3.2 1.5-.2 2.7zm17.5.1c-.7 1.1-1.4 1.9-1.6 1.6-.7-.7.7-3.7 1.7-3.7.6 0 .5.9-.1 2.1zm731.5 2.6c-1.6 3.8-3.3 6.2-2.2 3 .4-1.1 1-3 1.3-4.3.3-1.3 1-2.4 1.5-2.4s.2 1.7-.6 3.7zM505.3 620c-.5 1.9-2.3 3.9-2.3 2.5 0-.9 2-4.5 2.4-4.5.2 0 .2.9-.1 2zm748.3 2.7c-2.2 6.1-6.6 15.5-8.3 17.7-1.5 2.1-1.5 2.1-.8-.1.9-3.2 9.4-21.3 10-21.3.2 0-.2 1.7-.9 3.7zM24.9 624.8c.5 1.8.6 3.2.1 3.2-.4 0-1.1-1.1-1.4-2.4-.3-1.3-.9-3.2-1.2-4.3-.5-1.3-.4-1.5.5-.7.6.6 1.5 2.5 2 4.2zm1230.6 3.9c-4.9 11.6-19.2 36.1-28.3 48.3-15.8 21.2-41.1 46.8-57.7 58.5l-4 2.8 3.6-3.4c1.9-1.9 7.4-6.7 12.2-10.8 8.9-7.5 14.7-13.5 14.7-15.1 0-.5-2.3 1.4-5.2 4.1-17.6 16.9-49.9 37.5-73.6 46.8-15.4 6.1-50.6 16.1-51.9 14.7-.3-.3 1.2-.9 3.3-1.5 30.4-7.8 43-12.1 60.9-20.7 31.3-15 54.6-32.8 81.5-61.9 4.5-5 6.5-6.8 4.4-4-2.1 2.7-6.9 8.5-10.8 12.8-3.8 4.2-6.7 8-6.4 8.3.9.9 15.7-15.7 25.2-28.2 8.6-11.6 17.6-26.1 28-45.7 4.9-9.1 6.7-11.3 4.1-5zm-753.3-.5c-.7.7-1.2.8-1.2.2 0-1.4 1.2-2.6 1.9-1.9.2.3-.1 1.1-.7 1.7zm.4 9.2c-.8 2-1.8 3.6-2.1 3.6-.3 0 .2-1.6 1-3.6s1.5-3.9 1.5-4.2c0-.3.3-.3.6 0s-.2 2.2-1 4.2zm-4.2-.9c-.4.8-.8 1.5-1 1.5-.2 0-.4-.7-.4-1.5s.4-1.5 1-1.5c.5 0 .7.7.4 1.5zm-.6 10.7c-.6 1.8-1.3 2.7-1.5 2.1-.4-1.1 1.3-5.3 2.2-5.3.2 0-.1 1.5-.7 3.2zm302.6-1.7c.3.8.1 1.5-.4 1.5-.6 0-1-.7-1-1.5s.2-1.5.4-1.5.6.7 1 1.5zm439.6 4.4c-2.8 5.6-3.5 5.2-.8-.4 1.2-2.4 2.3-4.3 2.6-4.1.2.2-.6 2.2-1.8 4.5zM491 652c-.6 1.1-1.3 2-1.6 2-.2 0 0-.9.6-2s1.3-2 1.6-2c.2 0 0 .9-.6 2zm313.5 0c.3.5.1 1-.4 1-.6 0-1.1-.5-1.1-1 0-.6.2-1 .4-1 .3 0 .8.4 1.1 1zm3.9 7.9c-.6.6-2.4-1.9-2.4-3.4.1-.6.7-.1 1.5.9.8 1.1 1.2 2.2.9 2.5zm425.6.6c-.7.9-1.5 1.3-1.8 1-.3-.2.1-1.1.8-2 .7-.9 1.5-1.3 1.8-1 .3.2-.1 1.1-.8 2zM484.5 664c-.9 1.8-1.9 3-2.2 2.7-.3-.3.3-1.9 1.3-3.6 2.3-3.9 3-3.2.9.9zm329.9 5c-.6.5-2.4-2.1-2.4-3.4 0-.6.6-.1 1.4 1 .8 1 1.2 2.1 1 2.4zm412.7 1.6c-1.1 1.5-2.1 2.4-2.1 2 0-1.2 3.3-5.7 3.7-5.2.3.3-.4 1.7-1.6 3.2zm-748.7 3.1c-3.3 5.2-9.5 13.3-10 13.3-.7 0 1.6-3.6 6.8-10.8 4-5.4 6.3-7.2 3.2-2.5zm341.7 2.5c1.6 2.9.2 2.1-2.2-1.5-1.7-2.3-1.8-2.8-.6-1.8 1 .8 2.3 2.3 2.8 3.3zm-6-1c1.1 2.1 1.1 2.2-.4.9-1-.7-1.7-1.7-1.7-2.2 0-1.5.9-1 2.1 1.3zm13.3 11.7c-.6.6-2.4-1.9-2.4-3.4.1-.6.7-.1 1.5.9.8 1.1 1.2 2.2.9 2.5zm-362.8 4.9c-1.8 1.6-1.8 1.6-.6-.6.6-1.3 1.4-2.1 1.8-1.8.3.4-.2 1.4-1.2 2.4zm-6.4 8.4c-.7.7-1.2.8-1.2.2 0-1.4 1.2-2.6 1.9-1.9.2.3-.1 1.1-.7 1.7zm6.8-1.8c0 .3-.4.8-1 1.1-.5.3-1 .1-1-.4 0-.6.5-1.1 1-1.1.6 0 1 .2 1 .4zm374.1 1.3c1.3 1.6 1.2 1.7-.3.4-1-.7-1.8-1.5-1.8-1.7 0-.8.8-.3 2.1 1.3zm-386.9 7.5c-.7.7-1.2.8-1.2.2 0-1.4 1.2-2.6 1.9-1.9.2.3-.1 1.1-.7 1.7zm403.8 9.4l3.5 3.8-5-4.1c-2.7-2.3-6.6-5.8-8.5-7.9l-3.5-3.8 5 4.1c2.8 2.3 6.6 5.8 8.5 7.9zm-410-2.7c-1.1 2.1-3 3.7-3 2.5 0-.8 3-4.4 3.7-4.4.2 0-.1.9-.7 1.9zm400.5-.9c.3.5.1 1-.4 1-.6 0-1.1-.5-1.1-1 0-.6.2-1 .4-1 .3 0 .8.4 1.1 1zm-407.4 7.8c-1.2 2.2-5.1 5.8-5.1 4.7 0-.9 5-6.5 5.7-6.5.2 0-.1.8-.6 1.8zm5.9-1.4c0 .2-.8 1-1.7 1.7-1.6 1.3-1.7 1.2-.4-.4 1.3-1.6 2.1-2.1 2.1-1.3zm416.7 6.8c.3.7-.8.2-2.5-1-1.7-1.3-3.5-2.8-3.9-3.4-.3-.7.8-.2 2.5 1 1.7 1.3 3.5 2.8 3.9 3.4zm33.4 17.5c5.9 3.3 17.9 9.2 26.8 13.3 15.7 7.2 20.9 10.5 9.4 6-18.6-7.3-58.5-29.8-63.8-36-1.1-1.3 2.3.7 7.5 4.3 5.2 3.6 14.3 9.2 20.1 12.4zM1163 740c0 .5-.7 1-1.6 1-.8 0-1.2-.5-.9-1 .3-.6 1-1 1.6-1 .5 0 .9.4.9 1zm-746 3.5c-1.3 1.4-2.7 2.5-3.2 2.5-.9 0 4.2-4.9 5.1-5 .3 0-.6 1.1-1.9 2.5zm-10 2.9c0 .7-11.1 7.8-11.6 7.4-.2-.3 1.9-2.1 4.8-4.1 5-3.4 6.8-4.2 6.8-3.3zm-1 5.6c-.8.5-1.9 1-2.5 1-.5 0-.3-.5.5-1s2-1 2.5-1c.6 0 .3.5-.5 1zm-14 4c0 .5-.5 1-1.1 1-.5 0-.7-.5-.4-1 .3-.6.8-1 1.1-1 .2 0 .4.4.4 1zm5.5 2c-.3.5-1.1 1-1.6 1-.6 0-.7-.5-.4-1 .3-.6 1.1-1 1.6-1 .6 0 .7.4.4 1zM132 759c0 .5-.2 1-.4 1-.3 0-.8-.5-1.1-1-.3-.6-.1-1 .4-1 .6 0 1.1.4 1.1 1zm254 5.5c-1.4.8-2.9 1.4-3.5 1.4-.5 0 .1-.6 1.5-1.4 1.4-.8 3-1.4 3.5-1.4.6 0-.1.6-1.5 1.4zm-8.5.5c-.3.5-1.4 1-2.3 1-1.5 0-1.5-.2-.2-1 2-1.3 3.3-1.3 2.5 0zm-10.9 4.9c-.8 1.2-6.6 3.2-6.6 2.2 0-.4 1.5-1.3 3.3-1.9 1.7-.5 3.3-1 3.5-1.1.2-.1.1.3-.2.8zm2.9 2.6c-1.6.8-3.7 1.4-4.5 1.4-.8 0-.1-.6 1.5-1.4 1.7-.7 3.7-1.3 4.5-1.3.8 0 .2.6-1.5 1.3zm-9.1 4.5c-.5.5-2.5 1.2-4.4 1.5l-3.5.5 3-1.4c3.5-1.8 6.4-2.1 4.9-.6zm-14.6.5c-1.8 1.9-41.3 11.3-42.5 10.1-.2-.2 4-1.4 9.4-2.6 5.4-1.2 14.5-3.4 20.3-5 10.5-2.8 13.8-3.4 12.8-2.5zm-1.8 5.6c-5.8 2.3-35 9-41.5 9.4-5.9.4-4.5 0 9-2.9 8.8-1.9 19.4-4.4 23.5-5.4 8.4-2.2 13.2-2.8 9-1.1zm-127.7 2.6c3.8.8 6.6 1.7 6.4 2-.7.6-18.9-2.7-20.7-3.9-1.8-1.1 4.7-.2 14.3 1.9zm48.2 3.7c20.5 0 28.1.3 24 .9-9.8 1.3-58.2.4-59.7-1.2-1.1-1.1-.7-1.2 2.2-.5 1.9.4 17 .8 33.5.8z"/><path d="M725.2 26.7c-1.9.7-.4 2.3 2.3 2.3 2.9 0 4.1-1.6 1.9-2.4-1.8-.7-2.3-.7-4.2.1zm-5.5 10c-1.5.3-2.5.9-2.2 1.4.8 1.2 9.2 1.2 10-.1.3-.6 0-1-.9-1-.8 0-2-.2-2.8-.3-.7-.2-2.5-.2-4.1 0zm284.9 245.5c-.9 6.8.5 49.3 1.5 47.6 1.2-1.7 1.1-51.5 0-52.2-.5-.3-1.2 1.7-1.5 4.6zm33.2-3.7c-.6 1-2.2 18.7-3.3 36-.7 12.8.9 7.8 2.9-9 1.6-13.2 1.9-29.2.4-27zm-65.3 9.7c1.9 17.8 7.2 47.6 7.4 42 .1-1.7-4.8-42-5.5-45.5-.3-1.5-1-2.7-1.6-2.7-.6 0-.8 2.2-.3 6.2zm98.2.3c-1 2.2-4.5 12.8-7.8 23.5s-7.1 22.8-8.5 26.9c-2.5 7.4-2.7 9.3-.5 6.8 2-2.5 19.2-55.8 18.9-58.6-.4-2.5-.5-2.4-2.1 1.4zM940 295.7c0 1.8 3.5 10.3 4.2 10.3 1 0 1.1.2-.7-5.8-.9-2.9-2-5.2-2.5-5.2-.6 0-1 .3-1 .7zm164.5 2.3c-.9 1.7-7.2 16.9-14.1 33.7-6.9 16.8-16.2 39.1-20.8 49.7-12.5 28.8-17.6 41-17.6 42.1 0 2.7 3.1-3.6 14.1-29 6.6-15.4 18.4-42.6 26.1-60.5 7.7-17.9 14.7-34 15.4-35.8 1.2-2.8 1.2-3.2-.1-3.2-.8 0-2.2 1.4-3 3zM913 318.9c3.5 6.6 6.9 12.6 7.7 13.3.8.6-1.6-4.7-5.2-11.8-3.7-7.1-7.1-13.1-7.7-13.3-.6-.2 1.8 5.1 5.2 11.8zm33-3.4c0 .8.5 1.5 1 1.5.6 0 1-.7 1-1.5s-.4-1.5-1-1.5c-.5 0-1 .7-1 1.5zm4 9.9c0 .7 7.1 24.6 8.5 28.5.3.8.8 1.2 1 .9.3-.3-1-5.6-2.9-11.9-3.3-11-6.5-19.4-6.6-17.5zm-27 11c0 1.6 10.3 21.7 10.8 21.2.3-.3-1.4-4.4-3.6-9.1-4.2-8.6-7.2-13.7-7.2-12.1zm57 1c0 1.7 4.3 35 5.6 43.5.3 1.8.8 3 1.1 2.7.3-.3.1-4.7-.6-9.8-.6-5.1-1.8-15.2-2.7-22.3-.9-7.2-2-13.7-2.5-14.5-.7-1.2-.8-1.2-.9.4zm26.6 12.8c.4 6.2.8 11.5 1 11.7.2.2.4-4.8.4-11.2 0-7.3-.4-11.7-1-11.7-.7 0-.8 3.9-.4 11.2zm23.4 1.8c0 .5.5 1 1 1 .6 0 1-.5 1-1 0-.6-.4-1-1-1-.5 0-1 .4-1 1zm-92.9 12.5c0 1.1.4 2.7.9 3.5.9 1.3 1 1.3.9 0 0-.8-.4-2.4-.9-3.5l-.9-2v2zm107.4 6.6c-.6 1.9 0 3.8.9 2.8 1-1.2 1.6-4.9.7-4.9-.5 0-1.3.9-1.6 2.1zM943 377.5c0 1.3 3.2 6.6 3.6 6.2.6-.6-2.3-6.7-3.1-6.7-.3 0-.5.2-.5.5zm98.9 4.2c-.5 1.4-.8 3.4-.7 4.2.2.9.9-.3 1.5-2.7 1.2-4.7.8-5.6-.8-1.5zm-32.8 6.9c0 1.1.3 1.4.6.6.3-.7.2-1.6-.1-1.9-.3-.4-.6.2-.5 1.3zm29.6 3.1c-.4.3-.7 1.1-.7 1.7 0 .6.5.5 1.2-.2.6-.6.9-1.4.7-1.7-.3-.3-.9-.2-1.2.2zm-4 13.3c-.9 3.5-1.4 6.6-1.2 6.8.6.7 3.7-10.7 3.3-12-.3-.7-1.2 1.7-2.1 5.2zm-77.7-.5c0 .8.4 1.5 1 1.5.5 0 .7-.7.4-1.5-.4-.8-.8-1.5-1-1.5-.2 0-.4.7-.4 1.5zm33.6 5.5c.4 4.1 1 8.2 1.5 9 1.4 2.4 1-3.6-.6-10.5l-1.4-6 .5 7.5zm-13.9-1c.3 1.9 1.2 4.8 1.9 6.5l1.4 3-.4-3.1c-.3-1.8-1.2-4.7-2-6.5l-1.5-3.4.6 3.5zm32.4 14.6c.1 8.2.5 16 .9 17.4.5 1.4.6-4.8.3-14.5-.3-9.4-.7-17.2-.9-17.4-.2-.2-.4 6.3-.3 14.5zM961.5 413c1.6 4.9 3.6 9.2 4.2 8.6.8-.7-2.5-9.4-3.9-10.2-.6-.4-.8.2-.3 1.6zm21 14c.6 3.9 2.5 6.6 2.5 3.4-.1-1-.8-3-1.6-4.4l-1.5-2.5.6 3.5zm66.4 3.5c-1.1 2.5-1.9 5.4-1.7 6.3.2.9 1.3-1.1 2.5-4.6 2.5-7.3 2.1-8.2-.8-1.7zm-62.7 6.6c.3.8 1.3 3.8 2.2 6.6 1 2.9 2.2 5.6 2.8 6 .7.4.9.1.6-.8-.3-.8-1.3-3.8-2.2-6.6-1-2.9-2.2-5.6-2.8-6-.7-.4-.9-.1-.6.8zm56.5 6.5c-.4.4-.7 1.7-.7 2.8.1 1.9.1 2 1.1.3 1.1-1.9.8-4.3-.4-3.1zm-61.6 9.3c2.3 4.6 4.5 7.9 4.7 7.3.6-1.8-3.8-10.9-6.5-13.4-2.3-2-2-1.2 1.8 6.1zm15.5-5.7c3.5 23.5 5.7 36.9 6.3 39.3.7 2.7.9 2.8 1.6 1.1.9-2-6-40.3-7.5-41.9-.4-.5-.6.2-.4 1.5zm13.6 6.3c0 2.7.4 6.1.8 7.5.6 2 .8 1.4.8-2.5 0-2.8-.4-6.1-.8-7.5-.6-2-.8-1.4-.8 2.5zm29.4-1.3c-1.8 2.5-2.1 5.3-.5 4.3 1.2-.8 3.2-5.6 2.5-6.2-.2-.2-1.1.6-2 1.9zm-14.1 13.8c-.4.6-.3 1.6.3 2.2.6.6 1.2.6 1.7-.2.4-.6.3-1.6-.3-2.2-.6-.6-1.2-.6-1.7.2zm-4.7 2c-.4 1.4-.8 5-.7 8 0 4.6.2 5.1 1 3 .5-1.3.9-4.9.7-8-.2-4.2-.5-4.9-1-3zM261.5 291.1c-.3 3-.2 14.8.4 26.4.6 11.5 1.1 21.6 1.1 22.2 0 .7.5 1.3 1.1 1.3 1.5 0 .8-52.5-.8-54.1-.8-.8-1.3.2-1.8 4.2zm-27.9 9.4c.8 15.8 4 43 5.3 45.2 1.7 3 1.4-3.8-1.4-29.2-2.9-25.6-4.9-33.7-3.9-16zm63.5-7.3c-1.9 6-5.1 21.8-9.7 47.6-2.4 14.2-5.6 31.4-6.9 38.5-2.6 13.1-3.2 20.1-1.4 14.2 1.4-4.5 18.8-91.4 19.5-97.9.8-6.2.1-7.3-1.5-2.4zM196 296c0 2.9 27.5 102.1 30.4 109.5l1.6 4-.6-4c-.3-2.2-3.9-16.8-8-32.5-14.5-55.4-23.2-84.1-23.4-77zm128.3 8.5c-1.8 5.5-5.1 16.7-7.3 25-2.3 8.2-6.1 21.9-8.6 30.4-2.5 8.4-4.3 15.5-4.1 15.8 2 2 24.2-72.5 23.5-78.7-.2-1.7-1.4.8-3.5 7.5zm28.4 4.2c-3.7 7.1-14.8 34.6-14.4 35.6.3.7 1-.1 1.6-1.8.7-1.6 2.8-6.3 4.8-10.5 4.6-9.7 10.6-25.1 9.9-25.7-.2-.3-1.1.8-1.9 2.4zM164 312c0 .9 4.3 10.5 9.6 21.5 18.1 37.7 32.1 68 43.9 94.5 12.7 28.9 20.7 45 21.3 43.2.2-.6-2.1-6.4-5.1-12.9-3-6.5-7.2-15.9-9.3-20.8-2-5-8.2-18.5-13.7-30-5.4-11.6-11.5-24.6-13.3-28.9-6.4-14.6-30.6-65.1-32-66.6-1.2-1.2-1.4-1.2-1.4 0zm-31.7 13.3c2 5.2 36.6 59.1 37.4 58.3.5-.5-7.5-14.9-12.4-22.1-1.8-2.7-3.3-5.3-3.3-5.8 0-1.2-19.9-30.5-21.2-31.3-.7-.5-.9-.2-.5.9zM263 368.2c0 14.8.4 21.8 1 20.8 1.3-2 1.3-41.7 0-42.5-.7-.4-1 7.1-1 21.7zm-143.4-9.5c15.5 15.2 37 34.3 35.6 31.6-1.1-2.1-21.7-21.8-36.2-34.7-12.5-11.2-12.2-9.4.6 3.1zm121.9 11.8c.5 13.9 3.5 39.5 4.7 39.5 1.2 0 1-4.9-1.2-22.9-3.3-27.6-4-30.6-3.5-16.6zM82 368.4c0 2 5.2 6.2 38.7 30.9 29.8 22.1 33.3 24.4 33.3 22.9 0-1.1-11.1-9.8-44.9-35.3C80.8 365.6 82 366.4 82 368.4zm217.8 22.1c-1 2.7-3.3 11.4-5.2 19.2-2 7.7-4 15.3-4.6 16.8-.9 2.3-.8 2.6.7 2.3 1.8-.3 4.3-8.3 9.3-30.2 2.5-10.6 2.3-15.7-.2-8.1zM175.5 394c.3.5.8 1 1.1 1 .2 0 .4-.5.4-1 0-.6-.5-1-1.1-1-.5 0-.7.4-.4 1zm100.2 7.6c-.3.6-.9 3-1.3 5.4-.9 5.3 1.2 4.8 2.2-.5.7-3.7.2-6.6-.9-4.9zM167 402.9c0 .6.5 1.3 1 1.6.6.3 1-.1 1-.9 0-.9-.4-1.6-1-1.6-.5 0-1 .4-1 .9zm79.5 16.7c.3 2.7 1.2 13.2 2.1 23.4.8 10.2 1.8 19.5 2.1 20.7.8 3.5 2.3 2.7 2.3-1.3 0-6.3-5.1-45.9-6-46.8-.6-.6-.8 1.1-.5 4zm26.2-1.1c-3.9 12.2-6 24.2-3.7 21.9 1.2-1.2 5.2-20.1 4.7-22.3-.2-1.3-.4-1.2-1 .4zM233 432.7c7.2 27.9 10.4 38.2 11.7 37 .5-.6-7.4-31.5-11.2-43.6-4.3-13.4-4.6-9.1-.5 6.6zm-68.1-1.5c1.5 2 22 17.5 26.6 20.3 8.5 5-15.1-13.9-25-20.1-2.6-1.6-2.8-1.6-1.6-.2zm-115.4.6c.6.6 14.1 6.6 30 13.5 47.6 20.5 102.7 44.4 107.5 46.6 4.5 2.1 9.6 2.8 8.6 1.3-.3-.5-8.3-4.2-17.8-8.2-9.5-4-27.9-12-40.8-17.8-66.2-29.3-91.5-39.5-87.5-35.4zM218 448.7c1.1 1.5 3.1 3.3 4.3 4.1 1.2.8.4-.4-1.8-2.6-4.5-4.8-5.6-5.5-2.5-1.5zm-20 7.7c0 .7 18.9 16.8 22.8 19.5 3.2 2.3 5.1 2.3 3.7.2-.3-.6-3.2-2.9-6.3-5-3.1-2.2-8.6-6.4-12.2-9.5-5.9-5.1-8-6.4-8-5.2zm-166 3.2c0 1.3 8.8 3.8 39.6 11.4 44 10.9 58.6 13.9 56.3 11.5-.6-.6-92.6-23.5-94.5-23.5-.8 0-1.4.2-1.4.6zM133.5 484c.3.5 1.6 1 2.8 1 1.8 0 1.9-.2.7-1-2-1.3-4.3-1.3-3.5 0zm8.5 1.8c0 1.2-1.5.7 28 8.2 12.9 3.2 30.7 7.7 39.4 9.9 16.7 4.3 19.6 4.7 19.6 3.1 0-1.4-11.7-4.6-38.3-10.6-13.1-2.9-27.7-6.4-32.5-7.8-11.4-3.2-16.2-4.1-16.2-2.8zm176.4 2c-5.7 4.2-11.8 10.1-11.1 10.9.7.6 4.8-2.3 11.7-8.5 5.4-4.8 5-6.4-.6-2.4zm-9.2-.6c-1.6 2.1-4.2 7.6-4.2 9 0 1.4 2.8-3 4.8-7.5 1.2-2.9 1.1-3.5-.6-1.5z"/><path d="M321.5 492.8c-4.4 2.6-9.8 6-12 7.5-4.8 3.3-5.5 3.3-5.5.5 0-2-.1-2.1-1.6-.7-1.4 1.5-4.5 9.1-3.9 9.7.4.4 7.1-3.6 12.6-7.5 2.6-1.8 5.5-3.3 6.5-3.3 1.9-.1 14.7-10.9 12.9-11-.5 0-4.6 2.2-9 4.8zM24 495c0 1-1.1.8 28 5.6 27.5 4.4 56.1 9.6 77 13.9 9.1 1.9 24.2 4.6 33.5 6 9.4 1.5 28.4 4.9 42.2 7.6 23.8 4.6 41.3 7.2 42.2 6.3 1.1-1.1-8.3-3.5-22.9-5.9-9.1-1.4-27.1-4.6-40-7.1-12.9-2.5-28-4.9-33.5-5.4-5.5-.4-11.3-1.3-12.8-1.9-4.5-1.7-13.8-3.7-47.2-9.6-33.6-6.1-60.7-10.5-64.2-10.5-1.3 0-2.3.4-2.3 1zm331.5 9.1c-1.1 1.7 0 2 2.1.4 1.7-1.3 1.7-1.4.2-1.5-.9 0-2 .5-2.3 1.1zm-8 2.9c-.3.5.1 1 .9 1s1.8-.5 2.1-1c.3-.6-.1-1-.9-1s-1.8.4-2.1 1zM225 511.9c4.6 2.4 9 3.4 9 2.1 0-1.3-6.6-4-9.9-4-2.5.1-2.5.2.9 1.9zm148 4.8c-1.4.2-10.8 1.7-21 3.4-16.8 2.8-21.2 4-19.9 5.3.6.6 40.7-6.1 43.3-7.2 2.4-1 1-1.9-2.4-1.5zm-171.2 2c-2.7.2-4.8.8-4.8 1.4 0 1 33.8 1.3 36.4.3.9-.3 1.3-1 1-1.5-.5-.9-22.5-1-32.6-.2zm-83.3 5c-8.6.4-10.7 1-8.3 2.4 2 1.1 26.9-1.1 26.2-2.3-.5-.8-2.8-.8-17.9-.1zM48.9 526c-17.8.9-25.9 1.8-25.9 3.1 0 .5 3.2.7 7.2.4 4-.3 21.2-1 38.1-1.6 17-.6 31.8-1.4 33-1.9 2.6-1-30.9-1-52.4 0zm186.6.9c-.3.5-.1 1.2.4 1.5 1.2.8 4.1-.3 4.1-1.5s-3.7-1.2-4.5 0zm83.5.1c0 1.5 3.5 2.6 13.1 4.5 8 1.5 10.8 1.3 7.9-.5-1.3-.8-5.7-1.9-18.7-4.6-1.3-.2-2.3 0-2.3.6zm73.5 4.7c-1.6.2-3.7.7-4.5 1-2.1.8 2.3 2.1 7.5 2.2 3.7.1 7.5-1.2 6.5-2.2-.9-.8-6.5-1.4-9.5-1zM204 534.6c-4.7.7-9.1 1.3-9.9 1.4-1 0-1.1.3-.3 1.3.9 1 .1 1.8-3.5 3.6-2.5 1.2-4.3 2.4-4 2.7.7.8 10.1-2.3 14.7-4.7 1.9-1.1 4.2-1.9 5-1.9 3.1 0 9-2.1 8.5-3.1-.4-.5-.9-.9-1.3-.8-.4.1-4.5.7-9.2 1.5zm141.2-.5c-5.7.5-11.1 1.3-12 1.9-1.4.8-1.3.9.9 1 6 0 34.1-2.2 36.6-3 3.7-1.1-11.6-1-25.5.1zm-56.7 1.9c-.3.6.2 1.3 1.2 1.6 1 .3 5.8 2.4 10.6 4.6 4.8 2.2 9 3.8 9.3 3.5 1-.9-6.2-5.7-12.4-8.2-6.9-2.8-7.8-2.9-8.7-1.5zm17.5 1c-1.2.8-1.2 1 .3 1.6 2.2.8 5-.3 4.2-1.6-.8-1.2-2.5-1.3-4.5 0zm16.4.5c3.9 2.9 27.6 11.1 27.6 9.5 0-1-12.1-6.1-21.4-8.9-8-2.5-8.8-2.5-6.2-.6zm-150.1 1.2c-.7.2-1.3.9-1.3 1.5 0 1.1 11.6.1 14-1.3 1.6-.9-10.5-1.1-12.7-.2zm188.7.1c.8.6 11 2.6 22.5 4.7 11.6 2 28.4 5.2 37.4 7.1 15.6 3.3 20.3 3.7 15 1.5-11.6-5-81.2-17.3-74.9-13.3zm-129.5 4.1c-16 5.7-55.9 22.9-66.5 28.7-1.4.7-12.2 5.6-24 10.8-11.8 5.1-36.6 16.2-55 24.6-18.4 8.4-35.7 16.1-38.5 17.1-5.3 1.9-7.7 4.4-2.8 3 5.4-1.6 44.1-18.5 80.8-35.3 38.2-17.6 84.6-38 101.9-45 17-6.7 19.8-9.5 4.1-3.9zm-78-.9l-4 .7 5 .1c2.8.1 5.7-.3 6.5-.8 1.8-1.1-1.1-1.1-7.5 0zm-14.7 2.7c.6.2 1.8.2 2.5 0 .6-.3.1-.5-1.3-.5-1.4 0-1.9.2-1.2.5zm99.5 3c-5.6 4.2-20.6 16.8-48.8 40.8-11 9.3-31.2 26.3-45 37.6-24.3 20.1-34.6 28.8-53.2 45.4-4.9 4.4-11 9.7-13.4 11.7-2.9 2.4-3.8 3.7-2.7 3.7.9.1 5.6-3.4 10.5-7.7 11.1-9.8 61.1-52 84.8-71.7 9.9-8.2 24.3-20.4 32.1-27 7.8-6.6 20.5-17.2 28.2-23.5 7.8-6.3 14.2-11.8 14.2-12.3 0-1.5-2-.6-6.7 3zm-120.8-1c-1.6.2-12 1.5-23 2.8-10.9 1.4-20.4 3-21 3.6-1.2 1.2 3.3.8 32.8-3.1 11.4-1.5 21-3 21.4-3.4.7-.6-4.9-.6-10.2.1zm196.5 1.7c2.9 1.8 8 2.2 6.4.6-.6-.6-2.8-1.3-5-1.6-3.9-.5-3.9-.5-1.4 1zm-158.8 4.1c-7.9 2.4-22.5 7.1-32.5 10.4-10 3.3-26.1 8.5-35.7 11.7-32.6 10.6-61.4 21.5-56.5 21.4.6 0 16.3-5.3 35-11.6s49.3-16.6 68-22.8c30.1-9.9 40.3-13.7 37-13.5-.5 0-7.4 2-15.3 4.4zm119.4-1.6c-2 1.6-5 3.2-6.7 3.5-1.6.3-4.2.9-5.9 1.2-2.5.5-2.9.9-2.5 2.7.4 1.5-.5 3.8-3 7.2-1.9 2.7-3.5 5.6-3.5 6.2 0 2.4 1.8 1.3 4-2.2 2.5-4.1 4.5-4.6 3.6-1-.5 1.9-.3 2.3.8 1.9 1-.4 2.2.8 3.6 3.3l2.1 3.8-.6-3.5c-.2-1.9-.8-6.1-1.1-9.2l-.7-5.6 5.5-3.1c5.6-3.2 9.6-6.7 8.6-7.6-.3-.3-2.2.8-4.2 2.4zm50.9 2.5c2.6 1.8 35 18.6 35.8 18.6.4 0 .7-.4.7-.9 0-1.1-35.1-19.1-37.2-19.1-.7 0-.4.6.7 1.4zm-280 2.2c-22.4 2.8-28.3 4.7-12.5 4 11.1-.5 33-3.9 35.8-5.6 2.5-1.4-1.2-1.1-23.3 1.6zm331.1.4c1.5 1.5 116.2 41 119.1 41 2.3 0 .4-1.9-3.4-3.5-8.1-3.4-50.5-17.8-77.3-26.3-34.8-11.1-39.7-12.5-38.4-11.2zm-132.9 6.2c-4.3 7.7-6 11.8-4.7 11.8 1.1 0 9.5-16.8 8.8-17.6-.4-.3-2.2 2.3-4.1 5.8zm35.7-4.3c.4.5 5.9 4.9 12.4 9.9 13.3 10.1 25.3 20.1 50.3 41.7 9.6 8.3 19.1 16.4 21.2 17.9 4.2 3.2 6.7 2.6 2.7-.6-1.4-1.1-12.2-10.2-24-20.3-28.1-23.9-60-49.5-61.7-49.5-.8 0-1.2.4-.9.9zm-26.6 2.8c-2.1.8-3.8 1.9-3.8 2.4 0 1.2.5 1.1 4.5-.5 1.9-.8 3.5-2 3.5-2.5 0-1.3.4-1.4-4.2.6z"/><path d="M270.8 562.9c-.2 1.6-.1 3.7.2 4.6.6 1.8.7 1.8 1.3.1 1-2.5.9-6.4-.2-7-.5-.3-1.1.7-1.3 2.3zm7.2 1.1c2.4 3.4 3.9 4.5 4.7 3.6.7-.7-4.6-6.6-6-6.6-.4 0 .1 1.3 1.3 3zm-3 3.2c0 1.7 8.2 13.8 9.3 13.8.5 0-.2-1.7-1.4-3.8-7.2-11.8-7.9-12.7-7.9-10zm-26.5 3.4c-1.7 4.2-6 17.7-6.9 21.9-.6 3-.6 3 1.3-.5 1.7-3.2 6.9-17.1 8.6-22.8 1-3.6-1.3-2.6-3 1.4zm-4.8-.9c-.4.3-.7 1.1-.7 1.7 0 .6.5.5 1.2-.2.6-.6.9-1.4.7-1.7-.3-.3-.9-.2-1.2.2zm-12.3 1.7c-1 .8-1.6 1.8-1.2 2.2.9.8 6.8-1.5 6.8-2.7 0-1.4-3.4-1.1-5.6.5zm133.6 1.5c0 .5 6.4 4.3 14.3 8.4 60.5 31.5 99.5 51.6 101.5 52.2 3.3 1 2.7-1-1-3.3C471.1 625 365 572 365 572.9zm-105.3 1.7c-.4.4-.7 1.9-.6 3.3v2.6l1-2.4c1-2.6.8-4.7-.4-3.5zm-39.7 1.9c-2.2 1.3-2.3 1.4-.5 1.4 1.1 0 3.1-.6 4.5-1.4 2.2-1.3 2.3-1.4.5-1.4-1.1 0-3.1.6-4.5 1.4zm15.1 3.9c-.6 1.6-1 3.1-.7 3.3.7.8 2.8-3.7 2.3-5-.3-.7-1 .1-1.6 1.7zm34.6 2.6c-.9 4.4-2.7 21.9-2.7 26 0 1.8.4 2.9 1 2.5.6-.3 1-3.7 1-7.5 0-8.2 1.5-9.8 3.7-4.1.9 2.3 2 4.1 2.5 4.1 1.2 0-.1-5-2.1-8-.9-1.4-1.8-5.5-2.1-9.5-.5-6.1-.6-6.6-1.3-3.5zm24.4-2.5c-.1 1.5 6.6 9.1 7.3 8.4.4-.3-1.2-2.6-3.3-5-2.2-2.4-4-4-4-3.4zm-66.6 3.1c-2.7 2.9-3.3 5-1.2 3.8 2.1-1.2 5.7-4.7 5.7-5.6 0-1.6-2.1-.7-4.5 1.8zm36.6 2.6c0 1.3.4 3.2.9 4.3.7 1.6.9 1.3.9-1.7.1-2-.3-4-.9-4.3-.6-.3-1 .4-.9 1.7zm-7.6 2.8c-.4 1.2-.5 2.4-.2 2.7.3.2.8-.5 1.2-1.7.4-1.2.5-2.4.2-2.7-.3-.2-.8.5-1.2 1.7zm-21.2 1.2c-2 2.6-2.6 4.1-1.5 3.4 1.2-.7 3.6-4.6 2.9-4.6-.3 0-.9.6-1.4 1.2zm55.7 1.9c.7 1.1 1.4 1.9 1.6 1.6.7-.7-.7-3.7-1.7-3.7-.6 0-.5.9.1 2.1zm15 2.8c0 .5.5 1.3 1 1.6.6.3 1 .2 1-.4 0-.5-.4-1.3-1-1.6-.5-.3-1-.2-1 .4zm-95.2 4.9c-2.9 2.8-5.1 5.3-4.8 5.5.8.7 11.5-9.2 10.7-9.9-.3-.4-3 1.6-5.9 4.4zm11.9 6.1c-5.8 11-7.3 15.7-3.7 11.1 2.2-2.9 10.4-20.9 9.7-21.6-.2-.2-2.9 4.5-6 10.5zm32-6.5c-.4 1-.7 3-.6 4.4.1 2.5.1 2.5 1-.6 1.1-3.7.7-6.7-.4-3.8zm115.3 1.1c0 .8 8.2 6.5 9.3 6.5 1.5 0-2.4-4-5.5-5.6-2.9-1.5-3.8-1.7-3.8-.9zm-82.4 2.5c1.3 5.5 13.3 31.8 51.8 113.5 16.6 35.1 17.7 37.3 19.4 38.8 1.3 1 1.4.8.8-1.3-.4-1.4-8.1-18-17.1-37-9-19-19.7-41.9-23.8-51-9.7-21.3-31.8-66.3-31.1-63zm11.4.5c0 .9 12 18.5 12.6 18.5.7 0-2.5-6-6.7-12.2-3.6-5.3-5.9-7.7-5.9-6.3zm-63.8 8.6c-2.6 6-42.8 129.3-47.6 145.6-.8 2.9-1.1 5.3-.7 5.3 1 0 7.7-18.8 16-45 3.4-10.7 12.7-39.7 20.8-64.3 8-24.6 14.3-45.1 13.9-45.4-.3-.3-1.4 1.4-2.4 3.8zm148.8-2c3 2.3 77.7 52.1 80.8 53.8 1.8.9 2.2.9 2.2-.2 0-1.2-67.7-46.9-79.3-53.5-4.8-2.7-7.1-2.9-3.7-.1zm-131.8 1c-.5 1.3-2.2 9.1-3.7 17.3-1.5 8.2-3.3 17.2-4.1 20-2.4 8.9-3.3 12.8-5.4 24.1-1.2 6-5 24.5-8.5 41-8.3 39-11.7 59-9.6 57 .6-.6 3.8-14.8 7.1-31.5 3.3-16.8 6.5-32.1 7-34 1.5-5.6 11-51.5 13.1-63.5 1.1-6.1 2.8-15.7 3.9-21.4 2-10 2-13.9.2-9zm-112.1 6.5c-3.9 1.9-7.1 4-7.1 4.5 0 1.1 13.5-5.5 14.5-7.1.9-1.5.4-1.3-7.4 2.6zM177 632c-10.2 9.8-18.1 17.9-17.7 18 1.1 0 35.5-33 36.1-34.7.3-.7.4-1.3.3-1.3-.1 0-8.5 8.1-18.7 18zm89.6-12.8c-.9 5-3.3 36.5-6.6 85.8-3.7 54.6-4.5 73.1-3.1 71 1.3-2.1 2.8-19.8 4.6-56 .8-16.8 2.4-42.2 3.5-56.5 2.7-37.5 3.3-47.5 2.7-47.5-.4 0-.9 1.5-1.1 3.2zm-52 4.4c-.4 1.4-.5 2.9-.2 3.1.3.3.8-.7 1.2-2.1.3-1.5.4-2.9.1-3.2-.2-.3-.8.7-1.1 2.2zm117.6-.1c2.5 3.6 18.4 21.9 23.7 27.4 8.9 9.2 6.8 4.6-2.5-5.5-11.3-12.4-23.1-24.5-21.2-21.9zm-205.6 1c-1.6 1.2-1.7 1.5-.4 1.5.8 0 2.1-.7 2.8-1.5 1.6-1.9.1-1.9-2.4 0zM271 624c0 .5.5 1 1 1 .6 0 1-.5 1-1 0-.6-.4-1-1-1-.5 0-1 .4-1 1zm-70.9 13.1c-5 6.2-8.9 11.5-8.5 11.8.5.6 2.3-1.2 11.5-12 4.7-5.6 7.4-9.8 6.6-10.5-.2-.2-4.5 4.6-9.6 10.7zm81.9-9.7c0 3.6 41.8 134.1 44 137.6 2.9 4.5.5-4-12-43-16.5-51.2-24.8-77.5-27.4-86.2-2.4-8.1-4.6-12-4.6-8.4zm32.5-.4c.3.5.8 1 1.1 1 .2 0 .4-.5.4-1 0-.6-.5-1-1.1-1-.5 0-.7.4-.4 1zM103 635.4C71 650.5 55 659 58.7 659c1.7 0 56.9-27.4 58.8-29.2 1.1-1 1.7-1.8 1.5-1.8-.3 0-7.5 3.3-16 7.4zm215-4c0 .4 7.5 12.3 16.7 26.5 9.1 14.1 19.6 30.3 23.3 36.1 15.3 24.1 29.3 44.5 30.8 44.9 1.9.4 1.7.1-19.9-32.9-22.1-33.9-47.7-72.1-49.5-74-.8-.8-1.4-1.1-1.4-.6zm54.6 3.7c1 1.2 12 10.5 24.4 20.7 12.4 10.2 27.2 22.6 33 27.6 5.8 4.9 11.3 9.6 12.3 10.4 3 2.6 3.2.3.1-2.9-1.6-1.7-8.7-7.9-15.9-13.7-7.1-5.8-20.2-16.7-29-24.2-8.8-7.4-17.9-15-20.1-16.8-4.8-3.7-7.8-4.4-4.8-1.1zM274 649.2c0 3.4 1.3 10.8 1.9 10.8.9 0-.3-10.7-1.2-11.6-.4-.4-.7 0-.7.8zm-89.6 8.6c-2.2 3.1-4.5 6.4-4.9 7.2-2.2 3.8 2.9-1.8 6.6-7.2 5.1-7.5 3.7-7.5-1.7 0zm-43.2 8.6c-7.5 7.4-13.5 13.7-13.2 14 .3.3 6.9-5.8 14.5-13.4 7.7-7.7 13.6-14 13.2-14-.4 0-7 6-14.5 13.4zm55-3.7c-2.2 4.9-7.7 16.9-12 26.8-4.4 9.9-12.5 27.8-18.1 39.7-5.5 12-10.1 22.5-10.1 23.3 0 2.9 2.2.4 4.7-5.4 1.4-3.1 7.4-16.2 13.3-29.1 12.5-27.2 26.4-58.5 27.4-61.8.4-1.2.3-2.2-.2-2.2s-2.7 3.9-5 8.7zm168.4-2.5c1 1.9 47.9 55.1 51.8 58.7 1.9 1.8 2.6 2.1 2.6.9 0-.8-9.4-12-20.9-24.9-20-22.4-35.3-38.3-33.5-34.7zm-87.5 9.5c-.1 2.7 5.1 47.2 7.8 66.8 1.1 7.7 2.7 19.4 3.6 26 1 7 2.2 12.6 3.1 13.5 1.2 1.2 1.4 1.2 1.4-.6 0-1.2-.4-4.4-1-7.2-.5-2.8-2.3-16.2-4-29.9-6.1-49.3-10.7-77.7-10.9-68.6zm-109.1 9c-7.9 9.5-10.5 14-5.4 9.2 2.3-2.1 11.9-14.4 13.8-17.7 2.1-3.5-1.2-.2-8.4 8.5zm-58.3 17.1C98.5 705.9 94.8 710 96.8 710c1.2 0 24.9-21.8 25.6-23.6 1-2.7-1-1.2-12.7 9.4zm32.8 15.1c-14.8 18.7-18.6 24.3-12.6 18.6 3.8-3.5 28.6-36.4 28-37-.3-.2-7.2 8-15.4 18.4zm913-240.7c-3.8 4.6-7.5 9.1-8.4 10.1-.8.9-1.2 1.9-.9 2.2.3.3 3.4-3 6.9-7.2 9.8-11.8 10.2-12.4 9.7-12.9-.3-.2-3.6 3.3-7.3 7.8zm-22.4 27.4c-6.6 7.9-8.5 11-6.2 10.2 1.3-.4 14.1-16.7 14.1-17.9 0-1.7-.9-.8-7.9 7.7zm-643.6-164c-5.9 10.7-7.1 15.3-1.8 6.7 9.4-15.3 10.4-17.3 8.5-17.3-.5 0-3.5 4.7-6.7 10.6zm29.9 13c-1.1.5-25.8 27-33.9 36.4-5.6 6.5 21.3-20 29.7-29.3 6.5-7.1 7.2-8.3 4.2-7.1zm12.6 35.5c-17 15.8-67.7 64.6-69.9 67.3-.8.9-1.1 1.9-.8 2.3.4.3 6.6-5.2 13.9-12.3 7.3-7.1 24.3-23.3 37.8-35.9 13.5-12.7 26.9-25.3 29.9-28.1 2.9-2.8 5.2-5.6 4.9-6.4-.2-.7-6.7 4.6-15.8 13.1zm-63.5-9.1c-.3.5-.2 1 .4 1 .5 0 1.3-.5 1.6-1 .3-.6.2-1-.4-1-.5 0-1.3.4-1.6 1zm-3.8 8c-.3 1.1-.1 2 .4 2s.9-.2.9-.4.3-1.1.6-2c.3-.9.2-1.6-.4-1.6-.5 0-1.2.9-1.5 2zm-5.2 11c-1.6 3.3-2.6 6.2-2.4 6.5.3.2 1.9-2.5 3.7-6 1.7-3.6 2.8-6.5 2.4-6.5-.5 0-2.1 2.7-3.7 6zm7.6 11.1c-4 4.4-7.1 8.2-6.9 8.5.7.6 14.8-14.3 14.8-15.6 0-.6-.1-1-.2-1-.2 0-3.6 3.6-7.7 8.1zm94.3-2.3c-8.9 5.5-49.1 31.3-60.1 38.7-4 2.6-7.3 5.2-7.3 5.7 0 1.1.8.7 18.5-10.5 37.7-23.7 55.1-34.9 56.4-36.2 3.3-3.3-.1-2.2-7.5 2.3zM352 405.1c-1.3 2.4-.4 4.1 1 1.9 1-1.6 1.3-4 .5-4-.2 0-.9.9-1.5 2.1zm-8.5 3.9c-.3.5-.1 1 .4 1 .6 0 1.1-.5 1.1-1 0-.6-.2-1-.4-1-.3 0-.8.4-1.1 1zm4.2 4.7c-.4.3-.7 1.1-.7 1.7 0 .6.5.5 1.2-.2.6-.6.9-1.4.7-1.7-.3-.3-.9-.2-1.2.2zm5.8 4.3c-.3.5-.1 1 .4 1 .6 0 1.1-.5 1.1-1 0-.6-.2-1-.4-1-.3 0-.8.4-1.1 1zm-13.3 10.2c-4.5 8.2-7.2 14-7.2 15.4 0 .2.4.4.8.4 1 0 12.6-23.9 12-24.6-.3-.2-2.8 3.8-5.6 8.8zm141.3 2.4c-2.2.9-5.8 2.2-8.1 3-4.3 1.6-13.5 8.1-14.1 10.1-.3.8 1.2.6 4.4-.8 8.1-3.4 22.6-11.3 23.1-12.7.5-1.5-.4-1.5-5.3.4zM386 448.5c-1.3 1.4-4.5 3.9-7.2 5.6-2.6 1.7-4.8 3.5-4.8 4.1 0 1.1.5.8 8-4.3 6.3-4.2 8.5-6.5 7.2-7.3-.5-.3-2 .6-3.2 1.9zm63.6-1c-1.1.8-1.7 1.7-1.4 2 .3.3 1.6-.3 2.9-1.4 2.7-2.3 1.4-2.8-1.5-.6zm-24.5 12.1c-5 2.5-9.1 4.9-9.1 5.5 0 1.5 1.1 1.1 9-3.2 6.8-3.7 11.4-6.9 9.8-6.9-.3 0-4.7 2.1-9.7 4.6zm63 2.9c-10.6 3-13.3 5.2-5.6 4.6 3.3-.3 16.5-5.2 16.5-6.2 0-1.3-1.4-1.1-10.9 1.6zM408 469c-.8.5-2.4 1-3.5 1s-3.5 1-5.4 2.3c-1.9 1.2-4.6 2.9-6 3.7-2.8 1.8-3.9 4-2 4 .7 0 2-.6 2.8-1.4 1.8-1.5 12.7-7.2 15.4-8 .9-.3 1.7-1 1.7-1.6 0-1.3-1-1.3-3 0zm50.5 2.5c-17.7 5.2-51.4 16.4-54.3 18-5 2.7.2 1.6 12.4-2.6 6.5-2.2 21.8-7 33.9-10.6 12.1-3.5 22.7-6.9 23.5-7.4 3.3-1.9-4.9-.6-15.5 2.6zm25.5 25c-9.6 1.9-20.6 4.2-24.5 5.2-6.7 1.7-6.8 1.8-3 2.1 5.5.3 47.8-8.1 48.3-9.6.5-1.7-.9-1.5-20.8 2.3zm-37.2 9.2c.7.3 1.6.2 1.9-.1.4-.3-.2-.6-1.3-.5-1.1 0-1.4.3-.6.6zm36.4 25.4c-6.3.4-11.5.9-11.8 1.2-.9.9 17.1 1.7 25 1.2 10.9-.8 13.4-1.4 11.5-2.6-1.6-1-8.2-1-24.7.2zm674.6-193.5c-9.3 11.8-10.3 13.4-8.9 13.4 1 0 16.2-18.4 18.1-22 .7-1.2.7-2 .1-2s-4.7 4.8-9.3 10.6zm25.3 16.4c-6.8 5.6-26.5 23.7-41.6 38-5.5 5.2-12.2 11.4-14.9 13.8-2.7 2.3-4.6 4.5-4.3 4.9.4.3 1.5 0 2.4-.9 1-.8 12.8-11.1 26.3-22.9 26.5-23.2 40-35.7 40-37 0-1.8-2.1-.7-7.9 4.1zm23.3 27.8c-14.7 10.2-58.6 43.3-58 43.9 1.2 1.2 43.9-29.3 63.1-45.1 5.5-4.5 1.9-3.7-5.1 1.2zm-8.9 42.3c-35 20-63.5 37.6-63.5 39.1 0 .6 1.1.3 2.5-.6 1.4-.9 11.4-6.7 22.3-12.8 10.8-6.1 25.6-14.5 32.7-18.8 7.2-4.2 19-11 26.3-14.9 12.6-6.9 15.4-9.1 11.4-9.1-1 0-15.2 7.7-31.7 17.1zm-88.8-2.4c-.4.3-.7 1.1-.7 1.7 0 .6.5.5 1.2-.2.6-.6.9-1.4.7-1.7-.3-.3-.9-.2-1.2.2zm33.3 7.8c-1 1.2-1 1.5.3 1.5.8 0 2-.7 2.7-1.5 1-1.2 1-1.5-.3-1.5-.8 0-2 .7-2.7 1.5zm-15.6 11.3c-4.9 3.8-18.1 13.3-29.4 21.2-23.4 16.3-25.6 18-26.4 19.8-.8 1.7-1.4 2.1 21.9-14.1 19.4-13.6 44.5-32.3 44.5-33.2 0-1.4-2.6.2-10.6 6.3zm100.3-1.4c-.3.8-.2 1.8.3 2.1 1.3.8 2.4-1.5 1.2-2.7-.6-.6-1.1-.4-1.5.6zm11.8 0c-4.1 1.3-85 36.6-100.5 43.8-4.7 2.2-15 6.8-23 10.3-16.4 7-25.2 11.4-23.1 11.5 1.8 0 16.5-5.9 33.6-13.5 7.7-3.4 22.6-10 33-14.5 10.5-4.5 30.5-13.3 44.5-19.5 14-6.1 28.5-12.5 32.3-14 3.7-1.5 7.2-3.4 7.8-4.2 1.4-1.6.6-1.6-4.6.1zm-128 36.4c-9.2 5.3-17 10.3-17.3 11-.6 1.8 2.8 0 19.3-9.9 16.2-9.8 16.1-9.7 15.4-10.3-.3-.3-8.1 3.8-17.4 9.2zm135.5-3.7c-20.3 5.5-71.8 20.7-77.4 22.8-1.6.7-2.7 1.4-2.4 1.7.9.8 17.2-3.2 37.3-9.1 10.5-3.1 26.2-7.6 34.9-10 16.3-4.5 21-6.6 14.6-6.4-1.9 0-5.1.5-7 1zm-172.5 25c-4.4 2.7-8.2 5.4-8.4 6.1-.4 1.2 16.5-7.5 18.9-9.8 3.3-3.2-2.7-1.1-10.5 3.7zm82.5 1c-5.5 1.5-9 3.1-9 4 0 1.2-.2 1.2 7.4-1.1 9-2.8 10.5-5.3 1.6-2.9zm-21.5 6c-4 1-6.3 2.4-5.4 3.4.7.7 9.7-2.4 10.5-3.6.6-1 .3-1-5.1.2zm113.5-.4c-10.9.8-66.5 6.4-69.1 7-3.1.6-4 2.3-1.1 2.3 2.5 0 68.8-5.9 74.2-6.6 6.3-.8 8.1-1.4 7.5-2.5-.6-.9-2.3-.9-11.5-.2zm-165.7 4.3c-1.3.5-2.3 1.2-2.3 1.6 0 .8 5.3-.5 6.5-1.7 1.2-1.2-1.2-1.1-4.2.1zm-28.8 2c-.3.5-.2 1 .4 1 .5 0 1.3-.5 1.6-1 .3-.6.2-1-.4-1-.5 0-1.3.4-1.6 1zm58.6.8c-3 1-5.6 2.3-5.8 2.9-.4 1.1 13.1-2.8 14.5-4.2 1-1-3.4-.3-8.7 1.3zm33.9 3.8c-31.4 3.6-38.6 4.6-39.5 5.6-.7.6 1.6.7 6.5.3 14.7-1.3 52.5-5.6 56-6.5 5.8-1.3-9.7-1-23 .6zm-49.2 1.1c-1.9.5-2.5 2.3-.9 2.3 1.7 0 4.1-1.2 4.1-2.1 0-.9-.4-1-3.2-.2zm-8.8 6.3c-4.3.7-4.2.7 2 .8 3.6 0 7.4-.3 8.5-.8 2.5-1.1-3.7-1.1-10.5 0zm-26.7 2.4c-3.5.7-6.6 1.6-7 2.1-1 1 9.7-.2 16.7-1.9l5.5-1.4h-4.5c-2.5 0-7.3.5-10.7 1.2zm-11.8 16.5c-.3.5-.1 1.2.4 1.6 1.3.8 6.1-.5 6.1-1.6 0-1.2-5.7-1.2-6.5 0zm68.5.8c-12.6.7-10.7 2.3 2.6 2.2 11.8-.1 26.1-1.5 18.4-1.8-1.9-.1-5.7-.3-8.5-.5-2.7-.2-8.4-.1-12.5.1zm39.6.2c-.7 1 3.3 2.3 4.6 1.5.5-.3.6-1 .3-1.5-.8-1.2-4.2-1.2-4.9 0zm11 0c-1.4.5-1.6 1-.7 1.5 1.6 1.1 8.3-.2 7.6-1.5-.7-1.1-4.2-1.1-6.9 0zm28.4 0l-8.5.6 6.4.7c7.9 1 52.7.9 59.6-.1 11.8-1.6-35.9-2.6-57.5-1.2zm-139.8 2.2c-7.6.9-12.6 2.6-12.7 4.4 0 1.3 9.4 6.4 11.8 6.5 2.8 0 1.1-1.8-4.1-4.4l-4.6-2.3 2.9-.7c1.7-.3 8.9-1.1 16-1.7 7.2-.6 13.7-1.5 14.5-2 1.9-1.1-13.8-1-23.8.2zm29.8 3.8c0 1.4 3.8 2 9.8 1.4 4-.5 5.1-.8 3.7-1.4-2.8-1.1-13.5-1.1-13.5 0zm-80.5 6.7c-1.9 2.6-3.5 5.2-3.5 5.8.1 1.5 8-7.6 8-9.2 0-2-.7-1.4-4.5 3.4zm90.7-3.4c.5 1.5 2.8 2.3 2.8 1 0-.5-.7-1.3-1.6-1.6-1-.4-1.4-.1-1.2.6zm10.5 3.9c1.2 1.2 8.5 3.1 9.2 2.4.6-.6-6.5-3.5-8.6-3.5-1.2 0-1.4.3-.6 1.1zm-132.9 1.5c-.7.9-5.7 6.3-11.2 12.1-5.4 5.7-9.6 10.6-9.3 11 1.5 1.4 25.2-22 24.1-23.8-.8-1.4-2.2-1.1-3.6.7zm174.7 1c9 2.3 21.8 3.4 16.6 1.3-2.9-1.2-19.7-3.9-23.1-3.8-1.4 0 1.6 1.2 6.5 2.5zm-139.2-.1c-.3.9-.3 1.8 0 2.1.9.9 2.7-.6 2.7-2.2 0-1.9-1.9-1.8-2.7.1zm5.3.2c-.4 1-.2 1.9.3 2.1.6.2 1.1 1.1 1.1 2 0 2.4-10.8 45.9-16.9 68.2-6.2 22.6-6.5 27.3-.5 9 6.7-20.2 19.5-72.6 19.2-77.9-.3-4.6-2.1-6.5-3.2-3.4zm17.1-1c-.4.3-.7 1.5-.7 2.5 0 2.6 2.4 1.7 2.8-1 .3-2.1-.8-2.9-2.1-1.5zm4.3.2c0 .6 4.9 15.7 6.5 20 .3.8.8 1.2 1 .9.3-.3-.1-3.4-1-6.9-.8-3.5-1.5-7.2-1.5-8.2 0-1.7.2-1.7 3.1.3 3.9 2.9 5.1 1.7 1.7-1.7-2.6-2.5-9.8-5.8-9.8-4.4zm26.1.8c1.2 1.4 6.8 4.3 8.4 4.3 1.5 0-1-2.2-4.5-4-4.8-2.4-5.7-2.5-3.9-.3zm-103.6 0c-1.1.2-9.2 2.4-18 4.8s-35.6 9.3-59.5 15.4c-65 16.3-83.9 21.5-82.7 22.8.3.2 27-6.2 59.3-14.3 75-18.7 109.4-27.8 109.4-28.9 0-.6-5.7-.4-8.5.2zm165.1 3.2c1.4 1.3 8.4 3.4 9.1 2.7.3-.3-1-1.3-3-2.1-4-1.7-7.7-2-6.1-.6zm-94.1 4.8c1.5 2.9 3.7 6.1 4.8 7 1.7 1.6 1.6 1.2-.6-3.2-1.3-2.8-3.5-5.9-4.8-7-2.1-1.9-2-1.6.6 3.2zm33.4-1.9c2.4 3.4 5.1 5.8 5.1 4.5 0-.5-.5-1.4-1.2-2.1-1.7-1.7 1-1.5 4.2.3 3.3 1.9 4.6 1.9 3 0-1-1.2-10.8-5.5-12.6-5.5-.3 0 .4 1.3 1.5 2.8zm121.2-.8c2.7 1.6 63 13 68.5 13 2.6 0 1.4-1.8-1.8-2.9-3.4-1.1-63.8-11.1-66.7-11.1-1.5.1-1.5.1 0 1zM975 570.6c-3.6 2.5-7.3 5-8.2 5.7-1 .6-1.8 1.5-1.8 2 0 1.3 11.6-5.3 15.7-8.9 5.6-4.9 1.9-4.1-5.7 1.2zm166-4.1c0 1.4 16.7 8.1 56 22.3 42.3 15.3 48 17.1 48 15.4 0-1.4-6.9-4-56.2-21.6-48-17.1-47.8-17-47.8-16.1zm-211 6.3c-5.2 2.7-13.3 7-18 9.6-4.7 2.6-24.5 12.9-44 22.8-46.2 23.5-58.1 29.9-57.4 30.9.5.9 47.6-22.4 87.4-43.4 12.9-6.8 28.5-15 34.5-18.1 12.8-6.7 12.6-6.6 9.4-6.6-1.3 0-6.7 2.2-11.9 4.8zm123-4c0 1.2 9.1 9.2 10.4 9.2 1.2 0-2.1-3.6-6.6-7.2-2.1-1.6-3.8-2.5-3.8-2zm41 4.4c4.1 2.2 22.8 11.5 41.5 20.5 18.7 9.1 47.4 23 63.8 31s30 14.3 30.3 14c1-1-4.6-4-34.1-18.7-50.4-25-105.3-51-107.7-51-.7 0 2.1 1.9 6.2 4.2zm-112.8.9c.2.6.8 1 1.3 1s1.1-.4 1.3-1c.2-.6-.4-1.1-1.3-1.1s-1.5.5-1.3 1.1zm67.8.1c0 1.9 1.8 4.3 2.5 3.6.9-.9-.4-4.8-1.6-4.8-.5 0-.9.6-.9 1.2zm33.5-.2c.8 1.2 18.4 14.3 21.6 16 1.3.7 4.1 2.7 6.1 4.3 2.1 1.7 4 2.8 4.3 2.5.3-.3-3.8-3.9-9.2-8-17.1-13.1-24.9-18.2-22.8-14.8zm-51.3 1.7c-1.4 2.7-10.3 59.2-9.5 60.3 1.4 1.7 4.6-14.2 7.8-38 .8-6.3 2-14.1 2.6-17.3 1.2-5.9.8-8.3-.9-5zm43.3 3c.7 3.1 2.3 5.3 3.6 5.3.5 0 0-1.8-1.1-4-2.4-4.6-3.5-5.2-2.5-1.3zm-36.5-1.2c0 .6 3.4 6.9 7.6 14 4.2 7.2 8.7 15.2 10.1 18 4 7.9 12.7 20.9 13.1 19.7.2-.6-2.1-5.3-5.1-10.4-2.9-5.1-8.7-15.2-12.7-22.5-6.8-12.4-12.9-21.1-13-18.8zm-35.4 3c-.9 1.3-1.6 2.7-1.6 3.1 0 1 3-1.7 4.1-3.8 1.5-2.7-.6-2.2-2.5.7zm-15.1-.4c-.4.6-.5 1.3-.2 1.6.7.7 2.7-.6 2.7-1.8 0-1.2-1.7-1.2-2.5.2zm-36.6 6.2c-21.2 13.5-65 42.9-64.5 43.4.3.3 5.4-2.5 11.3-6.2 5.9-3.8 17.2-10.8 25-15.6 7.8-4.8 19.3-12.5 25.5-17 13.2-9.5 12.3-8.8 11.6-9.4-.3-.3-4.3 1.9-8.9 4.8zm116.1-4.4c0 1.2 16.2 15.2 16.9 14.6.2-.3-2.7-3.3-6.4-6.7-8.1-7.5-10.5-9.3-10.5-7.9zm-86.4 6.9c-4.1 5.6-4.9 9.3-1 4.7 3-3.6 5.7-8.5 5.1-9.1-.3-.3-2.1 1.7-4.1 4.4zm37.8-1.5c1 4.4 4.7 13.9 5.3 13.3.6-.6-3.3-12.5-4.8-14.6-.8-1.2-.9-.9-.5 1.3zm-26.7 9.9c-5 6.7-15.9 23.9-15.4 24.4s8.9-11.2 16.2-22.4c3.4-5.1 2.7-6.7-.8-2zm-23.6 7.4c-3.6 4.1-4.9 6.4-3.7 6.4.9 0 8.8-10.1 8.3-10.6-.2-.3-2.3 1.6-4.6 4.2zm151.9-3.2c.8 1.1 9.2 7.6 18.5 14.6 9.4 7 21.1 15.9 26 19.9 9.4 7.5 37.3 27.3 43.8 31.1 2 1.2 3.7 1.8 3.7 1.3 0-1-10.4-9-31-23.6-7.4-5.3-20.9-15.1-30-21.8-22.1-16.3-32.8-23.7-31-21.5zm-106.7 5.6c1.1 11.5 3 24.7 3.7 26.5 1.5 3.5 1.1-8-.6-18.9-1.6-10.4-4-16.1-3.1-7.6zm77.1-3.1c1 1.6 20.3 18.1 21.2 18.1 1.3 0-10.6-11.7-15.7-15.6-4.6-3.3-6.5-4.3-5.5-2.5zm-165.7 8.8c-.4.3-.7 1.1-.7 1.7 0 .6.5.5 1.2-.2.6-.6.9-1.4.7-1.7-.3-.3-.9-.2-1.2.2zm176.4 6.9c0 1.1.3 1.4.6.6.3-.7.2-1.6-.1-1.9-.3-.4-.6.2-.5 1.3zm-73.1 2.1c-.1 1.9 4.5 17.3 5.1 17.3.8 0 .7-.5-1.6-10.8-1-3.9-2.1-7.2-2.6-7.2s-.9.3-.9.7zm31 3.3c0 1.9.3 2.1 1.2 1.2.9-.9.9-1.5 0-2.4-.9-.9-1.2-.7-1.2 1.2zm-87.7 3.3c-2.7 2.9-3.6 4.7-2.5 4.7 1 0 5.6-6 5-6.6-.3-.2-1.4.6-2.5 1.9zm144.7-2c0 .2 1.5 1.6 3.3 3.3l3.2 2.9-2.9-3.3c-2.8-3-3.6-3.7-3.6-2.9zm-236.6 7.2c-1 .8-1.4 1.5-.8 1.5.5 0 1.9-.7 3-1.5 1-.8 1.4-1.5.8-1.5-.5 0-1.9.7-3 1.5zm64.3.3c-1.9 2-2.3 3.7-.7 2.7 1-.6 3.3-4.5 2.7-4.5-.2 0-1.1.8-2 1.8zm-82.6 11.1c-1 .6-1 1-.1 1.6 1.3.8 2.4.1 1.9-1.4-.3-.6-1-.7-1.8-.2zm158.1 5.6c-1.3 6.4-6.2 42.4-6.2 45.8 0 4.6 1.1.3 2.9-11.4 1.1-6.8 2.7-16.6 3.6-21.7.9-5 1.5-11.3 1.3-14l-.3-4.7-1.3 6zm16.5.7c.3 1.8 1 3.7 1.6 4.3.6.7.8.2.3-1.5-.3-1.4-.6-3.3-.6-4.3 0-.9-.4-1.7-1-1.7-.5 0-.7 1.4-.3 3.2zm105.8-.2c2.3 3 30.8 30.1 40.2 38.2 3.7 3.2 7.1 5.8 7.7 5.8 2.3 0-37.3-37.5-46.9-44.3l-2.9-2.1 1.9 2.4zm-59.5 3c0 .5.5 1 1.1 1 .5 0 .7-.5.4-1-.3-.6-.8-1-1.1-1-.2 0-.4.4-.4 1zm-239.5 2.8c-10.1 5.6-17.1 11.2-13.8 11.2.6 0 17.9-11.5 19.8-13.2 1.9-1.7-1.1-.7-6 2zm226.1.7c.3 2.2 1 4.4 1.5 4.9 1.4 1.5 1-2.5-.6-5.9l-1.5-3 .6 4zm-75.6-2.1c0 .1-1.4 5.6-3.1 12-2.8 10.8-3.5 17.5-1.2 11.6 1.9-4.8 6-24 5.2-24-.5 0-.9.2-.9.4zm45 5c0 .9.5 1.6 1 1.6.6 0 1-.4 1-.9 0-.6-.4-1.3-1-1.6-.5-.3-1 .1-1 .9zm88 .1c0 1.6 8.2 15.5 9.1 15.5.6 0 .5-.9-.2-2.1-2.1-4-8.9-14.2-8.9-13.4zm-37 6.5c0 .7 1 2.6 2.3 4.3 1.2 1.8 3 4.6 3.9 6.3 2.6 5 8.8 14.4 9.4 14.4.6 0-.6-2.3-7.8-14.7-5.8-10-7.8-12.6-7.8-10.3zm-46.3 12c.3 2.5.9 5.4 1.4 6.5.6 1.6.8 1.2.8-1.5 0-1.9-.6-4.9-1.4-6.5-1.4-3-1.4-3-.8 1.5zm32.3 1.2c0 1.6.5 2.8 1 2.8 1.3 0 1.3-2 0-4-.8-1.2-1-.9-1 1.2zm62-.8c0 1.9 16 29.9 20.8 36.3 2.6 3.6 4.5 4.4 3.5 1.5-.3-.9-4.9-8.9-10.1-17.6-9-15-14.1-22.3-14.2-20.2zm-282 8.1c-2.4 2.5-4.2 4.7-3.9 5 .3.2 2.5-1.5 4.9-4 2.4-2.5 4.2-4.7 3.9-5-.3-.2-2.5 1.5-4.9 4zm129.1 2.2c-1.4 4.8-1.4 6-.2 4.7 1.1-1 2.6-8.4 1.8-8.4-.4 0-1.1 1.7-1.6 3.7zm93.9 1.3c0 .5.5 1 1.1 1 .5 0 .7-.5.4-1-.3-.6-.8-1-1.1-1-.2 0-.4.4-.4 1zm-184.6 3.3c-4.1 4.6-4.6 6.1-.9 2.5 2.2-2.1 3.7-4 3.4-4.3-.3-.3-1.4.5-2.5 1.8zm153.6-1.2c0 3.3 2.3 12.9 3.2 12.9.5 0 .7-.8.4-1.8-.3-.9-.8-3.5-1.2-5.7-.8-4.6-2.3-8.1-2.4-5.4zm-23 6.1c0 .9.5 2 1 2.3 1.3.8 1.3-.5 0-2.5-.8-1.3-1-1.3-1 .2zm-43 4.4c-2.2 5.6-5.2 17.6-4.6 18.1.3.4.7.4.9.2.9-1.2 5.8-20.2 5.3-20.6-.3-.3-1 .7-1.6 2.3zm101 .8c0 2.5 4.3 15.1 4.7 13.9.2-.6-.5-4.3-1.7-8.2-2-6.8-3-8.7-3-5.7zm-200.9 4.1c-3.3 3.8-3.6 4.5-2.2 4.5 1.1 0 6.5-7 5.8-7.6-.2-.3-1.8 1.1-3.6 3.1zm231-2.5c0 .8.6 2.4 1.4 3.4 1.1 1.5 1.5 1.6 1.5.5 0-.8-.7-2.4-1.5-3.5-1.1-1.4-1.4-1.5-1.4-.4zm-102.4 7.3c-.4 1-.7 2.8-.7 4 .1 2 .2 2 1.1.4.6-1 .9-2.8.7-4-.3-2-.4-2-1.1-.4zm108.3 2.6c0 1.8 10.6 20.8 12.1 21.7 2.5 1.5-1.2-6.6-6.9-15.4-5.2-7.9-5.2-7.9-5.2-6.3zM907 725c-2.3 3.4-3.9 6.4-3.5 6.8.8.8 3.8-2.9 6.6-8.1 3.2-6 1.6-5.3-3.1 1.3zm146.6-4.3c.9 3.8 8.4 38.7 8.4 39 0 .2.5.3 1 .3 1.7 0 1.1-4.6-2.9-20.2-2.1-8.4-4.1-16.5-4.5-18.1-.4-1.5-1-2.7-1.5-2.7s-.7.8-.5 1.7zm-25.4 4.8c0 1.6.3 3.9.8 5l.9 2-.1-2c0-1.1-.4-3.4-.8-5l-.8-3v3zm59.9-.7c-.2 2.3 4.9 21.4 6.4 24.1l1.4 2.6V749c0-2.7-7.6-26.4-7.8-24.2zm-150.9 4.4c-2.5 6.3-6.2 17.2-6.2 18.2.1 2.7 3.3-3.7 5.6-11.1 2.6-8.3 3-13.2.6-7.1zm35.8 1.3c-1.6 4.2-6.6 21.5-7.3 25.2-1.1 5.6 1 3.6 3.2-3 4.4-13.2 7.8-32 4.1-22.2zm30.3 17c-3.2 13.6-3.6 16.2-2.4 16.9 1.2.8 2.6-3.9 4.1-14.1 1.8-11.2.7-12.9-1.7-2.8zm27.3 3.7c.9 8.9 1.5 11.8 2.4 11.8 1.3 0 1.3-4.4-.1-11.3-1.5-7.2-3-7.4-2.3-.5zM862 358.9c0 .5.5 1.3 1 1.6.6.3 1 .2 1-.4 0-.5-.4-1.3-1-1.6-.5-.3-1-.2-1 .4zM831 376c0 .5.5 1 1.1 1 .5 0 .7-.5.4-1-.3-.6-.8-1-1.1-1-.2 0-.4.4-.4 1zm8.6 7.8c10.8 8.7 19.6 15.4 20 15 .9-1-19.1-16.8-21.2-16.8-.5 0 .1.8 1.2 1.8zM813 403.9c0 1.1 30.1 19.3 30.8 18.6.7-.7-2.1-2.8-10.3-7.7-3.8-2.3-9.7-5.8-13.1-8-6.3-4-7.4-4.4-7.4-2.9zm57.5 5.1c1 1.1 2.3 2 2.8 2 .6 0 .2-.9-.8-2s-2.3-2-2.8-2c-.6 0-.2.9.8 2zm43.6 5.8c14 15.8 17.8 19.7 17.9 18.4 0-.7-5.7-7-12.6-14-9.6-9.6-10.8-10.7-5.3-4.4zm-67.1 9.7c0 .7 23 15.9 27.8 18.4 2.4 1.2 4.6 2 4.9 1.8.6-.6-5.2-4.5-20-13.5-11.4-7-12.7-7.7-12.7-6.7zm45.5 2.5c.3.5.8 1 1.1 1 .2 0 .4-.5.4-1 0-.6-.5-1-1.1-1-.5 0-.7.4-.4 1zm43.3 11.7c2.8 3.8 8.1 8.8 8.7 8.1.7-.7-8.4-10.8-9.7-10.8-.5 0 0 1.2 1 2.7zm-141.8.8c0 1.6 43.2 18.8 45.8 18.3 1-.2-4.1-2.8-11.3-5.7-19.4-8-34.5-13.5-34.5-12.6zm120 3.9c5.5 5.2 39.9 35.5 45.5 40 3.8 3.2 6.1 4.4 6.3 3.6.3-.7-.3-1.7-1.3-2.2-2.3-1.4-14-11.3-26-22.3-13.2-12.1-24.6-21.5-25.9-21.5-.6 0 .1 1.1 1.4 2.4zm-32 2.4c0 .5 3.5 3.1 7.8 5.8 4.2 2.6 18.8 12.1 32.5 21 13.6 9 24.7 15.9 24.7 15.4 0-2.1-29.4-22.2-50.5-34.5-5.5-3.2-11-6.5-12.2-7.3-1.3-.8-2.3-1-2.3-.4zm67 7c0 1.4 3.9 4.6 4.7 3.9.3-.4-.2-1.6-1.2-2.7-1.9-2.1-3.5-2.6-3.5-1.2zm-104 6.6c0 .8 17.3 7.6 19.3 7.6 1.9-.1 1.9-.3-.7-1.7-2.9-1.5-16.3-6.3-17.8-6.3-.4 0-.8.2-.8.4zm-59.5 7.4c.9.9 14.8 4.2 23.5 5.6 3.2.5 3.3.4 1.6-.9-3.2-2.5-27.4-7-25.1-4.7zm90 4.2c.3.5 1.3 1 2.1 1s1.2-.5.9-1c-.3-.6-1.3-1-2.1-1s-1.2.4-.9 1zm10.5 4.4c0 .3 1.7 1 3.8 1.7 2 .6 9.4 3.6 16.5 6.6 13.8 5.9 19.9 6.7 7.7 1-12.1-5.7-28-10.9-28-9.3zm-82.7 1.3c-2.2.8-1.4 2.3 1.2 2.3 1.4 0 2.5-.4 2.5-.9 0-1.1-2.1-1.9-3.7-1.4zM952 484c0 .5.7 1 1.6 1 .8 0 1.2-.5.9-1-.3-.6-1-1-1.6-1-.5 0-.9.4-.9 1zm-634.7-29c-4.1 3-6.2 6-4.2 6 1.4 0 9.5-7.7 8.8-8.4-.3-.3-2.4.8-4.6 2.4zm7.2 4.2c-.7 1.8-1.1 3.5-.8 3.8.7.8 3.3-3.2 3.3-5.2 0-2.7-.9-2.2-2.5 1.4zm17.1 8.9c-3 2.3-5.8 6.7-3.4 5.4 2.3-1.4 4.9-3.9 5.9-5.7 1.2-2.3.8-2.3-2.5.3zm5.7 8.5c-1.8 1.4-3.3 3-3.3 3.5 0 1.2 5.5-1.9 7.7-4.4 2.6-2.7-.6-2.2-4.4.9zm19.5 12.4c-3.2 1.8-5.8 4-4.4 4 1.3 0 9.5-4 10-4.9 1.1-1.7-1.5-1.2-5.6.9zm12.3 7c-6.5 2.3-8.7 4-5 3.9 3.5-.1 12.2-3.3 12.7-4.7.5-1.7-1.4-1.4-7.7.8zm23.4 14.7c-5 1.1-8.5 2.5-8 3.2.6 1.1 10.3-.7 13.5-2.4l2.5-1.4-3 .1c-1.6 0-3.9.2-5 .5zm27 21.2c-1.6.7-1.3.9 1.8 1.5 4.3.8 10.9-.2 10.1-1.5-.6-1.1-9.1-1.1-11.9 0zm46 27.1c.3.5 1.1 1 1.6 1 .6 0 .7-.5.4-1-.3-.6-1.1-1-1.6-1-.6 0-.7.4-.4 1zm7 1c.3.5 1 1 1.6 1 .5 0 .9-.5.9-1 0-.6-.7-1-1.6-1-.8 0-1.2.4-.9 1zm441-56c.3.5 1.8 1 3.3.9 2.4 0 2.5-.1.7-.9-2.8-1.2-4.7-1.2-4 0zm35.5.4c3.8 2 13.9 5 14.6 4.3 1.4-1.3-1-2.6-7.6-4.1-8.3-1.9-10.3-2-7-.2zm-109.7 2.3c-2.1.4-3.3 2.3-1.5 2.3 5.7.1 76.6 4.4 91 5.5 11.5.9 19.9 1.2 20.8.7 1.4-.8 1.4-1-.2-1.6-1.8-.7-22.7-2.2-69.4-5.1-38.4-2.3-38.3-2.3-40.7-1.8zM749.2 540c1.4 2.2 2.4 1.9 1.5-.5-.4-.8-1.1-1.5-1.7-1.5-.6 0-.6.7.2 2zm-32 10.6c-4.6 3.2-.9 12.4 5 12.4 2.8 0 6.4-2.3 7.8-5 3.1-5.8-6.9-11.6-12.8-7.4zm8.8 3.3c0 1.8-3.7 5.4-4.8 4.7-1.3-.8-1.6-3.9-.5-4.9 1-1 5.3-.8 5.3.2zM516.1 2.4c-.7.8-.8 1.6-.4 1.9 1.2.7 5.3-1.1 5.3-2.3 0-1.5-3.6-1.2-4.9.4zM496.5 11c-.3.5.1 1 1 1s1.3-.5 1-1c-.3-.6-.8-1-1-1-.2 0-.7.4-1 1zM1275 481.7c0 4.7.8 7.3 2.2 7.3 1.1 0 0-9-1.3-10.5-.5-.5-.9.8-.9 3.2zM99.5 740c.3.5 1.1 1 1.6 1 .6 0 .7-.5.4-1-.3-.6-1.1-1-1.6-1-.6 0-.7.4-.4 1zm44.5 25c2 1.3 4.3 1.3 3.5 0-.3-.6-1.6-1-2.8-1-1.8 0-1.9.2-.7 1zm8.9 8.8c2.8 2 20.9 9.2 23.1 9.2 1.2 0 1.2-.3-.2-1.6-2-2-20.3-9.4-23.1-9.3-2.2 0-2.1 0 .2 1.7zm932.5.7c-21.2 5.4-28.6 6.1-71.9 7.2-8.2.2-15.4.8-16 1.4-1.4 1.4-3.4 1.1-7.9-1-2.3-1.1-6.2-2.3-8.8-2.6-4.1-.6-4.8-.5-4.8.9 0 2.1 4.2 3.7 7.9 3 1.6-.4 3.2-.1 3.5.5.9 1.3 26.9 1.4 56.6.1 15.9-.7 21.9-1.3 26.9-2.9 3.6-1.1 9.9-2.6 14-3.3 4.2-.7 8.2-1.8 9-2.6.8-.7 3-1.3 5-1.2 5.1.3 5.8.1 4.1-1-2.3-1.5-7.7-1.1-17.6 1.5zM971.5 782c.3.5 1.1 1 1.6 1 .6 0 .7-.5.4-1-.3-.6-1.1-1-1.6-1-.6 0-.7.4-.4 1zM182 784.7c.8.3 2 1.1 2.5 1.7.6.7 2.2.9 4 .5l3-.6-2.8-1.1c-1.6-.7-4-1.2-5.5-1.1-1.5 0-2 .3-1.2.6zm13 3.4c0 .4.6 1 1.3 1.2.9.4.8.8-.3 1.6-1.2.9-1 1.1 1 1 1.4 0 4.4-.4 6.7-.7l4.3-.7-6.5-1.5c-3.6-.9-6.5-1.3-6.5-.9z"/></g></svg>