<svg version="1.0" xmlns="http://www.w3.org/2000/svg" width="1706.667" height="986.667" viewBox="0 0 1280 740"><path d="M485.9 2c-9.1 1.9-22.7 7.7-30.3 12.9-12.3 8.5-24.3 23.1-29.9 36.6-7.7 18.5-8.8 41.2-2.5 55.7l2.1 4.8-31.6 75.8c-17.4 41.6-34.9 83.6-38.9 93.3l-7.3 17.7-5-2.6c-18.3-9.2-44.4-18.4-64.7-22.7-11.8-2.5-34.6-5.5-42-5.5H232v13.7l-12.2.7c-43.5 2.4-81.9 14.8-116.3 37.3-55 36.1-91 92.4-101.2 158.3-2.4 15.9-2.4 49.9.1 66 8 51.5 30.6 95.4 67.7 131.6 90.4 88 236.1 85.2 323.9-6.2 5.2-5.5 11.7-12.7 14.4-16.2 2.7-3.4 5.2-6.2 5.7-6.2.4 0 3 1.8 5.8 4l5 4 7-10.6C458 605 471.3 560 471.3 511.5c0-37.6-6.4-67.6-21.8-101.6-13-29-35.2-59.2-57.5-78.5-5-4.3-9-8-9-8.3 0-1.6 7.5-18.1 8.2-17.9.4.2 54.6 47.9 120.6 106.1L631.6 517l-1.3 7.3c-4 23.2.8 44.5 13.8 60.7l4.9 6.1-14.2 31.9-14.3 32H604v33h84v-33h-10.1c-6.1 0-9.9-.4-9.7-1 .2-.5 4.6-10.6 9.8-22.5l9.5-21.4 9.5-.1c11.9 0 20.2-2 31-7.2 6.8-3.3 10.1-5.7 17-12.7 9.1-9.2 14.3-17.5 17.6-28.6 1-3.3 1.9-6.1 1.9-6.3.3-.5 37.9-3.3 39-2.8.7.2 1.5 2.2 1.8 4.3 1.1 6.7 6.8 25.4 10.8 35.6 21.7 54.6 61.7 97.8 114.4 123.8 37.6 18.5 82.9 26.9 123 22.8 5.5-.5 12.7-1.2 16-1.4 7.6-.6 14.2-1.9 27.8-5.6 47.4-12.8 91.9-43.1 122-83.2 23.3-30.9 39.3-69.5 44.3-106.2.9-6.6 1.8-13 2-14.2.4-2.1.8-2.2 6.8-1.6l6.3.6.6-4.8c1-6.9.8-20.4-.3-33-5.4-57.8-30.5-110.6-71.9-151.3-31-30.5-70-52.6-111.1-62.8-18.6-4.6-31.7-6.4-51-7.1-33.1-1.2-66.7 4.9-99.2 17.7-5.5 2.2-10.4 4-10.9 4-.8 0-58.9-101.4-58.9-102.8 0-.4 5.1-12 11.3-25.6l11.2-24.8 33-15.4c18.1-8.5 34.2-16.6 35.7-18.1 4.5-4.3 7.1-11.8 6.6-18.8-.6-6.9-2.4-10.9-6.9-15.4-6.3-6.4-7.3-6.6-31.4-6.8-12.1-.1-53-.7-91-1.4l-69-1.2-4.2 2.1c-7.4 3.8-11.4 12.5-9.3 20.3 2.1 7.8 6.3 11 31.9 23.8 13 6.5 31.7 15.6 41.6 20.1 9.9 4.5 18.1 8.3 18.2 8.5.2.1-4.3 9.9-9.9 21.8L833.6 178H637.8c-107.7 0-195.8-.3-195.8-.6s6.1-15.1 13.5-33 13.5-33 13.5-33.6c0-.6-1.4-3.8-3-7.2-12.7-25.8 2.3-55.4 30.6-60.7 8.7-1.6 13.7-.8 49.3 8.6 17.9 4.6 32.7 8.3 32.9 8 .5-.5 9.2-37.5 9.2-39.2 0-1.4-.4-1.5-37-11.1C513.7-.6 503.4-1.7 485.9 2zm328.9 217.5c.1.1-6.2 14.5-14.1 32.1-12.4 27.5-37.5 84-53.7 120.9l-4.9 11-18.5.3-18.6.2v36h10.5c5.8 0 10.5.3 10.4.7 0 .5-5.1 12.3-11.3 26.3l-11.3 25.5-9.9.6c-11 .7-19.2 3.3-29.5 9.4-5.4 3.1-6.4 3.4-7.8 2.2-.9-.8-57.4-50.6-125.6-110.7-68.2-60.1-124.2-109.4-124.4-109.6-.3-.2 17.2-43.3 18.6-45.6.3-.7 389.3.1 390.1.7zm61.2 52.7c11.8 20.5 21.6 37.7 21.7 38.3.1.5-3.4 3.7-7.9 7-11.3 8.4-31.4 27.9-41 39.9-20.9 25.9-36.3 54.8-45.7 85.3-5.7 18.8-5.9 20.8-2.5 24.4l2.7 2.8-1.2 8.4c-.6 4.6-1.4 14-1.8 21-.4 8.3-1 12.7-1.7 12.7-.6 0-9.4.7-19.5 1.5-10.1.9-18.4 1.5-18.5 1.3-.1-.2-2.1-3.5-4.5-7.5-2.3-4-6.5-9.4-9.1-12.2l-4.9-4.9 9.3-21.4c5.1-11.7 11.9-27.5 15.2-35.1l5.9-13.7H790v-17.9c0-9.9-.4-18.1-.9-18.3-1-.4.1-2.9 36.5-85.1 15.1-34 27.4-62.3 27.4-62.8s.3-.9.8-.9c.4 0 10.4 16.7 22.2 37.2zm193.7 71.7c33.6 6.9 63 22.8 87.9 47.6 17.7 17.6 28.9 34.1 37.5 55 20.6 50.4 15.8 106.8-13.2 154.2-12.3 20.1-32.4 40.2-52.9 53.1-16.4 10.2-38.3 19-58.5 23.2-19.5 4.1-48.9 3.8-70-.7-18-3.8-41.5-13.5-57-23.5-29.2-18.8-53.9-48.7-66.9-81-3.8-9.4-8-23.7-7.3-24.4.6-.6 79.3-6.8 114-8.9l26.8-1.7 3.7 2.5c2 1.4 6.4 3.8 9.7 5.4 13 5.9 28.1 2.7 38.5-8.3 14.7-15.6 14.6-37.4-.3-51.1-5.3-4.9-8.7-6.8-15.1-8.4-2.8-.7-5.3-2-6.1-3.3-.7-1.1-16.4-28.6-34.9-61.1-24.9-43.7-33.2-59.1-32.2-59.7 3.4-1.9 20.1-6.9 29.6-8.8 20-4.1 46.7-4.1 66.7-.1zm-811.9-.5c20.2 3.7 39.5 10.5 54.5 19.2 4.2 2.5 7.7 4.8 7.7 5.1 0 .3-5 12.7-11.1 27.6-30.1 73.5-29.5 72.3-38.7 80.9-9.8 9.2-20.4 13.5-36.2 14.7-11.1.8-14.6 2-19.4 6.8-8.2 8.1-7.4 22 1.8 30 5.2 4.6 9.5 5.7 20 4.9 35.5-2.5 67.3-23.3 83.5-54.6 2.1-4.1 10.5-23.9 18.6-44 8.1-20.1 15-37 15.4-37.7.4-.8 3.1 1.8 7.3 7 27.8 34.7 42 80.2 37.9 121.7-5.4 53.7-31.4 97.7-74.9 127.1-39.8 26.8-91.1 35.5-137.8 23.3-31.4-8.1-59.6-25.2-82.5-49.9-31-33.5-46.9-79.8-43.8-127.1 4.1-60.3 39.8-113.3 94.4-140 17.5-8.5 36.7-14.1 56.5-16.4 10.3-1.2 36.7-.4 46.8 1.4zm711.5 91.3c19.1 32.8 34.6 59.8 34.4 59.9-.3.4-130.7 9.4-135.2 9.4h-2.8l.7-6.8c2.1-21.1 7.8-41.7 16.6-59.7 10.4-21.5 23.6-39 40.7-53.9 5.4-4.7 10-8.6 10.3-8.6.3 0 16.2 26.8 35.3 59.7z" fill="#fff"/></svg>