<?xml version="1.0" encoding="utf-8"?>
<!-- Generator: Adobe Illustrator 24.0.1, SVG Export Plug-In . SVG Version: 6.00 Build 0)  -->
<svg version="1.1" id="Слой_1" xmlns="http://www.w3.org/2000/svg" xmlns:xlink="http://www.w3.org/1999/xlink" x="0px" y="0px"
	 viewBox="0 0 847.9 225.6" style="enable-background:new 0 0 847.9 225.6;" xml:space="preserve">
<style type="text/css">
	.st0{fill:none;}
	.st1{enable-background:new    ;}
	.st2{fill:#1E1E1E;}
	.st3{fill:#0099CC;}
</style>
<g>
	<path class="st0" d="M0,18.6h832.8v171H0V18.6z"/>
</g>
<g class="st1">
	<path class="st2" d="M24.1,209.3v-25.5h-4.7v-6.2h4.7v-2.7c0-3.6,1-6.3,3.1-8.3c2-2,4.9-2.9,8.6-2.9c1.2,0,2.6,0.2,4.3,0.6
		l-0.1,6.6c-0.7-0.2-1.6-0.3-2.6-0.3c-3.2,0-4.8,1.5-4.8,4.5v2.5h6.3v6.2h-6.3v25.5H24.1z"/>
</g>
<g class="st1">
	<path class="st2" d="M68,185.6c-1.2-0.2-2.2-0.2-3-0.2c-3.2,0-5.3,1.1-6.3,3.3v20.7h-8.5v-31.7h8l0.2,3.8c1.7-2.9,4.1-4.4,7.1-4.4
		c0.9,0,1.8,0.1,2.6,0.4L68,185.6z"/>
</g>
<g class="st1">
	<path class="st2" d="M76.7,193.2c0-3.1,0.6-5.9,1.8-8.4c1.2-2.5,3-4.4,5.2-5.7c2.3-1.3,4.9-2,7.9-2c4.3,0,7.8,1.3,10.5,3.9
		c2.7,2.6,4.2,6.2,4.5,10.7l0.1,2.2c0,4.9-1.4,8.8-4.1,11.7c-2.7,2.9-6.4,4.4-10.9,4.4s-8.2-1.5-10.9-4.4s-4.1-6.9-4.1-12V193.2z
		 M85.2,193.8c0,3,0.6,5.3,1.7,6.9c1.1,1.6,2.8,2.4,4.9,2.4c2.1,0,3.7-0.8,4.8-2.4c1.2-1.6,1.7-4.1,1.7-7.6c0-3-0.6-5.2-1.7-6.9
		c-1.2-1.6-2.8-2.4-4.9-2.4c-2.1,0-3.7,0.8-4.8,2.4C85.7,187.9,85.2,190.4,85.2,193.8z"/>
	<path class="st2" d="M126.9,177.6l0.3,3.7c2.3-2.8,5.3-4.2,9.1-4.2c3.4,0,5.9,1,7.5,3s2.5,4.9,2.5,8.8v20.5h-8.5V189
		c0-1.8-0.4-3.1-1.2-3.9c-0.8-0.8-2.1-1.2-3.9-1.2c-2.4,0-4.2,1-5.4,3v22.4H119v-31.7H126.9z"/>
	<path class="st2" d="M170.1,169.8v7.8h5.4v6.2h-5.4v15.8c0,1.2,0.2,2,0.7,2.5c0.4,0.5,1.3,0.8,2.6,0.8c0.9,0,1.8-0.1,2.5-0.2v6.4
		c-1.7,0.5-3.4,0.8-5.1,0.8c-5.9,0-9-3-9.1-9v-17.1H157v-6.2h4.6v-7.8H170.1z"/>
	<path class="st2" d="M202,209.9c-4.6,0-8.4-1.4-11.4-4.3c-2.9-2.9-4.4-6.7-4.4-11.4v-0.8c0-3.2,0.6-6,1.8-8.5s3-4.4,5.2-5.8
		s4.8-2,7.7-2c4.3,0,7.7,1.4,10.2,4.1s3.7,6.6,3.7,11.6v3.5h-20.2c0.3,2.1,1.1,3.7,2.5,5s3.1,1.9,5.2,1.9c3.3,0,5.8-1.2,7.6-3.5
		l4.2,4.7c-1.3,1.8-3,3.2-5.2,4.2S204.7,209.9,202,209.9z M201,183.9c-1.7,0-3,0.6-4.1,1.7c-1,1.1-1.7,2.8-2,4.9h11.8v-0.7
		c0-1.9-0.5-3.3-1.5-4.4C204.2,184.4,202.8,183.9,201,183.9z"/>
	<path class="st2" d="M234.8,177.6l0.3,3.7c2.3-2.8,5.3-4.2,9.1-4.2c3.4,0,5.9,1,7.5,3s2.5,4.9,2.5,8.8v20.5h-8.5V189
		c0-1.8-0.4-3.1-1.2-3.9c-0.8-0.8-2.1-1.2-3.9-1.2c-2.4,0-4.2,1-5.4,3v22.4h-8.5v-31.7H234.8z"/>
	<path class="st2" d="M266.5,193.2c0-4.9,1.1-8.9,3.3-11.8c2.2-2.9,5.2-4.4,9.1-4.4c3.1,0,5.6,1.2,7.6,3.5v-16.2h8.5v45h-7.6
		L287,206c-2.1,2.6-4.8,4-8.1,4c-3.7,0-6.7-1.5-9-4.4S266.5,198.5,266.5,193.2z M275,193.9c0,3,0.5,5.3,1.6,6.8
		c1,1.6,2.5,2.4,4.5,2.4c2.6,0,4.5-1.1,5.5-3.3v-12.5c-1.1-2.2-2.9-3.3-5.5-3.3C277,183.9,275,187.2,275,193.9z"/>
	<path class="st2" d="M358.6,197.8l4.2-20.2h8.2l-8.1,31.7h-7.1l-6-20l-6,20h-7.1l-8.1-31.7h8.2l4.1,20.2l5.8-20.2h6.1L358.6,197.8z
		"/>
	<path class="st2" d="M396.9,209.9c-4.6,0-8.4-1.4-11.4-4.3c-2.9-2.9-4.4-6.7-4.4-11.4v-0.8c0-3.2,0.6-6,1.8-8.5s3-4.4,5.2-5.8
		s4.8-2,7.7-2c4.3,0,7.7,1.4,10.2,4.1s3.7,6.6,3.7,11.6v3.5h-20.2c0.3,2.1,1.1,3.7,2.5,5s3.1,1.9,5.2,1.9c3.3,0,5.8-1.2,7.6-3.5
		l4.2,4.7c-1.3,1.8-3,3.2-5.2,4.2S399.5,209.9,396.9,209.9z M395.9,183.9c-1.7,0-3,0.6-4.1,1.7c-1,1.1-1.7,2.8-2,4.9h11.8v-0.7
		c0-1.9-0.5-3.3-1.5-4.4C399.1,184.4,397.7,183.9,395.9,183.9z"/>
	<path class="st2" d="M450.5,193.8c0,5.1-1.1,9-3.3,11.9s-5.2,4.3-9.1,4.3c-3.4,0-6.2-1.3-8.2-4l-0.4,3.4h-7.6v-45h8.5v16.1
		c2-2.3,4.5-3.4,7.7-3.4c3.9,0,6.9,1.4,9.1,4.3s3.3,6.8,3.3,12V193.8z M442,193.1c0-3.2-0.5-5.5-1.5-7c-1-1.5-2.5-2.2-4.5-2.2
		c-2.7,0-4.6,1.1-5.6,3.3v12.5c1,2.2,2.9,3.3,5.6,3.3c2.7,0,4.5-1.3,5.4-4C441.8,197.7,442,195.8,442,193.1z"/>
	<path class="st2" d="M483.7,193.2c0-4.9,1.1-8.9,3.3-11.8s5.2-4.4,9.1-4.4c3.1,0,5.6,1.2,7.6,3.5v-16.2h8.5v45h-7.6l-0.4-3.4
		c-2.1,2.6-4.8,4-8.1,4c-3.7,0-6.7-1.5-9-4.4S483.7,198.5,483.7,193.2z M492.2,193.9c0,3,0.5,5.3,1.6,6.8c1,1.6,2.5,2.4,4.5,2.4
		c2.6,0,4.5-1.1,5.5-3.3v-12.5c-1.1-2.2-2.9-3.3-5.5-3.3C494.2,183.9,492.2,187.2,492.2,193.9z"/>
</g>
<g class="st1">
	<path class="st2" d="M537.8,209.9c-4.6,0-8.4-1.4-11.4-4.3c-2.9-2.9-4.4-6.7-4.4-11.4v-0.8c0-3.2,0.6-6,1.8-8.5s3-4.4,5.2-5.8
		s4.8-2,7.7-2c4.3,0,7.7,1.4,10.2,4.1s3.7,6.6,3.7,11.6v3.5h-20.2c0.3,2.1,1.1,3.7,2.5,5s3.1,1.9,5.2,1.9c3.3,0,5.8-1.2,7.6-3.5
		l4.2,4.7c-1.3,1.8-3,3.2-5.2,4.2S540.4,209.9,537.8,209.9z M536.8,183.9c-1.7,0-3,0.6-4.1,1.7c-1,1.1-1.7,2.8-2,4.9h11.8v-0.7
		c0-1.9-0.5-3.3-1.5-4.4C540,184.4,538.6,183.9,536.8,183.9z"/>
	<path class="st2" d="M573.7,199l5.9-21.4h8.8l-10.7,31.7h-8.1L559,177.6h8.8L573.7,199z"/>
</g>
<g class="st1">
	<path class="st2" d="M613.7,209.9c-4.6,0-8.4-1.4-11.4-4.3s-4.4-6.7-4.4-11.4v-0.8c0-3.2,0.6-6,1.8-8.5s3-4.4,5.2-5.8s4.8-2,7.7-2
		c4.3,0,7.7,1.4,10.2,4.1s3.7,6.6,3.7,11.6v3.5h-20.2c0.3,2.1,1.1,3.7,2.5,5s3.1,1.9,5.2,1.9c3.3,0,5.8-1.2,7.6-3.5l4.2,4.7
		c-1.3,1.8-3,3.2-5.2,4.2S616.3,209.9,613.7,209.9z M612.7,183.9c-1.7,0-3,0.6-4.1,1.7s-1.7,2.8-2,4.9h11.8v-0.7
		c0-1.9-0.5-3.3-1.5-4.4S614.5,183.9,612.7,183.9z"/>
	<path class="st2" d="M647.7,209.3h-8.5v-45h8.5V209.3z"/>
	<path class="st2" d="M660.5,193.2c0-3.1,0.6-5.9,1.8-8.4c1.2-2.5,3-4.4,5.2-5.7c2.3-1.3,4.9-2,7.9-2c4.3,0,7.8,1.3,10.5,3.9
		c2.7,2.6,4.2,6.2,4.5,10.7l0.1,2.2c0,4.9-1.4,8.8-4.1,11.7c-2.7,2.9-6.4,4.4-10.9,4.4s-8.2-1.5-10.9-4.4s-4.1-6.9-4.1-12V193.2z
		 M669,193.8c0,3,0.6,5.3,1.7,6.9c1.1,1.6,2.8,2.4,4.9,2.4c2.1,0,3.7-0.8,4.8-2.4c1.2-1.6,1.7-4.1,1.7-7.6c0-3-0.6-5.2-1.7-6.9
		c-1.2-1.6-2.8-2.4-4.9-2.4c-2.1,0-3.7,0.8-4.8,2.4C669.6,187.9,669,190.4,669,193.8z"/>
	<path class="st2" d="M731.5,193.8c0,4.9-1.1,8.8-3.3,11.7c-2.2,2.9-5.2,4.4-9,4.4c-3.2,0-5.8-1.1-7.8-3.3v14.9H703v-43.9h7.9
		l0.3,3.1c2.1-2.5,4.7-3.7,8-3.7c3.9,0,6.9,1.4,9.1,4.3s3.3,6.9,3.3,12V193.8z M723,193.1c0-2.9-0.5-5.2-1.6-6.8
		c-1-1.6-2.6-2.4-4.6-2.4c-2.7,0-4.5,1-5.5,3v13c1,2.1,2.9,3.1,5.5,3.1C721,203.1,723,199.8,723,193.1z"/>
	<path class="st2" d="M758.5,209.9c-4.6,0-8.4-1.4-11.4-4.3s-4.4-6.7-4.4-11.4v-0.8c0-3.2,0.6-6,1.8-8.5s3-4.4,5.2-5.8s4.8-2,7.7-2
		c4.3,0,7.7,1.4,10.2,4.1s3.7,6.6,3.7,11.6v3.5h-20.2c0.3,2.1,1.1,3.7,2.5,5s3.1,1.9,5.2,1.9c3.3,0,5.8-1.2,7.6-3.5l4.2,4.7
		c-1.3,1.8-3,3.2-5.2,4.2S761.2,209.9,758.5,209.9z M757.6,183.9c-1.7,0-3,0.6-4.1,1.7s-1.7,2.8-2,4.9h11.8v-0.7
		c0-1.9-0.5-3.3-1.5-4.4S759.4,183.9,757.6,183.9z"/>
	<path class="st2" d="M801.4,185.6c-1.2-0.2-2.2-0.2-3-0.2c-3.2,0-5.3,1.1-6.3,3.3v20.7h-8.5v-31.7h8l0.2,3.8
		c1.7-2.9,4.1-4.4,7.1-4.4c0.9,0,1.8,0.1,2.6,0.4L801.4,185.6z"/>
</g>
<g>
	<g class="st1">
		<path class="st3" d="M56,83.1l41.7,14.7v20.5L34.7,91.6V74.3l63.1-26.7V68L56,83.1z"/>
	</g>
	<g class="st1">
		<path class="st2" d="M241.9,39.5h-32.7v88.8h-22V39.5H155V21.7h86.9V39.5z"/>
		<path class="st2" d="M386.2,128.3h-22V82.6h-42.8v45.7h-22V21.7h22v43.2h42.8V21.7h22V128.3z"/>
		<path class="st2" d="M531.1,21.7v70.2c0,11.7-3.7,20.9-11,27.7c-7.3,6.8-17.3,10.2-29.9,10.2c-12.5,0-22.3-3.3-29.7-9.9
			s-11.1-15.6-11.2-27.2v-71h22v70.4c0,7,1.7,12.1,5,15.3c3.3,3.2,8,4.8,13.9,4.8c12.4,0,18.6-6.5,18.8-19.5v-71H531.1z"/>
		<path class="st2" d="M633.6,89.3h-17.5v39h-22V21.7h39.6c12.6,0,22.3,2.8,29.2,8.4c6.8,5.6,10.3,13.5,10.3,23.8
			c0,7.3-1.6,13.3-4.7,18.2s-7.9,8.7-14.3,11.6l23.1,43.6v1h-23.6L633.6,89.3z M616.1,71.5h17.7c5.5,0,9.8-1.4,12.8-4.2
			c3-2.8,4.5-6.7,4.5-11.6c0-5-1.4-9-4.3-11.9c-2.9-2.9-7.2-4.3-13.1-4.3h-17.7V71.5z"/>
	</g>
	<g class="st1">
		<path class="st3" d="M776.7,82.8L734.2,68V47.6L798,74.3v17.2l-63.8,26.8V97.9L776.7,82.8z"/>
	</g>
</g>
</svg>
